<?xml version="1.0" encoding="utf-8"?>
<!-- Generator: Adobe Illustrator 19.0.0, SVG Export Plug-In . SVG Version: 6.00 Build 0)  -->
<svg version="1.1" id="Layer_1" xmlns="http://www.w3.org/2000/svg" xmlns:xlink="http://www.w3.org/1999/xlink" x="0px" y="0px"
	 viewBox="0 0 560 960" style="enable-background:new 0 0 560 960;" xml:space="preserve">
<style type="text/css">
	.st0{opacity:0.3;fill:#CCCCCC;}
	.st1{opacity:0.1;}
	.st2{fill:url(#XMLID_3_);}
	.st3{fill:url(#XMLID_4_);}
	.st4{fill:url(#XMLID_5_);}
	.st5{fill:url(#XMLID_6_);}
	.st6{fill:url(#XMLID_7_);}
	.st7{fill:url(#XMLID_8_);}
	.st8{fill:url(#XMLID_9_);}
	.st9{fill:url(#XMLID_10_);}
	.st10{fill:url(#XMLID_11_);}
	.st11{fill:url(#XMLID_12_);}
	.st12{fill:url(#XMLID_14_);}
	.st13{fill:url(#XMLID_15_);}
	.st14{fill:url(#XMLID_16_);}
	.st15{fill:url(#XMLID_17_);}
	.st16{fill:url(#XMLID_18_);}
	.st17{fill:url(#XMLID_19_);}
	.st18{fill:url(#XMLID_20_);}
	.st19{fill:url(#XMLID_21_);}
	.st20{fill:url(#XMLID_22_);}
	.st21{fill:url(#XMLID_23_);}
	.st22{fill:url(#XMLID_24_);}
	.st23{fill:url(#XMLID_25_);}
	.st24{fill:url(#XMLID_26_);}
	.st25{fill:url(#XMLID_27_);}
	.st26{fill:url(#XMLID_28_);}
	.st27{fill:url(#XMLID_29_);}
	.st28{fill:url(#XMLID_30_);}
	.st29{fill:url(#XMLID_31_);}
	.st30{fill:url(#XMLID_32_);}
	.st31{fill:url(#XMLID_33_);}
	.st32{fill:url(#XMLID_34_);}
	.st33{fill:url(#XMLID_35_);}
	.st34{fill:url(#XMLID_36_);}
	.st35{fill:url(#XMLID_37_);}
	.st36{fill:url(#XMLID_38_);}
	.st37{fill:url(#XMLID_39_);}
	.st38{fill:url(#XMLID_40_);}
	.st39{fill:url(#XMLID_41_);}
	.st40{fill:url(#XMLID_42_);}
	.st41{fill:url(#XMLID_43_);}
	.st42{fill:url(#XMLID_44_);}
	.st43{fill:url(#XMLID_45_);}
	.st44{fill:url(#XMLID_46_);}
	.st45{fill:url(#XMLID_47_);}
	.st46{fill:url(#XMLID_48_);}
	.st47{fill:url(#XMLID_49_);}
	.st48{fill:url(#XMLID_50_);}
	.st49{fill:url(#XMLID_51_);}
	.st50{fill:url(#XMLID_52_);}
	.st51{fill:url(#XMLID_53_);}
	.st52{fill:url(#XMLID_54_);}
	.st53{fill:url(#XMLID_55_);}
	.st54{fill:url(#XMLID_56_);}
	.st55{fill:url(#XMLID_57_);}
	.st56{fill:url(#XMLID_58_);}
	.st57{fill:url(#XMLID_59_);}
	.st58{fill:url(#XMLID_60_);}
	.st59{fill:url(#XMLID_61_);}
	.st60{fill:url(#XMLID_62_);}
	.st61{fill:url(#XMLID_63_);}
	.st62{fill:url(#XMLID_64_);}
	.st63{fill:url(#XMLID_65_);}
	.st64{fill:url(#XMLID_66_);}
	.st65{fill:url(#XMLID_67_);}
	.st66{fill:url(#XMLID_68_);}
	.st67{fill:url(#XMLID_69_);}
	.st68{fill:url(#XMLID_70_);}
	.st69{fill:url(#XMLID_71_);}
	.st70{fill:url(#XMLID_72_);}
	.st71{fill:url(#XMLID_73_);}
	.st72{fill:url(#XMLID_74_);}
	.st73{fill:url(#XMLID_75_);}
	.st74{fill:url(#XMLID_76_);}
	.st75{fill:url(#XMLID_77_);}
	.st76{fill:url(#XMLID_78_);}
	.st77{fill:url(#XMLID_79_);}
	.st78{fill:url(#XMLID_80_);}
	.st79{fill:url(#XMLID_81_);}
	.st80{fill:url(#XMLID_82_);}
	.st81{fill:url(#XMLID_83_);}
	.st82{fill:url(#XMLID_84_);}
	.st83{fill:url(#XMLID_85_);}
	.st84{fill:url(#XMLID_86_);}
	.st85{fill:url(#XMLID_87_);}
	.st86{fill:url(#XMLID_88_);}
	.st87{fill:url(#XMLID_89_);}
	.st88{fill:url(#XMLID_90_);}
	.st89{fill:url(#XMLID_91_);}
	.st90{fill:url(#XMLID_92_);}
	.st91{fill:url(#XMLID_93_);}
	.st92{fill:url(#XMLID_94_);}
	.st93{fill:url(#XMLID_95_);}
	.st94{fill:url(#XMLID_96_);}
	.st95{fill:url(#XMLID_97_);}
	.st96{fill:url(#XMLID_98_);}
	.st97{fill:url(#XMLID_99_);}
	.st98{fill:url(#XMLID_100_);}
	.st99{fill:url(#XMLID_101_);}
	.st100{fill:url(#XMLID_102_);}
	.st101{fill:url(#XMLID_103_);}
	.st102{fill:url(#XMLID_104_);}
	.st103{fill:url(#XMLID_105_);}
	.st104{fill:url(#XMLID_106_);}
	.st105{fill:url(#XMLID_107_);}
	.st106{fill:url(#XMLID_108_);}
	.st107{fill:url(#XMLID_109_);}
	.st108{fill:url(#XMLID_110_);}
	.st109{fill:url(#XMLID_111_);}
	.st110{fill:url(#XMLID_112_);}
	.st111{fill:url(#XMLID_113_);}
	.st112{fill:url(#XMLID_114_);}
	.st113{fill:url(#XMLID_115_);}
	.st114{fill:url(#XMLID_116_);}
	.st115{fill:url(#XMLID_117_);}
	.st116{fill:url(#XMLID_118_);}
	.st117{fill:url(#XMLID_119_);}
	.st118{fill:url(#XMLID_120_);}
	.st119{fill:url(#XMLID_121_);}
	.st120{fill:url(#XMLID_122_);}
	.st121{fill:url(#XMLID_123_);}
	.st122{fill:url(#XMLID_124_);}
	.st123{fill:url(#XMLID_125_);}
	.st124{fill:url(#XMLID_126_);}
</style>
<rect id="XMLID_2_" y="0.7" class="st0" width="560" height="959.3"/>
<g id="XMLID_13_" class="st1">
	<linearGradient id="XMLID_3_" gradientUnits="userSpaceOnUse" x1="249.8936" y1="278.3506" x2="342.0865" y2="278.3506">
		<stop  offset="0" style="stop-color:#29ABE2"/>
		<stop  offset="1" style="stop-color:#93278F"/>
	</linearGradient>
	<path id="XMLID_1717_" class="st2" d="M335.7,331.4c-26.9,0-53.1,0-79.7,0c-0.2-3.6-0.4-7-0.5-10.3c-0.4-0.2-0.7-0.3-1.1-0.5
		c-0.8,1.2-1.8,2.2-2.3,3.5c-0.4,0.8-0.1,1.9-0.2,2.9c-0.1,9.9-0.1,9.9,9.6,9.9c23,0,46,0,69,0c8.5,0,8.9-0.4,9.2-8.7
		c0-1,0.3-2.1,0.6-3.6c4.2,8.5,0.7,14.6-7.9,14.6c-24.5,0-48.9,0-73.4,0c-7.7,0-9.1-1.4-9.1-9.2c0-30.4,0-60.7,0-91.1
		c0-7.8,1.4-9.2,9.1-9.3c12.1-0.1,24.3-0.2,36.4-0.3c1.6,0,3.2-0.1,5.2-0.2c0.2-3.3,0.5-6.4,0.8-10.7c6.7,3.8,13.2,6,19.6-0.8
		c0.1,0.6,0.2,1.2,0.3,1.7c0.2,0.7,0.5,1.5,0.5,2.2c0.5,7.6,0.5,7.5,8.3,7.5c2.3,0,4.7-0.1,6.9,0.4c3.6,0.8,4.8,3.7,4.8,7.1
		c0,25.4,0,50.9,0,76.3c0,1.3-0.1,3.3-0.8,3.7C334.8,319.8,336.3,325.8,335.7,331.4z M252.2,318.1c2.8,0,5.2,0,7.6,0
		c24.1,0,48.3,0,72.4,0c6.2,0,7.5-1.3,7.5-7.5c0-24,0-47.9,0-71.9c0-6.4-1.4-7.7-7.9-7.7c-24.5,0.2-48.9,0.5-73.4,0.8
		c-5.6,0.1-6.5,1-6.5,6.7c0,25.1,0,50.2,0,75.4C251.9,315.3,252.1,316.7,252.2,318.1z M333.6,320.6c-1.7-0.1-2.9-0.3-4.2-0.3
		c-22.3,0-44.6,0.1-66.9-0.1c-3.6,0-4.8,0.9-4.9,4.6c-0.1,4.1,1.6,4.9,5.2,4.8c21.6-0.1,43.3-0.1,64.9-0.1c6.4,0,6.4,0,6.2-6.6
		C333.9,322.4,333.8,321.8,333.6,320.6z M303.4,229c3.9,0,7.6,0,11.2,0c5.6-0.1,6.2-1.1,4-7.4c-4.8,4.5-9.9,3.2-15.2-0.2
		C303.4,224.2,303.4,226,303.4,229z"/>
	<linearGradient id="XMLID_4_" gradientUnits="userSpaceOnUse" x1="365.5647" y1="594.8198" x2="430.4595" y2="594.8198">
		<stop  offset="0" style="stop-color:#29ABE2"/>
		<stop  offset="1" style="stop-color:#93278F"/>
	</linearGradient>
	<path id="XMLID_1703_" class="st3" d="M398.1,627.3c-18.2,0-32.6-14.4-32.5-32.5c0-17.9,14.8-32.6,32.7-32.4
		c18,0.2,32.3,14.7,32.2,32.8C430.3,613.2,416,627.3,398.1,627.3z M412.2,596.4c-9.5,0-18.9,0-28.8,0c0.5,4.2,1,7.8,1.4,11
		c6.5,0,12.2-0.2,17.9,0c9.8,0.4,9.8,0.5,9.9-9.5C412.5,597.6,412.4,597.3,412.2,596.4z M383.5,593.4c10.1,0,19.4,0,29.3,0
		c-0.4-3.4-0.6-6.4-1.3-9.2c-0.2-0.9-1.6-2.2-2.4-2.2c-8-0.2-15.9-0.1-24.4-0.1C384.3,585.9,383.9,589.5,383.5,593.4z M385.9,610.1
		c2.5,9.6,7.6,15.5,12.6,15.1c5-0.3,10.2-6.8,11.5-15.1C402,610.1,394.2,610.1,385.9,610.1z M410.2,579.6c-2.4-9.4-7.3-15-12.4-14.9
		c-5.1,0.1-10.2,6.3-11.7,14.9C394.1,579.6,401.9,579.6,410.2,579.6z M428.5,596c-4.3,0-7.7-0.2-11,0.1c-1,0.1-2.5,1.5-2.7,2.5
		c-0.6,3.2-0.7,6.4-1.1,9.6c10.5,4.3,9.9,5.4,13.7-6.1C428,600.5,428.1,598.7,428.5,596z M381.1,596.4c-4.5,0-8.6,0-12.7,0
		c-0.6,12.6,3.6,16.4,13.4,12.4c0.1-0.1,0.2-0.2,0.7-0.7C382,604.6,381.6,600.7,381.1,596.4z M413.7,581.2c0.3,3.5,0.5,6.8,1.1,10
		c0.2,1,1.4,2.4,2.2,2.5c3.7,0.3,7.3,0.1,12.3,0.1c-1.8-5.2-3.1-9.4-4.8-13.3c-0.4-0.9-2.3-1.8-3.3-1.6
		C418.6,579.3,416.2,580.4,413.7,581.2z M380.9,593.5c0.5-3.5,1.3-6.7,1.1-9.8c-0.1-1.4-2.2-3.2-3.7-3.7c-2.1-0.6-5-3.6-6.7,0.3
		c-1.8,4-3,8.3-4.7,13.2C372.5,593.5,376.6,593.5,380.9,593.5z M408.1,565.7c-0.3,0.4-0.5,0.7-0.8,1.1c1.9,3.9,3.8,7.7,6,12.1
		c2.7-0.9,5.3-1.8,7.9-2.6c0.1-0.5,0.2-1.1,0.3-1.6C416.9,571.6,412.5,568.7,408.1,565.7z M387.7,624.1c0.4-0.3,0.8-0.7,1.1-1
		c-1.4-2.9-3.1-5.7-4.2-8.7c-1-2.8-2.3-3.6-5-2.4c-1.4,0.6-3,1.1-6,2.2C378.9,617.9,383.3,621,387.7,624.1z M382.9,578.8
		c2.2-4.5,4.1-8.4,6-12.2c-0.3-0.3-0.6-0.7-0.9-1c-4.5,3.1-8.9,6.2-13.4,9.2c0.2,0.5,0.3,1,0.5,1.5
		C377.6,577.1,380.2,578,382.9,578.8z M421.6,614.8c-0.2-0.5-0.4-1-0.6-1.5c-2.7-0.8-5.4-1.5-7.8-2.3c-2.2,4.4-4,8.2-5.8,11.9
		c0.3,0.4,0.6,0.8,0.9,1.2C412.7,621,417.1,617.9,421.6,614.8z"/>
	<linearGradient id="XMLID_5_" gradientUnits="userSpaceOnUse" x1="255.6329" y1="549.5959" x2="347.7725" y2="549.5959">
		<stop  offset="0" style="stop-color:#29ABE2"/>
		<stop  offset="1" style="stop-color:#93278F"/>
	</linearGradient>
	<path id="XMLID_1698_" class="st4" d="M347.8,510.7c0,22.1,0,44,0,66.5c-13.6,0-26.8,0-40.4,0c0,3.4,0,6.3,0,9.7
		c4.4,0.2,8.9,0.4,13.4,0.7c0,0.5-0.1,1-0.1,1.5c-12.5,0-25.1,0-37.6,0c-0.1-0.4-0.1-0.9-0.2-1.3c2-0.2,4.1-0.4,6.1-0.5
		c2.3-0.1,4.6,0,7.3,0c0-3.3,0-6.3,0-10c-2.1,0-4,0-5.9,0c-10.2,0-20.4,0-30.5,0c-2.3,0-4.2-0.2-4.2-3.3c0.1-20.2,0-40.4,0.2-60.6
		c0-1.1,1.9-3.1,3-3.1c29.4-0.1,58.7,0,88.1,0.1C347.1,510.3,347.2,510.4,347.8,510.7z M257.7,512.6c0,16.9,0.1,33.2-0.1,49.4
		c-0.1,4.2,1.3,5.2,5.3,5.2c25.9-0.2,51.9-0.1,77.8-0.1c1.6,0,3.2-0.2,4.8-0.3c0-18.3,0-36.1,0-54.2
		C316.3,512.6,287.3,512.6,257.7,512.6z M258.3,574.9c29.2,0,58.1,0,87.3,0c0-1.9,0-3.4,0-5.2c-1.1-0.2-2.1-0.5-3-0.5
		c-26.9,0-53.8,0-80.7-0.1C257.7,569.1,257.2,571,258.3,574.9z M298.7,587.1c2.5-0.1,4.1-0.2,6.7-0.4c-0.7-3.6-1.2-6.5-2-9.3
		c-0.1-0.3-3.4-0.1-3.5,0.2C299.3,580.6,299.1,583.6,298.7,587.1z"/>
	<linearGradient id="XMLID_6_" gradientUnits="userSpaceOnUse" x1="58.9706" y1="425.9415" x2="158.7174" y2="425.9415">
		<stop  offset="0" style="stop-color:#29ABE2"/>
		<stop  offset="1" style="stop-color:#93278F"/>
	</linearGradient>
	<path id="XMLID_1693_" class="st5" d="M59,464.6c0-5.8,0-10.9,0-15.9c0-18.9,0.2-37.7,0-56.6c0-4.2,1.4-5.2,5.3-5.2
		c29.5,0.2,59,0.2,88.6,0c4.5,0,5.9,1.1,5.8,5.7c-0.3,21.8-0.2,43.6-0.3,65.4c0,6.7-0.3,6.9-6.8,6.9c-24.9-0.1-49.8-0.3-74.7-0.4
		C71.1,464.6,65.4,464.6,59,464.6z M61.2,397.3c0,2.3,0,4.1,0,5.9c0,16.2-0.1,32.5-0.1,48.7c0,10.7,0,10.7,10.6,10.7
		c28.1,0,56.3,0,84.6,0c0-22.2,0-43.6,0-65.3C124.5,397.3,93.3,397.3,61.2,397.3z M61.7,394.9c2,0,3.8,0,5.5,0c17.4,0,34.8,0,52.2,0
		c7.6,0,15.1,0.1,22.7-0.1c1.2,0,2.3-1.8,3.4-2.8c-1.1-0.9-2.1-1.8-3.2-2.6c-0.3-0.2-1,0-1.5,0c-25.1,0-50.2,0-75.4,0
		c-1.2,0-2.5,0.3-3.8,0.4C61.7,391.5,61.7,392.9,61.7,394.9z M152,396.8c2.1-2.3,4.1-3.4,4.3-4.9c0.5-3.4-2.5-2.5-4.4-2.5
		c-1.9-0.1-4.8-0.7-4.3,2.7C147.9,393.4,149.9,394.5,152,396.8z"/>
	<linearGradient id="XMLID_7_" gradientUnits="userSpaceOnUse" x1="381.2819" y1="429.2942" x2="502.7884" y2="429.2942">
		<stop  offset="0" style="stop-color:#29ABE2"/>
		<stop  offset="1" style="stop-color:#93278F"/>
	</linearGradient>
	<path id="XMLID_1690_" class="st6" d="M381.5,456.1c2.6-0.1,4.8-0.2,7.9-0.4c0-14.3,0-28.4,0-42.6c0.6,0,1.2,0,1.8,0
		c0,14,0,28,0,42.4c34.1,0,67.3,0,100.9,0c0.1-1.5,0.4-2.9,0.4-4.3c0-19.2-0.1-38.4,0.1-57.6c0-4-1.3-5-5.1-5
		c-21.5,0.1-43,0.1-64.5,0c-1.7,0-3.3-0.2-5-1.4c25.2,0,50.4,0,76.2,0c0.1,1.8,0.2,3.7,0.3,5.6c0,18.9,0.2,37.8-0.1,56.6
		c-0.1,5,1,7.5,6.4,6.5c0.6-0.1,1.2,0.2,1.8,0.3c1.6,8.9-2.8,14.5-11.9,14.5c-15.8,0.1-31.5,0-47.3,0c-16.5,0.1-32.9,0.2-49.4,0.5
		C385.3,471.5,380.1,465.4,381.5,456.1z M500.4,458.5c-39,0-78,0-117,0c0.2,7.1,3,9.9,10.1,9.9c16.8,0.2,33.7,0.3,50.5,0.4
		c15.4,0.1,30.8,0.1,46.2,0C497.3,468.8,500.7,465.3,500.4,458.5z"/>
	<linearGradient id="XMLID_8_" gradientUnits="userSpaceOnUse" x1="163.4374" y1="512.3853" x2="238.2393" y2="512.3853">
		<stop  offset="0" style="stop-color:#29ABE2"/>
		<stop  offset="1" style="stop-color:#93278F"/>
	</linearGradient>
	<path id="XMLID_1685_" class="st7" d="M238.2,536.1c-3.9,0.4-7,0.8-11.2,1.2c2.8,3.3,4.8,5.6,6.8,7.9c-0.3,0.3-0.6,0.6-0.9,0.9
		c-0.8-0.5-1.8-0.9-2.5-1.6c-2.3-2.3-4.3-5-8.3-3.5c-0.7,0.3-2.2-0.3-2.7-0.9c-2.9-4.5-7.3-3.4-11.5-3.4c-13.3,0-26.6-0.1-39.8,0.1
		c-3.6,0-4.8-0.9-4.8-4.7c0.2-16.2,0.2-32.5,0-48.7c0-3.2,0.7-4.8,4.3-4.7c8.8,0.2,17.6,0.1,26.4,0.1c13.6,0,27.1-0.2,40.7-0.1
		c1.1,0,3.2,1.8,3.3,2.8C238.3,499.7,238.2,517.8,238.2,536.1z M166.2,534.6c16.4,0,32.1,0.1,47.8-0.1c1.2,0,2.7-1.4,3.7-2.5
		c2.9-3.3,7.3-3.8,9.5-0.2c2.2,3.6,4.8,3,8.2,2.4c0-14.3-0.1-28.4,0-42.4c0-3.8-1.8-4.6-5.2-4.5c-9.4,0.3-18.9,0.5-28.4,0.5
		c-11.8,0.1-23.7,0-35.7,0C166.2,503.3,166.2,518.7,166.2,534.6z M166.3,485.3c21.6,0,43,0,64.3-0.1c1.5,0,3.1-1.4,4.6-2.1
		c-1.5-0.7-3-2.1-4.5-2.1c-21.4-0.1-42.7-0.1-64.4-0.1C166.3,482.5,166.3,483.7,166.3,485.3z M228.2,535.8c-2.6-2.1-3.9-3.9-5.3-4
		c-1.1-0.1-3.3,1.8-3.5,3c-0.2,1.2,1.5,3.5,2.6,3.7C223.5,538.7,225.1,537.3,228.2,535.8z"/>
	<linearGradient id="XMLID_9_" gradientUnits="userSpaceOnUse" x1="77.7538" y1="503.8019" x2="134.6773" y2="503.8019">
		<stop  offset="0" style="stop-color:#29ABE2"/>
		<stop  offset="1" style="stop-color:#93278F"/>
	</linearGradient>
	<path id="XMLID_1679_" class="st8" d="M120.4,529c3,0,5.3,0,7.6,0c2.2,0,4.4,0,6.6,0c0,0.6,0.1,1.1,0.1,1.7c-4.5,0-9,0-13.6,0
		c-0.6,2.3-1,3.8-1.4,5.5c-8.9,0-17.7,0-26.9,0c-0.4-1.4-0.7-2.9-1.3-5.2c-4.5,0-9.1,0-13.7,0c0-0.5,0-1.1,0-1.6c4.5,0,9.1,0,13.6,0
		c0.5-2.2,0.8-3.6,1.3-5.5c2.7,0,5.5-0.1,8.2,0c2.6,0.1,4.4-0.3,4.3-3.7c0-2.9-0.6-4.3-4-4.6c-5-0.5-10-1.7-14.8-3.1
		c-4.5-1.4-6.7-4.8-6.5-9.8c0.3-5.7,0.3-11.5,0-17.2c-0.3-5.7,2.4-8.9,7.4-10.7c8.8-3.3,18-3.9,27.2-2.2c5,0.9,9.9,2.9,14.6,5
		c1.4,0.6,2.7,3.1,2.8,4.7c0.2,7.7,0.3,15.4-0.4,23c-0.2,2.3-2.4,5.5-4.5,6.3c-5.1,2-10.6,3.4-16,4.1c-3.5,0.5-3.8,2-3.9,4.8
		c0,2.9,1.3,3.7,3.9,3.5c1.3-0.1,2.6,0.1,3.9,0C118.5,523.3,120.9,524.3,120.4,529z M105.8,490.8c6.5-1.5,12.9-2.7,19.1-4.5
		c1.6-0.5,3.6-2.7,3.8-4.3c0.2-1.2-1.9-3.4-3.5-4.1c-12.7-5.9-25.7-5.4-38.5-0.4c-1.7,0.7-3.9,2.8-3.9,4.3c0,1.5,2.2,3.8,3.9,4.3
		C92.8,488,99.2,489.2,105.8,490.8z M82.7,499.1c-1,7.7-0.2,9.6,5.5,11.6c11.9,4.1,23.8,4.2,35.7-0.1c5.9-2.2,7-5.2,4.9-11.4
		C113.5,505.6,98.3,505.5,82.7,499.1z M82.8,487.2c-1.1,8-0.2,9.8,6.8,12c11.1,3.5,22.3,3.3,33.4-0.1c5.8-1.8,7.6-5.8,6-11.8
		C111.1,494.4,95.9,492.8,82.8,487.2z M93,525.9c1.4,3.5,2.2,7.8,3.4,7.9c7.1,0.6,14.2,0.3,22.9,0.3c-1.4-3.5-2.2-7.8-3.3-7.9
		C108.9,525.6,101.8,525.9,93,525.9z"/>
	<linearGradient id="XMLID_10_" gradientUnits="userSpaceOnUse" x1="120.8572" y1="575.5723" x2="172.3441" y2="575.5723">
		<stop  offset="0" style="stop-color:#29ABE2"/>
		<stop  offset="1" style="stop-color:#93278F"/>
	</linearGradient>
	<path id="XMLID_1674_" class="st9" d="M120.9,582.3c0-3.4,0-6.9,0-10.3c0-2.9-0.3-5.9,3.1-7.6c0.8-0.4,1-2.6,1.1-4
		c0.9-10.4,8.3-17.5,18.7-17.7c3.4-0.1,7.2-0.4,10.2,0.8c3.9,1.6,9.1,3.9,10.5,7.2c3.2,7.7,8,15.1,7.9,24c-0.1,6.4,0.1,12.8,0,19.2
		c-0.2,8.6-5,14-13.5,14.4c-8.2,0.4-16.4,0.4-24.6,0c-8.2-0.4-13.1-5.9-13.3-14.1C120.8,590.2,120.9,586.2,120.9,582.3z
		 M123.3,595.6c0.5,5.9,3.9,9.5,8.6,9.8c9.8,0.7,19.6,0.7,29.4,0c5.4-0.4,8.2-4.7,8-9.9c-2.3-0.2-4.6-0.4-6.9-0.6c0-0.5,0-1,0-1.5
		c1.7-0.1,3.4-0.1,5-0.5c1-0.3,1.8-1.3,2.7-1.9c-0.9-0.7-1.7-1.7-2.8-2c-1.5-0.4-3.2-0.4-4.8-0.6c0-0.4,0.1-0.9,0.1-1.3
		c1.7-0.1,3.4,0,5.1-0.3c0.9-0.2,1.6-1.2,2.4-1.8c-0.8-0.8-1.5-1.9-2.5-2.2c-1.6-0.5-3.4-0.4-5.1-0.6c0-0.4,0.1-0.9,0.1-1.3
		c1.6-0.1,3.3,0.1,4.8-0.4c1-0.3,1.8-1.4,2.6-2.1c-0.9-0.6-1.8-1.5-2.8-1.8c-1.6-0.4-3.2-0.3-4.8-0.5c0-0.5,0-1,0-1.5
		c2.4-0.3,4.9-0.6,7.2-0.8c1-6.9,0.9-7.1-5.6-7.1c-11.8,0-23.6,0-35.4,0c-6,0-6.6,0.9-4.9,7c2.4,0.3,4.7,0.6,7.1,1
		c0,0.5-0.1,1-0.1,1.5c-1.5,0.1-3.1-0.1-4.5,0.3c-1.1,0.3-2.1,1.3-3.1,2c1,0.7,1.8,1.6,2.9,1.9c1.5,0.4,3.1,0.4,4.6,0.6
		c-0.1,0.5-0.1,1-0.2,1.5c-1.6,0-3.2-0.3-4.7,0.1c-1,0.2-1.8,1.3-2.6,2.1c0.9,0.7,1.7,1.6,2.8,1.9c1.5,0.4,3.1,0.4,4.7,0.5
		c-0.9,1.3-1.7,1.3-2.4,1.6c-1.7,0.7-3.4,1.5-5.1,2.2c1.6,0.6,3.2,1.3,4.8,1.9c0.9,0.3,1.9,0.5,2.9,0.8c0,0.4,0,0.7-0.1,1.1
		C128.4,595.2,126.1,595.4,123.3,595.6z M133.9,564.7c7.2,0,14.2,0,21.2,0c5.2,0,6-1.1,4.5-6.1c-1.3-4.3-4.2-6.9-8.7-7.5
		c-2.3-0.3-4.6-0.2-6.9-0.1C136.4,551.2,132.6,556,133.9,564.7z M166,562c-0.2-9.6-7-16.5-15.6-17c-13.7-0.8-21.6,3.9-22.9,13.8
		c-0.1,0.8-0.4,1.7-0.2,2.4c0.4,1.2,1.2,2.2,1.9,3.3c0.6-0.9,1.6-1.8,1.7-2.8c1.3-9.7,5.4-13,16.1-13c9.9,0,14,3.6,15.3,12.8
		c0.1,1.1,1.4,2,2.1,3C165.1,563.5,165.8,562.4,166,562z"/>
	<linearGradient id="XMLID_11_" gradientUnits="userSpaceOnUse" x1="190.6996" y1="621.5923" x2="290.4125" y2="621.5923">
		<stop  offset="0" style="stop-color:#29ABE2"/>
		<stop  offset="1" style="stop-color:#93278F"/>
	</linearGradient>
	<path id="XMLID_1668_" class="st10" d="M259.4,648.7c-11.5,10.2-24.3,14.2-39,10.3c-21.6-5.8-34.2-28-28.1-49.6
		c5.9-21,27.9-33.5,49-27.8c21.6,5.9,34.2,27.9,28,49.6c-1.2,4.1-0.5,6.1,3,8.2c4.9,2.9,9.6,6.3,14.3,9.6c4.1,2.9,5.1,7.6,2.6,11.1
		c-2.4,3.3-6.8,3.9-10.9,1.2C271.9,657.2,265.8,653.1,259.4,648.7z M230.8,658.1c20.8,0,37.9-17,37.9-37.9c0-20.6-17-37.8-37.5-37.8
		c-21.3,0-38.5,16.9-38.4,37.9C192.9,641.3,209.9,658.1,230.8,658.1z M266.9,638.4c-2.1,3.3-3.8,5.8-5.8,8.8
		c6.6,4.4,12.8,9,19.4,12.8c1.5,0.9,5.1-0.1,6.7-1.5c2.3-2,1.4-5-1-6.8C279.9,647.2,273.5,643,266.9,638.4z"/>
	<linearGradient id="XMLID_12_" gradientUnits="userSpaceOnUse" x1="140.2027" y1="296.9308" x2="233.9199" y2="296.9308">
		<stop  offset="0" style="stop-color:#29ABE2"/>
		<stop  offset="1" style="stop-color:#93278F"/>
	</linearGradient>
	<path id="XMLID_1665_" class="st11" d="M187.3,327.8c-14.1,0-28.2-0.1-42.3,0.1c-3.6,0-4.8-1.1-4.8-4.8c0.2-17.6,0.1-35.1,0-52.7
		c0-3.5,1.2-4.5,4.6-4.5c28.2,0.1,56.4,0.1,84.6,0c3.4,0,4.5,1.1,4.5,4.5c-0.1,17.6-0.2,35.1,0,52.7c0,3.7-1.1,4.8-4.8,4.8
		C215.2,327.7,201.3,327.8,187.3,327.8z M231.3,268.7c-1-0.2-1.5-0.4-2-0.4c-27.7,0-55.4,0-83.1-0.1c-3.7,0-3.8,1.9-3.8,4.6
		c0.1,15.6,0.2,31.2-0.1,46.7c-0.1,4.8,1,6.4,6.2,6.4c25.7-0.3,51.5-0.1,77.2-0.1c1.8,0,3.5,0,5.6,0
		C231.3,306.5,231.3,287.7,231.3,268.7z"/>
	<linearGradient id="XMLID_14_" gradientUnits="userSpaceOnUse" x1="252.9046" y1="383.8149" x2="328.793" y2="383.8149">
		<stop  offset="0" style="stop-color:#29ABE2"/>
		<stop  offset="1" style="stop-color:#93278F"/>
	</linearGradient>
	<path id="XMLID_1662_" class="st12" d="M314.6,414.8c-2.9-1.7-4.6-2.7-6.3-3.8c-4.8-2.9-9.3-1.1-10.6,4.3
		c-1.6,6.4-3.8,7.9-10.3,6.2c-1.3-0.3-2.5-2.6-3-4.2c-2.1-8.2-5.8-9.9-12.8-5.1c-3.6,2.5-5.4,1-7.7-1.5c-2.4-2.4-4.1-4.2-1.6-7.8
		c4.7-7,3.1-10.9-5.3-12.5c-4-0.8-4.3-3-4.2-6.2c0-3.4-0.2-6.6,4.5-6.9c3.3-0.2,6.3-1.1,6.9-5c0.2-1.8,0.4-4.2-0.6-5.3
		c-3.8-4.5-3.2-8.1,1.5-11.3c0.8-0.6,1.5-1.3,2.6-2.4c1.7,1,3.5,2,5.2,3.1c5,3.1,9.5,1.3,10.8-4.5c1.4-5.9,4.6-7.9,10.5-5.8
		c1.2,0.4,2.3,2.5,2.7,4c2.1,8.3,5.8,10.1,12.6,5.3c3.5-2.4,5.3-1.3,7.8,1.3c2.4,2.5,4.3,4.4,1.6,8.2c-4.6,6.6-2.8,10.9,5.2,12.2
		c5.3,0.8,4.2,4.2,4.6,7.5c0.5,3.9-1.3,5.1-4.7,5.8c-7.6,1.6-9.4,5.7-5.1,12.1c2.2,3.2,2.3,5.4-0.8,7.8
		C316.7,411.4,315.9,413.1,314.6,414.8z M313.2,411.3c5.7-4.5,5.7-4.5,3.2-8.4c-4.2-6.7-1.9-12.8,5.9-14.3c4.5-0.9,4.9-3.7,3.9-6.7
		c-0.5-1.5-3.4-2.5-5.4-3c-5.3-1.4-8.3-7.9-5.6-12.5c3.4-5.8,3.4-5.8-2.3-10c-0.6,0.3-1.3,0.7-2,1.1c-8.4,5-13.2,3.2-15.8-6.1
		c-0.7-2.6-2.1-3.1-4.6-3.2c-3.3-0.2-4.1,1.5-4.7,4.3c-1.6,7.5-7.8,10-14.3,6c-1.1-0.7-2.3-1.3-3.3-1.9c-5.6,4.2-5.7,4.4-3.5,8
		c4.5,7.5,2.3,13-6.1,14.9c-3.1,0.7-3.8,2.1-3.8,5c0,4.3,3.2,3.9,5.7,4.5c5.3,1.2,8.4,7.8,5.7,12.5c-3.4,5.8-3.4,5.8,2.2,10.1
		c0.8-0.4,1.7-0.9,2.5-1.4c7.9-4.8,13-2.7,15.4,6.4c0.7,2.7,2.1,3.1,4.5,3.2c3.3,0.2,4.1-1.5,4.7-4.3c1.6-7.6,7.7-10.1,14.3-6
		C311,410.1,312.2,410.7,313.2,411.3z"/>
	<linearGradient id="XMLID_15_" gradientUnits="userSpaceOnUse" x1="257.6087" y1="465.3603" x2="312.976" y2="465.3603">
		<stop  offset="0" style="stop-color:#29ABE2"/>
		<stop  offset="1" style="stop-color:#93278F"/>
	</linearGradient>
	<path id="XMLID_1657_" class="st13" d="M285.6,497.9c-7.5,0-15.1-0.1-22.6,0.1c-4,0.1-5.4-1.5-5.4-5.5c0.3-18.5,0.4-37,0.3-55.5
		c0-3.3,1.2-4.2,4.3-4.2c15.4,0.1,30.8,0.1,46.2,0c3.2,0,4.2,1.1,4.2,4.3c0,19.1,0.1,38.2,0.3,57.4c0,2.4-0.7,3.6-3.3,3.6
		C301.6,497.9,293.6,497.9,285.6,497.9z M260.7,434.9c0,20.4,0,40.1,0,60.2c16.8,0,32.9,0,49.3,0c0-20.3,0-40,0-59.8
		c-4.3,0-8.1,0-12.1,0c-0.7,3.3,0.1,7.4-4.9,7.3c-5.1,0-10.2,0.2-15.3-0.2c-1.5-0.1-4.1-2-4.1-3.1c-0.1-4.3-2.5-4.7-5.8-4.5
		C265.7,435,263.4,434.9,260.7,434.9z M285.4,440.2c2.3,0,4.6,0.3,6.9-0.1c1.2-0.2,2.1-1.7,3.1-2.6c-0.9-0.8-1.8-2.4-2.8-2.4
		c-4.7-0.3-9.5-0.3-14.2,0c-1,0-1.9,1.5-2.8,2.3c1,1,1.9,2.5,3,2.7C280.8,440.5,283.1,440.2,285.4,440.2z"/>
	<linearGradient id="XMLID_16_" gradientUnits="userSpaceOnUse" x1="348.3725" y1="383.4876" x2="414.3561" y2="383.4876">
		<stop  offset="0" style="stop-color:#29ABE2"/>
		<stop  offset="1" style="stop-color:#93278F"/>
	</linearGradient>
	<path id="XMLID_1653_" class="st14" d="M414.4,357.4c0,17.7,0,35,0,52.7c-21.9,0-43.4,0-65.3,0c-0.2-1-0.6-2.1-0.6-3.1
		c0-15.3,0-30.5-0.1-45.8c0-2.6,0.3-4.4,3.6-4.4c20,0.1,40,0.1,60,0.1C412.7,356.9,413.3,357.2,414.4,357.4z M412.6,367.6
		c-1-0.5-1.3-0.7-1.6-0.7c-19.2-0.1-38.4-0.2-57.6,0c-1,0-2.9,2.4-2.9,3.7c-0.2,11.3-0.1,22.6-0.2,34c0,3,1.1,4,4,4
		c18-0.1,36.1-0.1,54.1,0c2.9,0,4.1-0.9,4.1-4c-0.2-5.7,0-11.5,0-17.2C412.6,380.6,412.6,373.9,412.6,367.6z M381.5,364.4
		c9,0,18,0.1,27-0.1c1.4,0,2.7-1.7,4-2.7c-1.2-0.9-2.5-2.5-3.7-2.5c-18.2-0.2-36.4-0.2-54.5,0c-1.3,0-2.5,1.6-3.8,2.4
		c1.3,0.9,2.6,2.7,4,2.7C363.5,364.5,372.5,364.4,381.5,364.4z"/>
	<linearGradient id="XMLID_17_" gradientUnits="userSpaceOnUse" x1="360.2089" y1="274.1296" x2="434.8814" y2="274.1296">
		<stop  offset="0" style="stop-color:#29ABE2"/>
		<stop  offset="1" style="stop-color:#93278F"/>
	</linearGradient>
	<path id="XMLID_1650_" class="st15" d="M406.3,286.9c-3.3-3.2-6-5.7-8.6-8.3c-2.5,2.7-5,5.5-7.6,8.4c0.7,0.2,2,0.5,3.5,0.8
		c0,3.5,0,6.9,0,10.7c-8,0-16,0.6-23.8-0.2c-5.5-0.6-9.1-6.1-9.5-11.7c-0.4-6,2.7-11.1,8.1-13.3c1.3-0.6,2.8-0.9,4-1.3
		c0.2-3.2,0.1-6.4,0.8-9.3c1.6-7.2,7.4-12.3,14.7-13.3c6.9-1,14,2.3,17.4,8.6c1.5,2.9,3,4,6.3,3.7c4.7-0.3,8.3,2.2,9.8,6.7
		c1,2.8,2.6,4,5.2,5c5.7,2.2,9.1,8.5,8,14.3c-1.1,6.4-6,11-12.4,11.3c-5.9,0.2-11.8,0-17.7,0.1c-2.5,0-3.9-0.9-3.4-3.4
		C401.7,292.4,398.6,287.2,406.3,286.9z M384.1,289.2c4.9-4.9,9.3-9.2,12.6-12.5c4.2,4.2,8.5,8.6,12.3,12.5c-1,0.1-3.1,0.4-5.3,0.6
		c0,2.4,0,4.5,0,7c6.8,0,13.3,0.5,19.8-0.2c6.4-0.7,10.1-6.8,9-13c-1.1-6-6.8-9.9-13.2-9c-1.1,0.2-2.2,0.2-3.2,0.2
		c-0.1-0.3-0.1-0.7-0.2-1c1.4-0.7,2.8-1.4,4.3-2.2c-0.7-4.4-3.3-7.2-7.3-7.6c-2.1-0.2-4.4,1.5-6.9,2.4c-0.1-0.4-0.4-1.8-0.8-3.1
		c-1.8-6.5-6-10.5-12.6-11.6c-6.5-1.1-12.7,1.8-15.7,7.7c-1.3,2.5-2.1,5.7-1.8,8.4c0.2,2.4,2.2,4.7,3.4,7.2c-0.5-0.1-1.2-0.1-2-0.2
		c-7.2-1.2-13.2,2.9-14.1,9.6c-0.9,6.5,4.2,12.3,11.4,12.6c4.9,0.2,9.9,0.3,14.8-0.1c1.1-0.1,2.9-2.4,2.9-3.6c0-1.3-1.7-2.8-3-3.7
		C387.5,288.9,386,289.3,384.1,289.2z"/>
	<linearGradient id="XMLID_18_" gradientUnits="userSpaceOnUse" x1="190.3788" y1="428.9804" x2="228.143" y2="428.9804">
		<stop  offset="0" style="stop-color:#29ABE2"/>
		<stop  offset="1" style="stop-color:#93278F"/>
	</linearGradient>
	<path id="XMLID_1638_" class="st16" d="M228.1,410.8c-1.7,3.8-2.8,8.1-5.3,11.2c-2.8,3.4-5.7,6.1-5.8,11.1c0,4.6-2.6,8.8-2,13.9
		c0.4,3.4,0.5,7,1.2,10.6c0.7,4.2-2.2,7.8-5.8,8.2c-5.1,0.5-7.9-1.8-8.2-7.2c-0.3-5.6,0-11.2-0.4-16.7c-0.3-4.8-1.1-9.5-2.1-14.2
		c-0.3-1.3-2-2.4-3.2-3.5c-6.4-5.7-8-15-4-22.4c4-7.5,12.5-11.2,20.9-9.1C221.4,394.7,227.1,401.9,228.1,410.8z M208.9,394.3
		c-8.9-0.1-16.3,7.3-16.3,16.2c0,8.8,7.1,16,15.9,16.1c9.1,0.1,16.4-6.9,16.6-15.9C225.2,401.8,217.8,394.3,208.9,394.3z
		 M206.1,463.2c0.6-0.1,1.2-0.3,1.8-0.4c0-8.6,0.1-17.1-0.1-25.7c0-1.1-1.3-2.1-1.9-3.1c-0.6,1.1-1.6,2.2-1.6,3.3
		c-0.1,6.8-0.1,13.7,0.2,20.5C204.5,459.7,205.6,461.4,206.1,463.2z M210.3,463.3c4.1-1.7,4.1-4.8,3.3-7.2c-1.9-5.8-2-11.5-0.1-17.2
		c0.2-0.7,0.4-1.7,0.1-2.4c-0.3-0.9-1.1-1.6-1.7-2.4c-0.5,0.7-1.5,1.4-1.5,2.1C210.3,445,210.3,453.9,210.3,463.3z M202.6,428.5
		c0.1,0.8,0.2,2.6,0.3,2.6c3.8,0.2,7.7,0.2,11.6,0.1c0.3,0,0.5-1.7,0.8-2.7C210.9,428.5,207,428.5,202.6,428.5z"/>
	<linearGradient id="XMLID_19_" gradientUnits="userSpaceOnUse" x1="323.5588" y1="623.3207" x2="358.3913" y2="623.3207">
		<stop  offset="0" style="stop-color:#29ABE2"/>
		<stop  offset="1" style="stop-color:#93278F"/>
	</linearGradient>
	<path id="XMLID_1627_" class="st17" d="M339.5,604.2c1.1-10.5,3.8-13.7,12.3-12.9c-2.2,0.9-3.2,1.4-4.3,1.8
		c-3.6,1.5-5.7,4.1-5.3,7.9c0.2,1.4,1.6,3.4,2.9,3.9c9.2,3.5,13.1,8.8,13.1,18.5c0,5.1,0.1,10.2-0.1,15.3
		c-0.4,9.5-7.8,16.7-17.1,16.8c-9.2,0.1-16.7-6.6-17.4-16c-0.3-4.4-0.2-8.9-0.2-13.3C323.6,612.7,326.7,608.4,339.5,604.2z
		 M326,630.7c-0.1,2-0.2,3.3-0.3,4.5c-0.1,11,6,18.2,15.5,18c9.6-0.1,15.7-8,15.1-19c-0.1-2.4-0.7-3.6-3.3-3.6
		C344.2,630.7,335.4,630.7,326,630.7z M341.9,607.9c6.5,6.5,1.9,13.4,0.1,20.5c2.5,0,3.9,0,5.4,0c9.3,0.1,11.4-3.1,7.8-12
		c-0.1-0.2-0.2-0.3-0.2-0.4C352.5,610.4,347.6,607.2,341.9,607.9z M339.9,607.8c-9.7-1.4-16.7,9.7-13.3,20.1c4.3,0,8.6,0,13.8,0
		C337.4,621,334.1,614.4,339.9,607.8z M342.8,616.9C342.8,616.9,342.8,616.9,342.8,616.9c0-1.1,0.2-2.3-0.1-3.4
		c-0.2-0.7-1.2-1.3-1.8-1.9c-0.6,1.8-1.7,3.5-1.8,5.4c-0.1,1.5,0.9,3.1,1.4,4.7c0.8-0.6,1.8-1.1,2.2-1.9
		C343.1,618.9,342.8,617.8,342.8,616.9z"/>
	<linearGradient id="XMLID_20_" gradientUnits="userSpaceOnUse" x1="397.7873" y1="422.6207" x2="486.6111" y2="422.6207">
		<stop  offset="0" style="stop-color:#29ABE2"/>
		<stop  offset="1" style="stop-color:#93278F"/>
	</linearGradient>
	<path id="XMLID_1626_" class="st18" d="M397.8,449.5c0-12.2,0-24.4,0-36.5c0.5,0,1,0,1.4,0c0,11.4,0,22.9,0,34.6
		c2.3,0.2,3.7,0.4,5.1,0.4c25,0,49.9-0.1,74.9,0.1c3.9,0,5.5-0.8,5.4-5.1c-0.3-15.1-0.1-30.2-0.1-46.2c-22.5,0-44.5,0-66.6,0
		c0-0.5,0-1,0-1.5c22.6,0,45.2,0,68.3,0c0.1,1.4,0.4,2.8,0.4,4.2c0,15.3,0,30.5,0,45.8c0,2.5,0.2,4.8-3.6,4.8
		c-27.7-0.1-55.5-0.1-83.2-0.1C399.1,449.9,398.5,449.6,397.8,449.5z"/>
	<linearGradient id="XMLID_21_" gradientUnits="userSpaceOnUse" x1="140.4543" y1="351.1693" x2="233.6734" y2="351.1693">
		<stop  offset="0" style="stop-color:#29ABE2"/>
		<stop  offset="1" style="stop-color:#93278F"/>
	</linearGradient>
	<path id="XMLID_1619_" class="st19" d="M201,332.9c0.5,4.2,2.6,4.9,5.9,4.8c5.7-0.3,11.5-0.2,17.2-0.1c5.9,0.1,9.2,3.1,9.4,9
		c0.4,11.9,1.4,18.5-15.9,17.4c-3.3-0.2-6.6,0-9.8,0c-5.2,0-5.2,0-7.5,5.3c-0.2-5.7-3.5-5.4-7-5.4c-13.9,0.1-27.9,0.1-41.8,0.1
		c-8,0-10.9-2.9-11-10.9c-0.2-14.1,1.2-15.5,15.3-15.5c12.8,0,25.6-0.1,38.4,0C197.4,337.7,200.4,337.8,201,332.9z M173,362.1
		c7.5,0,15.1-0.1,22.6,0c2.9,0.1,4.2-0.9,4.1-3.9c-0.2-4.3-0.3-8.6,0.1-12.8c0.4-4.4-0.9-6-5.6-5.9c-13.4,0.3-26.9,0.1-40.4,0.1
		c-9.7,0-11.4,1.8-11.4,11.5c0,0.8,0,1.6,0,2.5c0.2,5.9,2.6,8.4,8.4,8.5C158.3,362.2,165.7,362.1,173,362.1z M214.8,362.1
		c1,0,2,0,3,0c12.9,0,14.1-1.2,13.7-14c0-0.2,0-0.3,0-0.5c-0.2-5.2-2.7-7.8-8-8c-4.1-0.1-8.2-0.1-12.3,0c-10.4,0.1-9.3-1.7-9.4,9.4
		C201.7,362.1,201.8,362.1,214.8,362.1z"/>
	<linearGradient id="XMLID_22_" gradientUnits="userSpaceOnUse" x1="412.6884" y1="507.0444" x2="483.8559" y2="507.0444">
		<stop  offset="0" style="stop-color:#29ABE2"/>
		<stop  offset="1" style="stop-color:#93278F"/>
	</linearGradient>
	<path id="XMLID_1616_" class="st20" d="M457.8,477.8c-8.9,4.2-9.8,5.5-8.5,13.1c8.2,0,16.5,0,24.8,0c9.2,0,9.7,0.6,9.7,9.8
		c0,9.5,0,19,0,28.6c0,6-1.3,7.3-7.3,7.3c-18.9,0-37.7,0-56.6,0c-5.9,0-7.2-1.3-7.2-7.3c0-10.2,0-20.4,0-30.5c0-6.3,1.4-8.1,7.7-8.2
		c7.2-0.2,14.4-0.1,21.5,0.3c3.1,0.2,4.3-0.4,4.6-3.8C447,480.1,451.1,476.6,457.8,477.8z M448.4,534.4
		C448.4,534.4,448.4,534.4,448.4,534.4c9,0,18-0.2,27,0.1c4.6,0.1,6.5-1.2,6.3-6.1c-0.3-9.7-0.1-19.3-0.1-29c0-6-0.3-6.3-6.5-6.2
		c-18.3,0.1-36.6,0.4-55,0.2c-4.4-0.1-5.4,1.6-5.4,5.3c0.1,10.2,0.1,20.3,0,30.5c-0.1,4.1,1.7,5.5,5.6,5.4
		C429.7,534.3,439,534.4,448.4,534.4z"/>
	<linearGradient id="XMLID_23_" gradientUnits="userSpaceOnUse" x1="379.3073" y1="515.3409" x2="408.8608" y2="515.3409">
		<stop  offset="0" style="stop-color:#29ABE2"/>
		<stop  offset="1" style="stop-color:#93278F"/>
	</linearGradient>
	<path id="XMLID_1613_" class="st21" d="M388.5,517.5c0.7-5.9-0.5-12.3-6.8-17.8c-4.4-3.8-2.2-16.3,2.8-19.5
		c0.7-0.4,3.3,0.7,3.8,1.7c0.7,1.5-0.2,3.9,0.6,5.2c1.2,2,3.1,4.3,5.1,4.8c3,0.7,5.2-1.4,5.5-4.8c0.1-0.8-0.1-1.7,0.1-2.5
		c0.4-1.8,1-3.5,1.5-5.2c1.4,1.3,3.2,2.3,4.3,3.9c4.9,7.4,4.9,14.2-2.5,20.3c-1.5,1.2-2.3,4-2.4,6.2c-0.3,6.1-0.2,12.1,0.2,18.2
		c0.1,1.9,1.6,3.7,2.8,5.4c3.2,4.5,3,10.5-0.8,14.5c-3.7,3.9-10,4.5-14.4,1.3c-4.3-3.1-5.8-9.3-3.3-14.1
		C388.7,527.8,388.7,527.8,388.5,517.5z M385.9,483.4c-5.4,5.5-5.6,12.3-0.5,17.1c3.5,3.4,5.5,7.1,5.2,12.1c-0.2,4.6,0,9.2,0.1,13.8
		c0.1,3.2-0.2,5.8-2.8,8.3c-3.4,3.4-2.7,8.6,0.8,11.9c3.3,3.1,8.2,3.2,11.6,0.3c3.6-3.1,4.7-8.6,1.3-11.8c-3.4-3.2-3.4-6.8-3.4-10.7
		c-0.1-4.3,0-8.5-0.2-12.8c-0.2-4.6,1.4-8.2,4.7-11.4c4.9-4.7,4.4-12.3-0.8-16.8c-0.8,8.7-3,11.7-8.2,11.6
		C388.8,494.9,386.7,491.9,385.9,483.4z"/>
	<linearGradient id="XMLID_24_" gradientUnits="userSpaceOnUse" x1="425.5681" y1="340.1171" x2="491.9836" y2="340.1171">
		<stop  offset="0" style="stop-color:#29ABE2"/>
		<stop  offset="1" style="stop-color:#93278F"/>
	</linearGradient>
	<path id="XMLID_1607_" class="st22" d="M458.7,370.8c-8,0-16.1,0-24.1,0c-8.1,0-11.2-4.9-7.4-11.9c8.2-15,16.4-29.9,24.8-44.7
		c3.7-6.5,10-6.4,13.7,0.1c8.3,14.7,16.4,29.5,24.6,44.3c4,7.2,1,12.1-7.4,12.1C474.8,370.9,466.7,370.8,458.7,370.8z M458.8,368.8
		c7.9,0,15.7,0.1,23.6,0c7-0.1,9-3.3,5.7-9.3c-8-14.5-16-29-24.1-43.4c-3.4-6.1-7.3-6.1-10.7,0.1c-8.1,14.4-16.1,28.9-24.1,43.4
		c-3.2,5.8-1.2,9.1,5.4,9.2C442.8,368.9,450.8,368.8,458.8,368.8z"/>
	<linearGradient id="XMLID_25_" gradientUnits="userSpaceOnUse" x1="321.3157" y1="438.0258" x2="378.3762" y2="438.0258">
		<stop  offset="0" style="stop-color:#29ABE2"/>
		<stop  offset="1" style="stop-color:#93278F"/>
	</linearGradient>
	<path id="XMLID_1604_" class="st23" d="M348.3,456.9c-11.2-0.3-19.2-8.3-26.6-17.3c-0.5-0.7-0.5-2.2-0.1-3.1
		c4.9-10.4,22.2-19.4,33.2-16.9c10,2.2,17,8.9,23.1,16.6c0.5,0.7,0.7,2.2,0.3,3C374.5,447.4,359.2,456.8,348.3,456.9z M376.3,438.2
		c-14.8-21.2-33.4-22.5-50.1-3.9c-0.2,0.2-0.4,0.5-0.6,0.7c-2.2,1.9-2,3.5-0.1,5.7c15.1,18,31,18.6,47.1,1.6
		C373.8,441.1,374.9,439.7,376.3,438.2z"/>
	<linearGradient id="XMLID_26_" gradientUnits="userSpaceOnUse" x1="209.3541" y1="241.3096" x2="241.7399" y2="241.3096">
		<stop  offset="0" style="stop-color:#29ABE2"/>
		<stop  offset="1" style="stop-color:#93278F"/>
	</linearGradient>
	<path id="XMLID_1601_" class="st24" d="M230.9,257.3c-2.1-3.2-4.2-6.4-6.7-10.3c-2.5,4.3-4.1,6.8-5.6,9.4c-0.4,0-0.8,0-1.3,0.1
		c-2.6-10-5.1-19.9-8-31.1c10.9,2.7,20.9,5.2,32.4,8.1c-3.8,2.4-6.4,4.1-9.2,5.9c0.6,0.8,1.1,1.5,1.6,2
		C241.4,249,241.4,249,230.9,257.3z M212.4,228.3c2.1,8.3,3.9,15.4,6,23.5c2-3.2,3.1-5,5.3-8.5c2.9,4,5.2,7.3,7.9,11
		c2.7-2.8,4.3-4.5,6-6.2c-3.1-3.3-5.8-6.2-8.7-9.3c2.5-1.6,4.4-2.8,7.1-4.5C227.7,232.2,220.7,230.4,212.4,228.3z"/>
	<linearGradient id="XMLID_27_" gradientUnits="userSpaceOnUse" x1="194.1175" y1="563.2919" x2="221.1981" y2="563.2919">
		<stop  offset="0" style="stop-color:#29ABE2"/>
		<stop  offset="1" style="stop-color:#93278F"/>
	</linearGradient>
	<path id="XMLID_1598_" class="st25" d="M221.2,551.7c0,6.3,0,11.8,0,17.9c-3.1,0-5.8-0.2-8.5,0.1c-1.2,0.1-2.3,1-3.5,1.6
		c1.1,0.7,2.1,1.4,3.2,2.1c0.4,0.3,0.7,0.6,1.9,1.6c-4.6,0-8.2,0-12,0c0.3-0.7,0.4-1.1,0.6-1.2c1.3-0.9,2.6-1.7,3.9-2.6
		c-1.5-0.5-3.1-1.2-4.6-1.5c-1.1-0.2-2.3-0.2-3.4,0c-3.5,0.4-4.4-1.1-4.5-4.5c-0.1-13.4-0.2-13.4,13.3-13.4
		C211.8,551.7,216.2,551.7,221.2,551.7z M196.4,554.2c0,3.7-0.2,7,0.1,10.2c0.1,1,1.8,2.7,2.9,2.7c5.6,0.3,11.2,0.3,16.7,0
		c1.1-0.1,3-1.6,3.1-2.6c0.4-3.3,0.1-6.8,0.1-10.4C211.6,554.2,204.4,554.2,196.4,554.2z"/>
	<linearGradient id="XMLID_28_" gradientUnits="userSpaceOnUse" x1="382.0192" y1="331.6658" x2="410.2019" y2="331.6658">
		<stop  offset="0" style="stop-color:#29ABE2"/>
		<stop  offset="1" style="stop-color:#93278F"/>
	</linearGradient>
	<path id="XMLID_1594_" class="st26" d="M382.1,315.1c9.6,0,18.6,0,27.9,0c0,7.4,0.8,14.7-0.2,21.8c-0.9,6.2-9.6,12-14.5,11.2
		c-6.8-1.1-13-8.2-13.1-15.2C382,327.1,382.1,321.2,382.1,315.1z M384,317.5c0,3.7,0,6.6,0,9.5c0,2.4-0.1,4.9,0.3,7.3
		c0.8,5.2,6.1,10.8,11,11.3c4.9,0.5,8.4-2.6,10.9-6.3c4.4-6.7,2.1-14.1,2.1-21.9C399.9,317.5,392.2,317.5,384,317.5z"/>
	<linearGradient id="XMLID_29_" gradientUnits="userSpaceOnUse" x1="87.9913" y1="330.1404" x2="111.7792" y2="330.1404">
		<stop  offset="0" style="stop-color:#29ABE2"/>
		<stop  offset="1" style="stop-color:#93278F"/>
	</linearGradient>
	<path id="XMLID_1591_" class="st27" d="M94.3,316.1c0.9-0.5,1.2-0.7,1.5-0.8c9.8-1.1,9.8-1.1,9.8,8.6c0,2.9,0,5.8,0,9
		c2.4,0.3,4.5,0.6,6.1,0.9c-4.2,4.1-8.4,8.2-12.1,11.7c-3.2-3.2-7.4-7.3-11.7-11.6c1.7-0.2,3.7-0.4,6.3-0.7
		C94.3,327.3,94.3,321.5,94.3,316.1z M96.5,317.7c0,4-0.1,7.7,0,11.5c0.2,3.4,0.3,6.7-4.1,7.2c2.5,2.8,4.8,5.3,7,7.9
		c2.9-2.8,5.5-5.3,8.4-8.2c-1.8-0.4-3-0.7-4.7-1.1c0-5.7,0-11.4,0-17.3C100.9,317.7,99,317.7,96.5,317.7z"/>
	<linearGradient id="XMLID_30_" gradientUnits="userSpaceOnUse" x1="80.28" y1="355.6496" x2="119.9381" y2="355.6496">
		<stop  offset="0" style="stop-color:#29ABE2"/>
		<stop  offset="1" style="stop-color:#93278F"/>
	</linearGradient>
	<path id="XMLID_1588_" class="st28" d="M119.1,350.4c1.7,10.4,1.7,10.4-7.7,10.4c-8.4,0-16.7,0-25.1,0c-6.2,0-6.2,0-6-6.3
		c0-1.1,0.2-2.3,0.4-4.2c6.4,0,12.7,0,19,0C106.1,350.4,112.5,350.4,119.1,350.4z M83,358.3c11.5,0,22.7,0,33.8,0
		c1.4-4.3,0.2-6-4.2-5.9c-8.5,0.2-17,0.2-25.5,0C82.9,352.3,81.6,353.9,83,358.3z"/>
	<linearGradient id="XMLID_31_" gradientUnits="userSpaceOnUse" x1="443.3615" y1="557.5432" x2="466.3342" y2="557.5432">
		<stop  offset="0" style="stop-color:#29ABE2"/>
		<stop  offset="1" style="stop-color:#93278F"/>
	</linearGradient>
	<path id="XMLID_1584_" class="st29" d="M459.7,558.2c2.3,4.1,4.1,7.4,6.6,11.9c-8.6,0-15.5,0-22.7,0c-1.3-5,2-7.8,5.1-10.6
		c-2.9-7-2.7-10.6,0.9-13c3.2-2.1,6.5-2,9.5,0.5C462.5,549.8,462.5,553.7,459.7,558.2z M445.6,568.4c5,0,9.4,0,13.8,0
		c0.9,0,1.9-0.3,3.2-0.5c-1.2-4.6-3.9-7-8.4-7.1C449.8,560.8,446.9,562.9,445.6,568.4z M454.2,560.3c2.5-3.4,4.8-5.3,5.2-7.5
		c0.5-3.2-1.9-5.6-5.4-5.5c-3.4,0.1-5.8,2.4-5.1,5.7C449.4,555.2,451.7,557,454.2,560.3z"/>
	<linearGradient id="XMLID_32_" gradientUnits="userSpaceOnUse" x1="323.2624" y1="479.7615" x2="353.8036" y2="479.7615">
		<stop  offset="0" style="stop-color:#29ABE2"/>
		<stop  offset="1" style="stop-color:#93278F"/>
	</linearGradient>
	<path id="XMLID_1581_" class="st30" d="M353.8,479.7c0.1,8.4-5.8,15.3-13.1,15.6c-9.4,0.3-17.4-6.3-17.4-14.3
		c0-8.9,7.4-16.8,15.7-16.8C347.6,464.3,353.7,470.6,353.8,479.7z M338.2,492.9c8.7-0.3,14.4-5.8,14.1-13.6
		c-0.3-6.8-6.7-12.7-13.7-12.5c-7.1,0.2-13.2,6.1-13.1,12.6C325.6,486.9,331.5,493.2,338.2,492.9z"/>
	<linearGradient id="XMLID_33_" gradientUnits="userSpaceOnUse" x1="355.1136" y1="525.8963" x2="379.7907" y2="525.8963">
		<stop  offset="0" style="stop-color:#29ABE2"/>
		<stop  offset="1" style="stop-color:#93278F"/>
	</linearGradient>
	<path id="XMLID_1578_" class="st31" d="M376.8,522.6c0.1,0.3,0.8,1.8,1.9,3.1c2,2.6,1.2,4.2-1.2,5.9c-1.7,1.2-2.7,3.4-4.5,4.5
		c-1.6,1-3.7,1.5-5.6,1.5c-2,0-4.1-0.6-6-1.4c-1.5-0.6-3.9-2.7-3.9-2.8c3-4.4-6.4-8.4-0.4-12.8c1.4-1,2.8-2.3,3.7-3.8
		c1.6-2.7,3.4-3.6,6.3-1.9c1.3,0.8,3,1.6,4.3,1.3C375.8,515.3,377.1,517.1,376.8,522.6z M358.1,524c0.8,3,1.7,6.2,2.4,9
		c3.2,0.9,6.4,1.7,9.7,2.6c-0.8-0.7-1.5-1.3-2.3-2c2.6-2.2,5.2-4.4,7.8-6.6c0.3,0.5,0.6,1.1,0.8,1.6c-1-3.3-2-6.6-2.8-9.4
		c-3.4-0.7-6.7-1.5-9.3-2.1C362.2,519.6,360.2,521.8,358.1,524z"/>
	<linearGradient id="XMLID_34_" gradientUnits="userSpaceOnUse" x1="358.1745" y1="326.5876" x2="371.0704" y2="326.5876">
		<stop  offset="0" style="stop-color:#29ABE2"/>
		<stop  offset="1" style="stop-color:#93278F"/>
	</linearGradient>
	<path id="XMLID_1575_" class="st32" d="M363.5,312.2c-1.9-0.5-3.2-0.9-5.2-1.4c2.5-1.5,4.6-2.6,7-4c0.1,2,0.4,4,0.4,6
		c0.1,5.2,0.1,10.5,0,15.7c-0.1,2.9,0.2,5.1,3,7.1c3.1,2.2,2.9,6.5,0.4,9.1c-2.4,2.5-6.9,2.4-9.3-0.1c-2.4-2.6-2.4-7.1,0.6-9.1
		c2.7-1.8,3.2-3.9,2.9-6.6c-0.5-4.5-1.3-9-1.7-13.6C361.7,314.4,362.7,313.5,363.5,312.2z M370.6,340.2c-2.7-2-4.5-4.1-5.8-3.9
		c-1.7,0.3-3,2.6-4.5,4c1.4,1.4,2.7,3.8,4.1,3.9C366.1,344.2,367.7,342.1,370.6,340.2z"/>
	<linearGradient id="XMLID_35_" gradientUnits="userSpaceOnUse" x1="277.6745" y1="624.4901" x2="301.1491" y2="624.4901">
		<stop  offset="0" style="stop-color:#29ABE2"/>
		<stop  offset="1" style="stop-color:#93278F"/>
	</linearGradient>
	<path id="XMLID_1572_" class="st33" d="M277.7,623.9c0.3-6.5,6-11.6,12.5-11.1c6.6,0.5,11.3,6,10.9,12.7c-0.4,6.4-5.6,11-12.2,10.8
		C282.2,636,277.4,630.6,277.7,623.9z M299.1,624.4c-0.1-5.2-4.8-9.6-10-9.4c-5,0.2-9.4,4.6-9.4,9.6c0,5.2,4.6,9.7,9.8,9.7
		C294.7,634.2,299.2,629.5,299.1,624.4z"/>
	<linearGradient id="XMLID_36_" gradientUnits="userSpaceOnUse" x1="175.4785" y1="247.4072" x2="193.8721" y2="247.4072">
		<stop  offset="0" style="stop-color:#29ABE2"/>
		<stop  offset="1" style="stop-color:#93278F"/>
	</linearGradient>
	<path id="XMLID_1569_" class="st34" d="M184.5,256.6c-5-0.1-9-4.2-9.1-9.1c0-5.1,4.4-9.4,9.5-9.3c5.2,0.1,9.1,4.4,8.9,9.7
		C193.7,253,189.6,256.7,184.5,256.6z M191.8,247.4c-0.1-3.8-3.5-7-7.4-6.8c-3.8,0.2-6.7,3.2-6.6,7c0.1,3.9,3.4,7.1,7.3,6.9
		C188.8,254.3,191.9,251,191.8,247.4z"/>
	<linearGradient id="XMLID_37_" gradientUnits="userSpaceOnUse" x1="225.5625" y1="453.4233" x2="247.1177" y2="453.4233">
		<stop  offset="0" style="stop-color:#29ABE2"/>
		<stop  offset="1" style="stop-color:#93278F"/>
	</linearGradient>
	<path id="XMLID_1568_" class="st35" d="M225.6,445.1c5.3-1.9,9.7-1.9,12.5,3.8c1.5,3,3.2,6.3,7.4,7.2c0.9,0.2,2.1,3.3,1.6,4.3
		c-0.7,1.3-3,2.7-4.4,2.5c-1.3-0.2-2.7-2.3-3.4-3.8c-1.1-2.4-1.3-5.1-2.3-7.6C234.9,446.6,231,444.7,225.6,445.1z"/>
	<linearGradient id="XMLID_38_" gradientUnits="userSpaceOnUse" x1="170.7254" y1="453.5039" x2="191.6439" y2="453.5039">
		<stop  offset="0" style="stop-color:#29ABE2"/>
		<stop  offset="1" style="stop-color:#93278F"/>
	</linearGradient>
	<path id="XMLID_1567_" class="st36" d="M191.6,445.1c-6.8-1.3-9.6,3.2-12.1,7.9c-0.8,1.6-0.7,3.6-1.4,5.3c-0.7,1.7-1.7,3.9-3.1,4.6
		c-0.8,0.4-3.8-1.4-4.2-2.7c-0.4-1.2,1.1-3.3,2.2-4.6c2.2-2.7,5.4-4.7,7-7.6C182.9,442.8,187,443.5,191.6,445.1z"/>
	<linearGradient id="XMLID_39_" gradientUnits="userSpaceOnUse" x1="170.8575" y1="419.904" x2="187.4564" y2="419.904">
		<stop  offset="0" style="stop-color:#29ABE2"/>
		<stop  offset="1" style="stop-color:#93278F"/>
	</linearGradient>
	<path id="XMLID_1566_" class="st37" d="M187.1,429.6c-1.8-0.7-4-0.9-5.2-2.1c-3.4-3.5-4.8-8.8-10.1-10.8c-0.8-0.3-1.2-3.3-0.7-4.6
		c0.4-1,3-2.3,3.8-1.9c1.4,0.7,3,2.6,3.1,4.1c0.5,5.9,4.4,11.9,9.4,13.7C187.3,428.5,187.2,429.1,187.1,429.6z"/>
	<linearGradient id="XMLID_40_" gradientUnits="userSpaceOnUse" x1="230.1362" y1="419.9926" x2="246.9455" y2="419.9926">
		<stop  offset="0" style="stop-color:#29ABE2"/>
		<stop  offset="1" style="stop-color:#93278F"/>
	</linearGradient>
	<path id="XMLID_1565_" class="st38" d="M230.1,428.3c5.1-3.3,9.5-7.1,9.5-14.2c0-1.4,1.9-3.3,3.4-3.9c0.9-0.4,3.4,1,3.7,2.1
		c0.5,1.3-0.2,4.4-0.9,4.6c-5.4,1.5-6.7,6.7-10,10.2c-1.3,1.4-3.5,1.9-5.4,2.8C230.4,429.3,230.3,428.8,230.1,428.3z"/>
	<linearGradient id="XMLID_41_" gradientUnits="userSpaceOnUse" x1="225.6861" y1="436.7929" x2="246.8658" y2="436.7929">
		<stop  offset="0" style="stop-color:#29ABE2"/>
		<stop  offset="1" style="stop-color:#93278F"/>
	</linearGradient>
	<path id="XMLID_1564_" class="st39" d="M225.7,439.6c0-2,0-4,0-6.3c4.1,3,10.7,3,15.1,0.8c1.5-0.7,4.2-0.6,5.5,0.3
		c0.8,0.5,0.8,4.3-0.1,4.9c-1.3,0.9-4.2,1.1-5.5,0.2C235.6,436.5,230.9,437.4,225.7,439.6z"/>
	<linearGradient id="XMLID_42_" gradientUnits="userSpaceOnUse" x1="421.8986" y1="422.4276" x2="438.0594" y2="422.4276">
		<stop  offset="0" style="stop-color:#29ABE2"/>
		<stop  offset="1" style="stop-color:#93278F"/>
	</linearGradient>
	<path id="XMLID_1563_" class="st40" d="M421.9,431c3.8-2.7,7.6-5.4,11.9-8.5c-4.2-3.2-8.1-6.1-12-8.9c0.4-0.5,0.8-1,1.1-1.5
		c4.7,3.2,9.3,6.5,15,10.4c-5.5,3.8-10.3,7.1-15.1,10.4C422.6,432.2,422.3,431.6,421.9,431z"/>
	<linearGradient id="XMLID_43_" gradientUnits="userSpaceOnUse" x1="170.6816" y1="436.7587" x2="191.4522" y2="436.7587">
		<stop  offset="0" style="stop-color:#29ABE2"/>
		<stop  offset="1" style="stop-color:#93278F"/>
	</linearGradient>
	<path id="XMLID_1562_" class="st41" d="M191.5,437.5c-2.1,0.1-4.3,0-6.4,0.4c-2.9,0.6-5.6,1.7-8.5,2.2c-1.6,0.3-3.7,0.3-4.8-0.5
		c-0.9-0.6-1.4-3.1-0.9-4.2c0.5-1.1,2.6-2.4,3.8-2.2c5.6,1,11.1,2.4,16.6,3.7C191.3,437.1,191.4,437.3,191.5,437.5z"/>
	<linearGradient id="XMLID_44_" gradientUnits="userSpaceOnUse" x1="91.8058" y1="559.0258" x2="103.5943" y2="559.0258">
		<stop  offset="0" style="stop-color:#29ABE2"/>
		<stop  offset="1" style="stop-color:#93278F"/>
	</linearGradient>
	<path id="XMLID_1559_" class="st42" d="M103.6,560.3c-2.2,1.5-4.4,4.1-6.5,4c-1.9-0.1-4.7-3-5.2-5.1c-0.7-3.2,1.9-6,5.2-5.5
		c2.3,0.3,4.3,2.7,6.5,4.2C103.6,558.7,103.6,559.5,103.6,560.3z M97,554.7c-1.4,2-2.9,3.3-2.8,4.4c0.1,1.2,1.9,2.1,2.9,3.2
		c1.1-1.2,2.8-2.2,3.1-3.5C100.4,557.9,98.5,556.6,97,554.7z"/>
	<linearGradient id="XMLID_45_" gradientUnits="userSpaceOnUse" x1="355.8253" y1="567.9206" x2="366.6048" y2="567.9206">
		<stop  offset="0" style="stop-color:#29ABE2"/>
		<stop  offset="1" style="stop-color:#93278F"/>
	</linearGradient>
	<path id="XMLID_1556_" class="st43" d="M360,573.7c-1.4-2.1-3.8-4.2-4.1-6.4c-0.4-3.3,2.1-5.3,5.6-5.2c3.4,0.1,5.5,2.4,5.1,5.3
		c-0.3,2.3-2.7,4.3-4.2,6.4C361.6,573.7,360.8,573.7,360,573.7z M365.7,567.5c-2-1.5-3.3-3.1-4.6-3.1c-1,0-3.1,2.1-2.9,2.8
		c0.3,1.3,1.8,3,3.1,3.4C362.2,570.8,363.6,569.1,365.7,567.5z"/>
	<linearGradient id="XMLID_46_" gradientUnits="userSpaceOnUse" x1="66.4153" y1="374.016" x2="78.161" y2="374.016">
		<stop  offset="0" style="stop-color:#29ABE2"/>
		<stop  offset="1" style="stop-color:#93278F"/>
	</linearGradient>
	<path id="XMLID_1553_" class="st44" d="M78.2,375.3c-2.2,1.4-4.4,4.1-6.4,3.9c-1.9-0.1-4.7-2.9-5.2-5c-0.7-3.2,1.8-6,5.1-5.5
		c2.3,0.3,4.3,2.7,6.5,4.1C78.2,373.7,78.2,374.5,78.2,375.3z M76.1,373.8c-1.9-1.3-3.3-3-4.2-2.8c-1.3,0.3-2.2,2.1-3.3,3.3
		c1.2,1,2.4,2.6,3.7,2.8C73.2,377.2,74.4,375.4,76.1,373.8z"/>
	<linearGradient id="XMLID_47_" gradientUnits="userSpaceOnUse" x1="438.7186" y1="585.3755" x2="449.6391" y2="585.3755">
		<stop  offset="0" style="stop-color:#29ABE2"/>
		<stop  offset="1" style="stop-color:#93278F"/>
	</linearGradient>
	<path id="XMLID_1550_" class="st45" d="M444.4,590.8c-3.8-0.1-5.7-2.1-5.7-5.5c0-3.1,1.8-5.2,5.2-5.3c3.5-0.1,5.6,1.8,5.7,5.2
		C449.8,588.6,447.7,590.5,444.4,590.8z M448.7,585.4c-2.1-1.6-3.4-3.3-4.3-3.1c-1.3,0.3-2.9,1.9-3.2,3.2c-0.2,0.7,1.8,2.9,2.9,2.9
		C445.3,588.5,446.6,586.9,448.7,585.4z"/>
	<linearGradient id="XMLID_48_" gradientUnits="userSpaceOnUse" x1="225.3353" y1="381.0885" x2="236.1787" y2="381.0885">
		<stop  offset="0" style="stop-color:#29ABE2"/>
		<stop  offset="1" style="stop-color:#93278F"/>
	</linearGradient>
	<path id="XMLID_1547_" class="st46" d="M225.3,381c0.4-3.7,2.5-5.6,5.8-5.4c3.1,0.2,5.1,2.1,5,5.4c-0.1,3.5-2.1,5.5-5.5,5.4
		C227.2,386.4,225.5,384.3,225.3,381z M230.9,385.7c1.4-2.1,3-3.4,3-4.7c0-1.1-2.2-3.1-2.9-2.9c-1.4,0.4-3,1.9-3.3,3.3
		C227.5,382.2,229.3,383.6,230.9,385.7z"/>
	<linearGradient id="XMLID_49_" gradientUnits="userSpaceOnUse" x1="488.039" y1="487.1399" x2="498.8162" y2="487.1399">
		<stop  offset="0" style="stop-color:#29ABE2"/>
		<stop  offset="1" style="stop-color:#93278F"/>
	</linearGradient>
	<path id="XMLID_1544_" class="st47" d="M492,492.9c-1.4-2.2-3.7-4.2-3.9-6.5c-0.3-3.3,2.2-5.3,5.7-5.1c3.3,0.2,5.5,2.4,4.9,5.4
		c-0.4,2.3-2.8,4.2-4.3,6.3C493.6,493,492.8,492.9,492,492.9z M497.9,486.3c-2.2-1.3-3.6-2.8-4.9-2.7c-1,0.1-2.9,2.4-2.7,3.1
		c0.4,1.3,2.1,2.8,3.4,3C494.7,489.9,495.9,488,497.9,486.3z"/>
	<linearGradient id="XMLID_50_" gradientUnits="userSpaceOnUse" x1="108.7947" y1="297.3353" x2="119.5447" y2="297.3353">
		<stop  offset="0" style="stop-color:#29ABE2"/>
		<stop  offset="1" style="stop-color:#93278F"/>
	</linearGradient>
	<path id="XMLID_1541_" class="st48" d="M115.9,291.9c0.9,1.4,3.2,3.4,3.5,5.7c0.4,3.4-2.2,5.3-5.6,5.2c-3.2-0.1-5.1-2.2-5.1-5.3
		C108.8,294,110.7,292.1,115.9,291.9z M109.3,297.1c2.4,1.7,3.7,3.3,5,3.3c1,0,2.9-1.8,2.9-2.9c0-1.1-1.6-3.1-2.6-3.2
		C113.3,294.2,111.8,295.6,109.3,297.1z"/>
	<linearGradient id="XMLID_51_" gradientUnits="userSpaceOnUse" x1="360.5076" y1="239.5002" x2="371.2534" y2="239.5002">
		<stop  offset="0" style="stop-color:#29ABE2"/>
		<stop  offset="1" style="stop-color:#93278F"/>
	</linearGradient>
	<path id="XMLID_1538_" class="st49" d="M367.3,245.1c-4.9-0.7-7-2.5-6.8-6.1c0.2-3.3,2.3-5.1,5.5-5c3.6,0.1,5.8,2.3,5.1,5.7
		C370.7,241.8,368.4,243.6,367.3,245.1z M366.1,243.6c1.4-1.9,3.2-3.3,2.9-4.2c-0.3-1.3-2.1-2.3-3.3-3.4c-1,1.2-2.7,2.4-2.9,3.7
		C362.8,240.6,364.6,241.9,366.1,243.6z"/>
	<linearGradient id="XMLID_52_" gradientUnits="userSpaceOnUse" x1="165.2213" y1="633.5784" x2="175.9361" y2="633.5784">
		<stop  offset="0" style="stop-color:#29ABE2"/>
		<stop  offset="1" style="stop-color:#93278F"/>
	</linearGradient>
	<path id="XMLID_1535_" class="st50" d="M165.2,631.1c1.4-0.8,3.6-2.7,5.8-2.8c3.5-0.2,5.2,2.5,4.9,5.9c-0.4,3.3-2.6,4.9-5.8,4.7
		C166.5,638.6,165,636.2,165.2,631.1z M175.1,633c-2.3-1.3-3.7-2.7-5-2.6c-1.1,0.1-1.9,2.1-2.9,3.3c1.2,1,2.4,2.7,3.8,2.8
		C171.9,636.6,173.1,634.8,175.1,633z"/>
	<linearGradient id="XMLID_53_" gradientUnits="userSpaceOnUse" x1="271.8796" y1="218.2481" x2="282.5848" y2="218.2481">
		<stop  offset="0" style="stop-color:#29ABE2"/>
		<stop  offset="1" style="stop-color:#93278F"/>
	</linearGradient>
	<path id="XMLID_1532_" class="st51" d="M276.1,224.1c-1.5-2-3.8-3.8-4.2-6c-0.6-3.4,1.7-5.6,5.2-5.6c3.5,0,5.9,2.2,5.3,5.6
		c-0.4,2.2-2.7,4.1-4.1,6.1C277.7,224.1,276.9,224.1,276.1,224.1z M282.1,218.1c-2.3-1.7-3.6-3.4-4.9-3.4c-1,0-2.9,1.8-3,2.9
		c-0.1,1.1,1.6,3.1,2.6,3.2C278.1,221,279.6,219.5,282.1,218.1z"/>
	<linearGradient id="XMLID_54_" gradientUnits="userSpaceOnUse" x1="371.2464" y1="636.4533" x2="381.9685" y2="636.4533">
		<stop  offset="0" style="stop-color:#29ABE2"/>
		<stop  offset="1" style="stop-color:#93278F"/>
	</linearGradient>
	<path id="XMLID_1529_" class="st52" d="M375.2,631c5.1,0.6,6.9,2.6,6.7,6.1c-0.2,3.3-2.3,5-5.6,4.9c-3.6-0.1-5.8-2.4-5-5.8
		C371.9,634,374.2,632.3,375.2,631z M376.3,641.5c1.7-2.3,3.4-3.6,3.5-4.9c0.1-1-1.8-2.9-2.9-3c-1.1-0.1-3.2,1.6-3.3,2.6
		C373.4,637.5,374.9,639,376.3,641.5z"/>
	<linearGradient id="XMLID_55_" gradientUnits="userSpaceOnUse" x1="439.9293" y1="433.0376" x2="458.3209" y2="433.0376">
		<stop  offset="0" style="stop-color:#29ABE2"/>
		<stop  offset="1" style="stop-color:#93278F"/>
	</linearGradient>
	<path id="XMLID_1528_" class="st53" d="M458.3,433.6c-6.1,0-12.2,0-18.4,0c0-0.3,0-0.7,0-1c6.1,0,12.3,0,18.4,0
		C458.3,432.9,458.3,433.2,458.3,433.6z"/>
	<linearGradient id="XMLID_56_" gradientUnits="userSpaceOnUse" x1="161.6824" y1="250.9328" x2="167.7876" y2="250.9328">
		<stop  offset="0" style="stop-color:#29ABE2"/>
		<stop  offset="1" style="stop-color:#93278F"/>
	</linearGradient>
	<path id="XMLID_1527_" class="st54" d="M167.8,250.7c-1.5,1.3-2.5,2.8-3.2,2.7c-1.1-0.2-2.4-1.3-2.9-2.3c-0.2-0.5,1.3-2.5,2-2.5
		C164.8,248.5,166,249.6,167.8,250.7z"/>
	<linearGradient id="XMLID_57_" gradientUnits="userSpaceOnUse" x1="330.3396" y1="406.0369" x2="335.1673" y2="406.0369">
		<stop  offset="0" style="stop-color:#29ABE2"/>
		<stop  offset="1" style="stop-color:#93278F"/>
	</linearGradient>
	<path id="XMLID_1526_" class="st55" d="M333.1,403c1,1.9,2.1,3,2,4.1c-0.1,0.8-2.1,2.2-2.6,2c-1-0.5-2.1-1.8-2.3-2.9
		C330.3,405.4,331.8,404.5,333.1,403z"/>
	<linearGradient id="XMLID_58_" gradientUnits="userSpaceOnUse" x1="151.0771" y1="623.9811" x2="155.9706" y2="623.9811">
		<stop  offset="0" style="stop-color:#29ABE2"/>
		<stop  offset="1" style="stop-color:#93278F"/>
	</linearGradient>
	<path id="XMLID_1525_" class="st56" d="M153.7,620.9c1.1,1.7,2.5,2.9,2.2,3.5c-0.4,1.1-1.8,1.7-2.8,2.5c-0.7-0.9-2-1.8-2-2.8
		C151.1,623.4,152.4,622.5,153.7,620.9z"/>
	<linearGradient id="XMLID_59_" gradientUnits="userSpaceOnUse" x1="238.7355" y1="563.5175" x2="243.6165" y2="563.5175">
		<stop  offset="0" style="stop-color:#29ABE2"/>
		<stop  offset="1" style="stop-color:#93278F"/>
	</linearGradient>
	<path id="XMLID_1524_" class="st57" d="M241.5,566.6c-1.3-1.5-2.9-2.5-2.7-3.2c0.2-1.1,1.6-2,2.5-2.9c0.8,0.8,2.3,1.6,2.4,2.5
		C243.7,563.9,242.5,564.9,241.5,566.6z"/>
	<linearGradient id="XMLID_60_" gradientUnits="userSpaceOnUse" x1="259.2196" y1="663.1371" x2="265.6349" y2="663.1371">
		<stop  offset="0" style="stop-color:#29ABE2"/>
		<stop  offset="1" style="stop-color:#93278F"/>
	</linearGradient>
	<path id="XMLID_1523_" class="st58" d="M265.6,662.8c-1.6,1.4-2.6,2.8-3.4,2.7c-1.1-0.2-2-1.5-3-2.3c0.8-0.8,1.6-2.2,2.5-2.3
		C262.7,660.7,263.8,661.8,265.6,662.8z"/>
	<linearGradient id="XMLID_61_" gradientUnits="userSpaceOnUse" x1="489.1637" y1="505.7384" x2="493.9711" y2="505.7384">
		<stop  offset="0" style="stop-color:#29ABE2"/>
		<stop  offset="1" style="stop-color:#93278F"/>
	</linearGradient>
	<path id="XMLID_1522_" class="st59" d="M491.8,508.9c-1.3-1.6-2.8-2.7-2.6-3.4c0.3-1.1,1.6-1.9,2.5-2.9c0.8,0.9,2.1,1.7,2.2,2.6
		C494.1,506.1,492.9,507.2,491.8,508.9z"/>
	<linearGradient id="XMLID_62_" gradientUnits="userSpaceOnUse" x1="446.4846" y1="296.6096" x2="452.839" y2="296.6096">
		<stop  offset="0" style="stop-color:#29ABE2"/>
		<stop  offset="1" style="stop-color:#93278F"/>
	</linearGradient>
	<path id="XMLID_1521_" class="st60" d="M452.8,296.6c-1.7,1.2-2.8,2.5-3.6,2.3c-1.1-0.3-1.9-1.6-2.8-2.5c0.9-0.7,1.8-2,2.7-2.1
		C450.1,294.2,451.1,295.4,452.8,296.6z"/>
	<linearGradient id="XMLID_63_" gradientUnits="userSpaceOnUse" x1="469.2161" y1="552.7348" x2="475.4796" y2="552.7348">
		<stop  offset="0" style="stop-color:#29ABE2"/>
		<stop  offset="1" style="stop-color:#93278F"/>
	</linearGradient>
	<path id="XMLID_1520_" class="st61" d="M475.5,553c-1.8,1-3.1,2.2-3.8,2c-1-0.4-1.7-1.8-2.5-2.8c1-0.7,1.9-1.8,2.9-1.8
		C473,550.4,473.9,551.7,475.5,553z"/>
	<linearGradient id="XMLID_64_" gradientUnits="userSpaceOnUse" x1="350.8802" y1="261.207" x2="355.6562" y2="261.207">
		<stop  offset="0" style="stop-color:#29ABE2"/>
		<stop  offset="1" style="stop-color:#93278F"/>
	</linearGradient>
	<path id="XMLID_1519_" class="st62" d="M352.9,258.2c1.4,1.5,2.9,2.4,2.8,3.2c-0.1,1.1-1.2,2.4-2.3,2.9c-0.5,0.2-2.5-1.2-2.5-2
		C350.8,261.2,351.9,260,352.9,258.2z"/>
	<linearGradient id="XMLID_65_" gradientUnits="userSpaceOnUse" x1="119.4396" y1="321.1585" x2="124.394" y2="321.1585">
		<stop  offset="0" style="stop-color:#29ABE2"/>
		<stop  offset="1" style="stop-color:#93278F"/>
	</linearGradient>
	<path id="XMLID_1518_" class="st63" d="M121.9,318.1c1.2,1.5,2.7,2.5,2.5,3.2c-0.2,1.1-1.6,2-2.4,3c-0.9-1-2.2-1.8-2.5-2.9
		C119.3,320.7,120.7,319.6,121.9,318.1z"/>
	<linearGradient id="XMLID_66_" gradientUnits="userSpaceOnUse" x1="106.2761" y1="580.8419" x2="112.298" y2="580.8419">
		<stop  offset="0" style="stop-color:#29ABE2"/>
		<stop  offset="1" style="stop-color:#93278F"/>
	</linearGradient>
	<path id="XMLID_1517_" class="st64" d="M112.3,580.7c-1.5,1.3-2.4,2.6-3.3,2.6c-0.9,0-1.8-1.3-2.8-2c0.8-1,1.5-2.4,2.6-2.8
		C109.4,578.2,110.7,579.6,112.3,580.7z"/>
	<linearGradient id="XMLID_67_" gradientUnits="userSpaceOnUse" x1="498.9375" y1="436.3361" x2="505.125" y2="436.3361">
		<stop  offset="0" style="stop-color:#29ABE2"/>
		<stop  offset="1" style="stop-color:#93278F"/>
	</linearGradient>
	<path id="XMLID_1516_" class="st65" d="M505.1,436.1c-1.6,1.3-2.6,2.8-3.3,2.6c-1.1-0.2-1.9-1.6-2.9-2.4c0.8-0.8,1.6-2.2,2.5-2.3
		C502.3,433.8,503.4,435,505.1,436.1z"/>
	<linearGradient id="XMLID_68_" gradientUnits="userSpaceOnUse" x1="144.0099" y1="484.9775" x2="150.6694" y2="484.9775">
		<stop  offset="0" style="stop-color:#29ABE2"/>
		<stop  offset="1" style="stop-color:#93278F"/>
	</linearGradient>
	<path id="XMLID_1515_" class="st66" d="M150.7,485.3c-2,1-3.1,2-4.1,1.9c-0.9-0.1-1.7-1.4-2.6-2.2c1-0.8,1.9-2.1,3-2.2
		C147.8,482.6,148.8,484,150.7,485.3z"/>
	<linearGradient id="XMLID_69_" gradientUnits="userSpaceOnUse" x1="65.7557" y1="499.2246" x2="71.6493" y2="499.2246">
		<stop  offset="0" style="stop-color:#29ABE2"/>
		<stop  offset="1" style="stop-color:#93278F"/>
	</linearGradient>
	<path id="XMLID_1514_" class="st67" d="M71.6,499.4c-1.7,1.1-2.7,2.4-3.5,2.3c-0.9-0.1-2.5-1.7-2.3-2.2c0.3-1.1,1.5-2.3,2.5-2.6
		C68.9,496.6,70.1,498.1,71.6,499.4z"/>
	<linearGradient id="XMLID_70_" gradientUnits="userSpaceOnUse" x1="273.4336" y1="273.278" x2="292.7099" y2="273.278">
		<stop  offset="0" style="stop-color:#29ABE2"/>
		<stop  offset="1" style="stop-color:#93278F"/>
	</linearGradient>
	<path id="XMLID_1353_" class="st68" d="M284,258.5c2.9,9.5,5.8,19,8.7,28.5c-0.4,0.3-0.9,0.7-1.3,1c-1.5-4.2-2.8-7.5-8.4-7.5
		c-5.5,0-6.7,3.1-8.1,7.1c-0.5-0.3-1-0.5-1.5-0.8c2.9-9.5,5.9-18.9,8.8-28.4C282.8,258.5,283.4,258.5,284,258.5z M278,278.7
		c3.7,0,6.5,0,10.1,0c-1.6-5.3-3-10-4.4-14.7c-0.4,0-0.8,0.1-1.2,0.1C281.1,268.7,279.7,273.3,278,278.7z"/>
	<linearGradient id="XMLID_71_" gradientUnits="userSpaceOnUse" x1="297.1503" y1="272.9287" x2="313.0058" y2="272.9287">
		<stop  offset="0" style="stop-color:#29ABE2"/>
		<stop  offset="1" style="stop-color:#93278F"/>
	</linearGradient>
	<path id="XMLID_1350_" class="st69" d="M297.2,287.2c0-9.2,0-18.4,0-27.6c8.5-2.4,14.3-0.7,15.4,4.6c0.8,3.7,1.1,8-2.9,10
		c-3.1,1.5-6.8,1.6-11,2.4c0,3.4,0,7,0,10.7C298.1,287.3,297.6,287.2,297.2,287.2z M299.1,275.2c4.3-1.6,8.2-2.1,10.6-4.3
		c1.3-1.3,1.1-6.6-0.3-7.8c-2.4-2-6.4-2.3-10.3-3.4C299.1,265.2,299.1,269.2,299.1,275.2z"/>
	<linearGradient id="XMLID_72_" gradientUnits="userSpaceOnUse" x1="317.9096" y1="273.2937" x2="319.0277" y2="273.2937">
		<stop  offset="0" style="stop-color:#29ABE2"/>
		<stop  offset="1" style="stop-color:#93278F"/>
	</linearGradient>
	<path id="XMLID_1349_" class="st70" d="M319,259.2c0,9.4,0,18.8,0,28.2c-0.4,0-0.7,0-1.1,0c0-9.4,0-18.8,0-28.3
		C318.3,259.2,318.7,259.2,319,259.2z"/>
	<linearGradient id="XMLID_73_" gradientUnits="userSpaceOnUse" x1="280.4706" y1="539.8537" x2="323.6386" y2="539.8537">
		<stop  offset="0" style="stop-color:#29ABE2"/>
		<stop  offset="1" style="stop-color:#93278F"/>
	</linearGradient>
	<path id="XMLID_1346_" class="st71" d="M319.4,552.8c-2.1,2.6-3.7,5.9-8.1,2.7c-2.4-1.7-4.6-0.2-5,2.6c-0.4,2.6-1.6,3.5-4.2,3.5
		c-2.6,0-3.8-1-4.4-3.5c-0.8-3.5-3.1-4.1-5.9-2.1c-2.3,1.7-4.2,1.1-5.3-1c-0.7-1.4-1.1-3.6-0.5-4.9c1.6-3.4,0.8-5-2.7-6.2
		c-1.3-0.4-2.8-2.6-2.8-4c0-1.4,1.5-3.4,2.9-3.9c3.4-1.3,4.6-3.1,2.4-6.2c-1.6-2.3-1.1-4.2,1-5.3c1.4-0.7,3.6-1.1,5-0.4
		c3.5,1.7,5,0.8,6.2-2.7c0.5-1.3,2.5-2.9,3.9-2.9c1.4,0,3.5,1.4,4,2.7c1.4,3.6,2.9,4.7,6.6,2.7c1.2-0.6,3.8-0.1,4.8,0.9
		c1,1,1.4,3.6,0.8,4.8c-1.9,3.7-0.9,5.4,2.8,6.5c1.2,0.4,2.5,1.9,2.7,3.2c0.2,1.4-0.2,3.6-1.2,4.3
		C316.9,547.2,316.8,547.1,319.4,552.8z M317.1,552.9c-0.8-1.5-1.2-2.1-1.4-2.7c-1.7-3.9-0.5-6.4,3.6-8.3c0.9-0.4,1.6-1.3,2.4-2
		c-0.7-0.8-1.3-2-2.1-2.2c-4.8-1.6-6.1-4.4-3.6-8.9c0.4-0.7,0.3-2.3-0.1-2.5c-0.8-0.5-2.1-0.6-3-0.2c-4.6,1.7-6.6,0.9-8.6-3.4
		c-0.4-0.9-1.4-1.5-2.2-2.2c-0.7,0.7-1.8,1.3-2.1,2.2c-1.7,4.4-4.4,5.7-8.7,3.5c-0.8-0.4-2.2-0.2-3,0.3c-0.4,0.2-0.4,1.8-0.1,2.5
		c2.2,4.5,1.4,7.5-3.7,8.9c-0.7,0.2-1.7,1.2-1.7,1.9c-0.1,0.7,0.8,1.9,1.4,2.1c5.1,1.5,6.6,4.4,4,9.3c-0.3,0.6-0.2,2,0.3,2.5
		c0.5,0.5,1.9,0.6,2.5,0.3c4.8-2.5,7.7-1.2,9.3,3.9c0.2,0.7,1.4,1.5,2.1,1.5c0.7-0.1,1.7-1,1.9-1.7c1.4-5.1,4.4-5.9,8.9-3.9
		C314,554,315.5,553.2,317.1,552.9z"/>
	<linearGradient id="XMLID_74_" gradientUnits="userSpaceOnUse" x1="98.3956" y1="442.7324" x2="115.6598" y2="442.7324">
		<stop  offset="0" style="stop-color:#29ABE2"/>
		<stop  offset="1" style="stop-color:#93278F"/>
	</linearGradient>
	<path id="XMLID_1343_" class="st72" d="M98.4,442.7c0-7,3-10.7,8.6-10.8c5.5,0,8.7,4,8.7,10.8c0,6.8-3.2,10.8-8.7,10.8
		C101.5,453.5,98.4,449.6,98.4,442.7z M113.4,442.5c0-5.5-2.5-8.7-6.6-8.5c-4,0.2-6.3,3.6-6.2,9c0.1,5.2,2.5,8.3,6.5,8.2
		C111.2,451.3,113.4,448.2,113.4,442.5z"/>
	<linearGradient id="XMLID_75_" gradientUnits="userSpaceOnUse" x1="78.626" y1="416.3575" x2="95.9574" y2="416.3575">
		<stop  offset="0" style="stop-color:#29ABE2"/>
		<stop  offset="1" style="stop-color:#93278F"/>
	</linearGradient>
	<path id="XMLID_1340_" class="st73" d="M78.6,416.4c0-6.9,3.1-10.8,8.6-10.8c5.5,0,8.7,4,8.7,10.8c0,6.8-3.2,10.8-8.7,10.8
		C81.7,427.1,78.6,423.3,78.6,416.4z M93.7,416.5c0-5.5-2.3-8.8-6.4-8.8c-4.1,0-6.5,3.3-6.5,8.8c0,5.1,2.4,8.4,6.2,8.6
		C91.1,425.3,93.6,422,93.7,416.5z"/>
	<linearGradient id="XMLID_76_" gradientUnits="userSpaceOnUse" x1="109.2619" y1="416.374" x2="126.5371" y2="416.374">
		<stop  offset="0" style="stop-color:#29ABE2"/>
		<stop  offset="1" style="stop-color:#93278F"/>
	</linearGradient>
	<path id="XMLID_1337_" class="st74" d="M126.5,416.5c0,6.8-3.2,10.7-8.8,10.6c-5.5,0-8.5-3.9-8.5-10.8c0-6.9,3.1-10.7,8.7-10.7
		C123.4,405.7,126.6,409.6,126.5,416.5z M124.2,416.6c0-5.6-2.2-8.8-6.3-8.8c-4.1,0-6.5,3.3-6.5,8.7c0,5.5,2.6,8.7,6.7,8.6
		C122,424.9,124.2,421.9,124.2,416.6z"/>
	<linearGradient id="XMLID_77_" gradientUnits="userSpaceOnUse" x1="79.5275" y1="442.7565" x2="96.5034" y2="442.7565">
		<stop  offset="0" style="stop-color:#29ABE2"/>
		<stop  offset="1" style="stop-color:#93278F"/>
	</linearGradient>
	<path id="XMLID_1334_" class="st75" d="M79.5,443.2c0-7.5,2.9-11.2,8.5-11.2c4.4,0,7.2,2.1,8,6.3c0.4,2.2,0.5,4.6,0.3,6.8
		c-0.4,5.3-3.6,8.4-8.3,8.4c-4.8,0-7.9-3-8.4-8.3C79.5,444.4,79.5,443.6,79.5,443.2z M81.5,442.8c0.1,5.5,2.6,8.7,6.8,8.5
		c4.1-0.2,6.3-3.4,6.2-9c-0.1-5.2-2.5-8.3-6.5-8.3C84,434,81.4,437.5,81.5,442.8z"/>
	<linearGradient id="XMLID_78_" gradientUnits="userSpaceOnUse" x1="127.2107" y1="442.3242" x2="134.9906" y2="442.3242">
		<stop  offset="0" style="stop-color:#29ABE2"/>
		<stop  offset="1" style="stop-color:#93278F"/>
	</linearGradient>
	<path id="XMLID_1333_" class="st76" d="M133.2,453.2c0-6.2,0-12.5,0-18.7c-2.3-0.6-3.9-1-6-1.6c6-2.9,7.7-1.9,7.8,3.6
		c0,5.5,0,11.1,0,16.6C134.4,453.2,133.8,453.2,133.2,453.2z"/>
	<linearGradient id="XMLID_79_" gradientUnits="userSpaceOnUse" x1="116.9317" y1="442.4978" x2="124.1229" y2="442.4978">
		<stop  offset="0" style="stop-color:#29ABE2"/>
		<stop  offset="1" style="stop-color:#93278F"/>
	</linearGradient>
	<path id="XMLID_1332_" class="st77" d="M122.4,434.4c-2.4-0.5-3.9-0.8-5.4-1.1c0-0.5,0-1,0-1.4c2,0,4.2-0.5,6,0.2
		c0.8,0.3,1.1,2.8,1.2,4.3c0.1,5.6,0.1,11.3,0.1,16.9c-0.6,0-1.2,0-1.7,0C122.4,447,122.4,440.6,122.4,434.4z"/>
	<linearGradient id="XMLID_80_" gradientUnits="userSpaceOnUse" x1="97.2537" y1="416.1104" x2="103.9194" y2="416.1104">
		<stop  offset="0" style="stop-color:#29ABE2"/>
		<stop  offset="1" style="stop-color:#93278F"/>
	</linearGradient>
	<path id="XMLID_1331_" class="st78" d="M102.6,408.1c-2.4-0.5-3.9-0.9-5.4-1.2c0-0.4,0-0.8,0-1.1c2.1-0.1,4.1-0.2,6.7-0.4
		c0,7.4,0,14.4,0,21.4c-0.4,0-0.9,0.1-1.3,0.1C102.6,420.6,102.6,414.3,102.6,408.1z"/>
	<linearGradient id="XMLID_81_" gradientUnits="userSpaceOnUse" x1="128.0319" y1="416.0324" x2="134.5243" y2="416.0324">
		<stop  offset="0" style="stop-color:#29ABE2"/>
		<stop  offset="1" style="stop-color:#93278F"/>
	</linearGradient>
	<path id="XMLID_1330_" class="st79" d="M132.9,426.7c0-4.5-0.2-9,0.1-13.5c0.2-3.7-0.4-6.4-4.9-7.4c2-0.2,4-0.3,6.5-0.5
		c0,7.4,0,14.4,0,21.4C134,426.7,133.4,426.7,132.9,426.7z"/>
	<linearGradient id="XMLID_82_" gradientUnits="userSpaceOnUse" x1="194.9995" y1="510.4416" x2="205.1782" y2="510.4416">
		<stop  offset="0" style="stop-color:#29ABE2"/>
		<stop  offset="1" style="stop-color:#93278F"/>
	</linearGradient>
	<path id="XMLID_1329_" class="st80" d="M205.2,497.4c-2.7,8.9-5.4,17.8-8.2,26.6c-0.7-0.2-1.3-0.4-2-0.6c2.7-8.9,5.5-17.8,8.2-26.6
		C203.9,497,204.5,497.2,205.2,497.4z"/>
	<linearGradient id="XMLID_83_" gradientUnits="userSpaceOnUse" x1="206.7191" y1="511.5481" x2="219.0127" y2="511.5481">
		<stop  offset="0" style="stop-color:#29ABE2"/>
		<stop  offset="1" style="stop-color:#93278F"/>
	</linearGradient>
	<path id="XMLID_1328_" class="st81" d="M219,511.5c-4.3,3-7.8,5.3-11.2,7.7c-0.4-0.5-0.7-1.1-1.1-1.6c2.5-1.9,5-3.8,7.9-6.1
		c-2.8-2.2-5.4-4.2-7.9-6.2c0.4-0.5,0.7-1,1.1-1.5C211.2,506.2,214.7,508.5,219,511.5z"/>
	<linearGradient id="XMLID_84_" gradientUnits="userSpaceOnUse" x1="181.2241" y1="511.4958" x2="193.3136" y2="511.4958">
		<stop  offset="0" style="stop-color:#29ABE2"/>
		<stop  offset="1" style="stop-color:#93278F"/>
	</linearGradient>
	<path id="XMLID_1327_" class="st82" d="M193.3,505.3c-2.5,2-4.9,4-7.7,6.2c2.6,2.1,5.1,4.1,7.5,6.1c-0.3,0.5-0.7,1-1,1.4
		c-3.4-2.3-6.8-4.7-10.9-7.5c4.2-2.9,7.6-5.2,11-7.6C192.6,504.4,193,504.9,193.3,505.3z"/>
	<linearGradient id="XMLID_85_" gradientUnits="userSpaceOnUse" x1="141.7872" y1="588.0361" x2="151.5107" y2="588.0361">
		<stop  offset="0" style="stop-color:#29ABE2"/>
		<stop  offset="1" style="stop-color:#93278F"/>
	</linearGradient>
	<path id="XMLID_1324_" class="st83" d="M149.4,595.6c-1.6,0-3.9,0-5.7,0c-0.8-3.3-1.8-6.1-2-9c-0.1-1.8,0.6-4.4,2-5.4
		c1.3-0.9,4.3-0.9,5.7,0c1.3,0.9,2.2,3.5,2.1,5.3C151.3,589.3,150.2,592.2,149.4,595.6z M146.6,594.1c1.1-3.2,2.2-5.7,2.9-8.4
		c0.2-0.8-0.5-2.3-1.3-2.8c-0.8-0.5-2.3-0.5-3.1,0c-0.8,0.5-1.5,2-1.3,2.8C144.4,588.3,145.5,590.9,146.6,594.1z"/>
	<linearGradient id="XMLID_86_" gradientUnits="userSpaceOnUse" x1="211.3194" y1="618.839" x2="250.7219" y2="618.839">
		<stop  offset="0" style="stop-color:#29ABE2"/>
		<stop  offset="1" style="stop-color:#93278F"/>
	</linearGradient>
	<path id="XMLID_1319_" class="st84" d="M216,607.5c1.4,1,2.9,2.1,5,3.5c2.1-4.8,3.1-10.6,9.9-10.5c6.6,0.1,7.7,5.4,9.5,10.5
		c2.2-1.4,3.8-2.5,5.3-3.5c-0.7,3.1-1.7,5.9-2,8.7c-0.5,4.4,3.3,4.2,7.1,4.9c-3,2.2-7.7,1.2-7.2,5.8c0.3,2.7,0.8,5.4,1.3,8.3
		c-1.1-0.6-2.4-1.5-3.8-2.3c-9.2,5.7-12.4,5.6-20.1-0.1c-1.4,0.9-3,1.8-5.3,3.2c4.4-8.9,3.6-11.4-4.3-14.3c2.6-1.7,7.2-0.8,6.6-5.4
		C217.5,613.5,216.7,610.8,216,607.5z M232.3,634.3c6.2-1.2,9.9-6.1,10-12.8c0-6.7-3.7-11.6-10-12.8
		C232.3,617.1,232.3,625.5,232.3,634.3z M229.3,634.4c0-8.8,0-17.2,0-25.7c-6.3,1.2-10,6-10,12.7C219.3,628.1,222.9,633,229.3,634.4
		z M235.8,606.1c-3.3-4.8-6.6-4.8-10,0C229,606.1,232.1,606.1,235.8,606.1z"/>
	<linearGradient id="XMLID_87_" gradientUnits="userSpaceOnUse" x1="198.6668" y1="620.3625" x2="262.7439" y2="620.3625">
		<stop  offset="0" style="stop-color:#29ABE2"/>
		<stop  offset="1" style="stop-color:#93278F"/>
	</linearGradient>
	<path id="XMLID_1318_" class="st85" d="M253.8,599.8c-10-8.6-21-12.2-33.7-7.5c-8.1,3-13.8,8.7-17.1,16.7
		c-6.7,16.1,2.1,35,18.9,39.9c10.9,3.2,20.8,1,29.2-6.8c8.3-7.6,10.6-17.5,9.2-29.6c6.3,10.1-0.7,27.8-12.5,35.1
		c-15.4,9.5-35.5,4.6-44.7-10.8c-9.1-15.4-4-35.2,11.3-44.2C228,584.7,247.8,588.1,253.8,599.8z"/>
	<linearGradient id="XMLID_88_" gradientUnits="userSpaceOnUse" x1="159.5447" y1="296.5853" x2="214.995" y2="296.5853">
		<stop  offset="0" style="stop-color:#29ABE2"/>
		<stop  offset="1" style="stop-color:#93278F"/>
	</linearGradient>
	<path id="XMLID_1312_" class="st86" d="M210.4,277.2c-2.8,1.6-5.5,3.1-8.3,4.7c0.6,0.6,1.2,1.1,1.8,1.7c3.3,3.4,6.5,6.8,9.8,10.1
		c1.8,1.8,1.7,3.4,0.2,5.6c-8.9,12.7-23.3,17.5-38.1,12.7c-1.6-0.5-3.9,0.3-5.5,1.1c-2,1.1-3.6,2.9-5.4,4.4
		c-0.4-0.4-0.7-0.8-1.1-1.1c2.1-2.2,4.2-4.4,6.3-6.6c-3.4-3.5-6.9-6.7-9.8-10.4c-0.9-1.2-1-4.1-0.2-5.4c8.6-12.9,23.2-17.6,38-12.8
		c1.6,0.5,3.9-0.3,5.5-1.2c2-1.1,3.6-2.9,5.4-4.4C209.4,276.2,209.9,276.7,210.4,277.2z M198.1,285.5c-12-8.2-30.1-2-37.3,12.6
		c2.8,2.4,5.7,5.2,9,7.6c1.1,0.8,3.7,1.1,4.5,0.4c1.3-1.1,2.5-3.5,2.2-5c-1.1-5.2-0.7-9.9,3.4-13.6c4.1-3.6,8.8-3.9,13.8-1.8
		C194.9,286.2,196.6,285.6,198.1,285.5z M175.7,308.7c8.4,5.3,19.7,4.3,28.8-3.4c10.8-9,10.3-8.4,0.1-17.5c-1.1-1-3.3-0.8-5-1.1
		c-0.2,1.7-0.9,3.5-0.4,4.9c1.7,5.3,0.7,10.6-3.2,14c-3.9,3.5-9.3,4.3-14.1,1.3C178.7,305.1,177.2,306.2,175.7,308.7z M195.3,290.7
		c-4.7,4.2-9.4,8.4-14.1,12.5c4.4,4.2,9.2,4.4,13.3,0.8C198.5,300.5,198.9,295.8,195.3,290.7z M193.8,288.9
		c-5.6-3.2-10.2-2.6-13.4,1.2c-3,3.5-3.2,7.2-0.3,11.1C184.5,297.2,189,293.2,193.8,288.9z"/>
	<linearGradient id="XMLID_89_" gradientUnits="userSpaceOnUse" x1="271.3797" y1="383.8156" x2="310.1491" y2="383.8156">
		<stop  offset="0" style="stop-color:#29ABE2"/>
		<stop  offset="1" style="stop-color:#93278F"/>
	</linearGradient>
	<path id="XMLID_1309_" class="st87" d="M310.1,383.8c0.1,10.8-8.4,19.4-19.2,19.5c-10.8,0.1-19.5-8.4-19.6-19.2
		c-0.1-11,8.6-19.8,19.5-19.8C301.6,364.4,310.1,372.9,310.1,383.8z M290.8,401.1c9.4-0.1,17.2-7.8,17.3-17.2
		c0.1-9.5-7.9-17.4-17.6-17.3c-9.5,0.1-17.1,7.9-17,17.3C273.6,393.4,281.4,401.1,290.8,401.1z"/>
	<linearGradient id="XMLID_90_" gradientUnits="userSpaceOnUse" x1="279.9908" y1="466.8749" x2="303.7822" y2="466.8749">
		<stop  offset="0" style="stop-color:#29ABE2"/>
		<stop  offset="1" style="stop-color:#93278F"/>
	</linearGradient>
	<path id="XMLID_1308_" class="st88" d="M280,465.8c7.7,0,15.4,0,23.8,0C299.8,468.6,286.2,468.8,280,465.8z"/>
	<linearGradient id="XMLID_91_" gradientUnits="userSpaceOnUse" x1="279.6335" y1="480.4779" x2="303.2319" y2="480.4779">
		<stop  offset="0" style="stop-color:#29ABE2"/>
		<stop  offset="1" style="stop-color:#93278F"/>
	</linearGradient>
	<path id="XMLID_1307_" class="st89" d="M303.2,481.2c-7.9,0-15.7,0-23.6,0c0-0.5,0-1,0-1.4c7.9,0,15.7,0,23.6,0
		C303.2,480.2,303.2,480.7,303.2,481.2z"/>
	<linearGradient id="XMLID_92_" gradientUnits="userSpaceOnUse" x1="279.9941" y1="453.4299" x2="303.2185" y2="453.4299">
		<stop  offset="0" style="stop-color:#29ABE2"/>
		<stop  offset="1" style="stop-color:#93278F"/>
	</linearGradient>
	<path id="XMLID_1306_" class="st90" d="M280,452.9c7.7,0,15.5,0,23.2,0c0,0.3,0,0.6,0,1c-7.7,0-15.4,0-23.2,0
		C280,453.6,280,453.3,280,452.9z"/>
	<linearGradient id="XMLID_93_" gradientUnits="userSpaceOnUse" x1="266.3127" y1="480.3103" x2="275.0483" y2="480.3103">
		<stop  offset="0" style="stop-color:#29ABE2"/>
		<stop  offset="1" style="stop-color:#93278F"/>
	</linearGradient>
	<path id="XMLID_1305_" class="st91" d="M275,480.6c-2.4,1.4-3.9,3-5.4,3c-1.2-0.1-2.3-2.1-3.4-3.2c1.3-1.2,2.5-3.1,3.9-3.3
		C271.3,476.8,272.7,478.8,275,480.6z"/>
	<linearGradient id="XMLID_94_" gradientUnits="userSpaceOnUse" x1="266.2404" y1="466.5771" x2="274.9525" y2="466.5771">
		<stop  offset="0" style="stop-color:#29ABE2"/>
		<stop  offset="1" style="stop-color:#93278F"/>
	</linearGradient>
	<path id="XMLID_1304_" class="st92" d="M275,466.7c-2.3,1.5-3.9,3.3-4.9,3c-1.5-0.3-2.5-2.3-3.8-3.5c1.2-1,2.5-2.8,3.7-2.8
		C271.3,463.4,272.6,465.1,275,466.7z"/>
	<linearGradient id="XMLID_95_" gradientUnits="userSpaceOnUse" x1="266.91" y1="453.2156" x2="274.8881" y2="453.2156">
		<stop  offset="0" style="stop-color:#29ABE2"/>
		<stop  offset="1" style="stop-color:#93278F"/>
	</linearGradient>
	<path id="XMLID_1303_" class="st93" d="M274.9,453.2c-2.4,1.6-3.9,3.3-5,3.1c-1.2-0.2-2.7-2-2.9-3.4c-0.2-0.8,1.9-2.8,2.9-2.8
		C271.1,450.1,272.5,451.6,274.9,453.2z"/>
	<linearGradient id="XMLID_96_" gradientUnits="userSpaceOnUse" x1="358.4736" y1="386.804" x2="365.2536" y2="386.804">
		<stop  offset="0" style="stop-color:#29ABE2"/>
		<stop  offset="1" style="stop-color:#93278F"/>
	</linearGradient>
	<path id="XMLID_1302_" class="st94" d="M363.5,398.5c-0.5,0-2.2,0-4.8,0c0-7-0.5-14,0.2-20.9c0.4-4,3.6-2,6.4-1.3
		c-7.9,3.8-3.4,10.4-4.2,15.5C360.7,393.6,362.5,395.9,363.5,398.5z"/>
	<linearGradient id="XMLID_97_" gradientUnits="userSpaceOnUse" x1="397.2531" y1="386.6819" x2="404.1051" y2="386.6819">
		<stop  offset="0" style="stop-color:#29ABE2"/>
		<stop  offset="1" style="stop-color:#93278F"/>
	</linearGradient>
	<path id="XMLID_1301_" class="st95" d="M399.2,398.2c1.1-2.2,3.1-4.2,2.8-5.7c-1-5.4,3.7-12.3-4.7-17c2.9-0.1,4.7-0.2,6.9-0.3
		c0,7.8,0,15.3,0,23C402.2,398.2,400.4,398.2,399.2,398.2z"/>
	<linearGradient id="XMLID_98_" gradientUnits="userSpaceOnUse" x1="366.6734" y1="392.374" x2="386.2585" y2="392.374">
		<stop  offset="0" style="stop-color:#29ABE2"/>
		<stop  offset="1" style="stop-color:#93278F"/>
	</linearGradient>
	<path id="XMLID_1300_" class="st96" d="M366.7,391.8c6.5,0,13.1,0,19.6,0c0,0.4,0,0.8,0,1.2c-6.5,0-13.1,0-19.6,0
		C366.7,392.6,366.7,392.2,366.7,391.8z"/>
	<linearGradient id="XMLID_99_" gradientUnits="userSpaceOnUse" x1="381.0476" y1="387.356" x2="395.8698" y2="387.356">
		<stop  offset="0" style="stop-color:#29ABE2"/>
		<stop  offset="1" style="stop-color:#93278F"/>
	</linearGradient>
	<path id="XMLID_1299_" class="st97" d="M395.9,387.9c-4.9,0-9.9,0-14.8,0c0-0.3,0-0.7,0-1c4.9,0,9.9,0,14.8,0
		C395.9,387.2,395.9,387.5,395.9,387.9z"/>
	<linearGradient id="XMLID_100_" gradientUnits="userSpaceOnUse" x1="366.7217" y1="387.4014" x2="376.7834" y2="387.4014">
		<stop  offset="0" style="stop-color:#29ABE2"/>
		<stop  offset="1" style="stop-color:#93278F"/>
	</linearGradient>
	<path id="XMLID_1298_" class="st98" d="M376.8,388c-3.3,0-6.7,0-10,0c0-0.4,0-0.8,0-1.1c3.4,0,6.7,0,10.1,0
		C376.8,387.2,376.8,387.6,376.8,388z"/>
	<linearGradient id="XMLID_101_" gradientUnits="userSpaceOnUse" x1="203.6348" y1="403.223" x2="214.6431" y2="403.223">
		<stop  offset="0" style="stop-color:#29ABE2"/>
		<stop  offset="1" style="stop-color:#93278F"/>
	</linearGradient>
	<path id="XMLID_1295_" class="st99" d="M208.9,397.6c3.8,0.4,5.8,2.2,5.7,5.7c0,3.6-2.2,5.5-5.6,5.5c-3.4,0-5.5-2-5.4-5.6
		C203.7,399.6,205.8,398,208.9,397.6z M209.2,398.4c-1.6,2.2-3.4,3.6-3.3,4.8c0.1,1.3,2,3.2,3.2,3.2c1.1,0,3.1-1.9,3.2-3.2
		C212.5,402.1,210.7,400.7,209.2,398.4z"/>
	<linearGradient id="XMLID_102_" gradientUnits="userSpaceOnUse" x1="167.3922" y1="350.8531" x2="178.0402" y2="350.8531">
		<stop  offset="0" style="stop-color:#29ABE2"/>
		<stop  offset="1" style="stop-color:#93278F"/>
	</linearGradient>
	<path id="XMLID_1294_" class="st100" d="M178,351.1c-3,1.9-4.8,4-6.3,3.8c-1.6-0.2-2.9-2.6-4.4-4c1.6-1.5,3-3.8,4.7-4.1
		C173.4,346.5,175.2,348.9,178,351.1z"/>
	<linearGradient id="XMLID_103_" gradientUnits="userSpaceOnUse" x1="182.5805" y1="350.8498" x2="193.3354" y2="350.8498">
		<stop  offset="0" style="stop-color:#29ABE2"/>
		<stop  offset="1" style="stop-color:#93278F"/>
	</linearGradient>
	<path id="XMLID_1293_" class="st101" d="M193.3,351.2c-3,1.9-4.8,3.9-6.4,3.7c-1.6-0.2-2.9-2.6-4.4-4c1.6-1.5,3-3.8,4.8-4.1
		C188.8,346.6,190.5,349,193.3,351.2z"/>
	<linearGradient id="XMLID_104_" gradientUnits="userSpaceOnUse" x1="152.7028" y1="350.8526" x2="163.3381" y2="350.8526">
		<stop  offset="0" style="stop-color:#29ABE2"/>
		<stop  offset="1" style="stop-color:#93278F"/>
	</linearGradient>
	<path id="XMLID_1292_" class="st102" d="M163.3,351.1c-3,1.9-4.8,4-6.3,3.8c-1.6-0.2-2.9-2.6-4.4-4c1.6-1.5,3-3.8,4.7-4.1
		C158.7,346.6,160.5,348.9,163.3,351.1z"/>
	<linearGradient id="XMLID_105_" gradientUnits="userSpaceOnUse" x1="421.7664" y1="526.3299" x2="460.5518" y2="526.3299">
		<stop  offset="0" style="stop-color:#29ABE2"/>
		<stop  offset="1" style="stop-color:#93278F"/>
	</linearGradient>
	<path id="XMLID_1289_" class="st103" d="M460.6,523c0,2.4,0,4.3,0,6.7c-12.9,0-25.7,0-38.8,0c0-2.1,0-4.2,0-6.7
		C434.5,523,447.3,523,460.6,523z M458.6,527.6c-0.2-1-0.4-2.2-0.5-2.2c-9.1-0.3-18.2-0.7-27.2-0.7c-2.4,0-5.7-1.5-7.6,2.9
		C435.4,527.6,446.8,527.6,458.6,527.6z"/>
	<linearGradient id="XMLID_106_" gradientUnits="userSpaceOnUse" x1="464.426" y1="526.6965" x2="474.5034" y2="526.6965">
		<stop  offset="0" style="stop-color:#29ABE2"/>
		<stop  offset="1" style="stop-color:#93278F"/>
	</linearGradient>
	<path id="XMLID_1288_" class="st104" d="M474.5,529.5c-9.5,2.1-11,1.2-9.7-6.5c3,0,6.1,0,9.7,0
		C474.5,525.2,474.5,527.4,474.5,529.5z"/>
	<linearGradient id="XMLID_107_" gradientUnits="userSpaceOnUse" x1="435.3357" y1="513.9157" x2="446.6602" y2="513.9157">
		<stop  offset="0" style="stop-color:#29ABE2"/>
		<stop  offset="1" style="stop-color:#93278F"/>
	</linearGradient>
	<path id="XMLID_1285_" class="st105" d="M445.2,519.1c-3.2-0.6-6.7-0.6-9.3-2.1c-1-0.6-0.8-6.2,0.5-7c2.2-1.3,6.5-1.8,8.2-0.4
		c1.7,1.3,1.4,5.3,2,8.1C446.2,518.2,445.7,518.6,445.2,519.1z M437.4,516.7c2.9-0.6,4.8-0.8,6.4-1.6c0.4-0.2,0.3-2.9-0.2-3
		c-1.4-0.6-3.3-1-4.5-0.5C438.2,512,438.2,514.2,437.4,516.7z"/>
	<linearGradient id="XMLID_108_" gradientUnits="userSpaceOnUse" x1="435.563" y1="502.1264" x2="446.2989" y2="502.1264">
		<stop  offset="0" style="stop-color:#29ABE2"/>
		<stop  offset="1" style="stop-color:#93278F"/>
	</linearGradient>
	<path id="XMLID_1282_" class="st106" d="M436.1,497.7c10.4-1.2,11.1-0.5,9.6,8.3C435.9,508.3,434.6,507.2,436.1,497.7z
		 M438.5,505.5c2.2-1.4,3.9-2.4,5.6-3.5c-1-0.9-1.9-2.5-3-2.6C437.7,498.8,437.6,501.1,438.5,505.5z"/>
	<linearGradient id="XMLID_109_" gradientUnits="userSpaceOnUse" x1="450.4557" y1="513.7802" x2="460.3146" y2="513.7802">
		<stop  offset="0" style="stop-color:#29ABE2"/>
		<stop  offset="1" style="stop-color:#93278F"/>
	</linearGradient>
	<path id="XMLID_1279_" class="st107" d="M460.3,509.4c0,2.9,0,5.6,0,8.8c-3.2,0-6.3,0-9.9,0c0-2.8,0-5.6,0-8.8
		C453.7,509.4,456.9,509.4,460.3,509.4z M455.4,517.7c1.5-2,3-3.2,2.8-4c-0.3-1.1-2-2.4-3-2.4c-1.1,0-2.7,1.4-2.9,2.5
		C452.2,514.7,453.8,515.9,455.4,517.7z"/>
	<linearGradient id="XMLID_110_" gradientUnits="userSpaceOnUse" x1="464.2324" y1="513.7865" x2="474.122" y2="513.7865">
		<stop  offset="0" style="stop-color:#29ABE2"/>
		<stop  offset="1" style="stop-color:#93278F"/>
	</linearGradient>
	<path id="XMLID_1276_" class="st108" d="M464.2,509.3c3.4,0,6.5,0,9.9,0c0,3,0,5.8,0,9c-3.3,0-6.4,0-9.9,0
		C464.2,515.3,464.2,512.6,464.2,509.3z M469.3,517.7c1.5-1.9,3.1-3.2,2.9-3.9c-0.3-1.1-2-2.4-3-2.4c-1,0-2.7,1.4-2.9,2.5
		C466.1,514.7,467.8,515.8,469.3,517.7z"/>
	<linearGradient id="XMLID_111_" gradientUnits="userSpaceOnUse" x1="421.3974" y1="501.7562" x2="431.6244" y2="501.7562">
		<stop  offset="0" style="stop-color:#29ABE2"/>
		<stop  offset="1" style="stop-color:#93278F"/>
	</linearGradient>
	<path id="XMLID_1273_" class="st109" d="M422.1,506.3c-1.7-9-0.8-9.9,9.5-8.8c0,2.8,0,5.6,0,8.8
		C428.5,506.3,425.5,506.3,422.1,506.3z M429.1,505.6c1-4.4,1.1-6.7-2.4-6.2c-1.1,0.2-2.1,1.7-3.1,2.6
		C425.2,503,426.8,504.1,429.1,505.6z"/>
	<linearGradient id="XMLID_112_" gradientUnits="userSpaceOnUse" x1="421.7748" y1="513.766" x2="431.6261" y2="513.766">
		<stop  offset="0" style="stop-color:#29ABE2"/>
		<stop  offset="1" style="stop-color:#93278F"/>
	</linearGradient>
	<path id="XMLID_1270_" class="st110" d="M421.8,518.2c0-3.1,0-5.8,0-8.8c3.3,0,6.4,0,9.9,0c0,2.9,0,5.7,0,8.8
		C428.3,518.2,425,518.2,421.8,518.2z M429.6,510.5c-2.5,0.9-4.3,1.5-5.9,2.4c-0.3,0.2,0.2,2.7,0.7,2.9c1.6,0.5,3.3,0.4,5.2,0.5
		C429.6,514.5,429.6,513.2,429.6,510.5z"/>
	<linearGradient id="XMLID_113_" gradientUnits="userSpaceOnUse" x1="450.4987" y1="501.9515" x2="460.308" y2="501.9515">
		<stop  offset="0" style="stop-color:#29ABE2"/>
		<stop  offset="1" style="stop-color:#93278F"/>
	</linearGradient>
	<path id="XMLID_1267_" class="st111" d="M460.3,497.5c0,3.2,0,5.8,0,8.8c-3.3,0-6.3,0-9.8,0c0-2.8,0-5.6,0-8.8
		C453.6,497.5,456.8,497.5,460.3,497.5z M455.2,505.9c1.6-1.9,3.3-3.1,3.1-3.9c-0.2-1.1-1.8-2.6-2.9-2.6c-1.1,0-2.7,1.3-3.1,2.4
		C452.1,502.6,453.7,503.9,455.2,505.9z"/>
	<linearGradient id="XMLID_114_" gradientUnits="userSpaceOnUse" x1="464.2693" y1="501.998" x2="474.0876" y2="501.998">
		<stop  offset="0" style="stop-color:#29ABE2"/>
		<stop  offset="1" style="stop-color:#93278F"/>
	</linearGradient>
	<path id="XMLID_1264_" class="st112" d="M474.1,506.4c-3.5,0-6.5,0-9.8,0c0-2.9,0-5.6,0-8.8c3.1,0,6.3,0,9.8,0
		C474.1,500.3,474.1,503.1,474.1,506.4z M469.3,505.9c1.6-2,3.2-3.2,3-4c-0.3-1.1-1.9-2.5-3-2.5c-1,0-2.7,1.4-2.9,2.5
		C466.2,502.7,467.7,503.9,469.3,505.9z"/>
	<linearGradient id="XMLID_115_" gradientUnits="userSpaceOnUse" x1="390.7341" y1="539.0076" x2="398.6629" y2="539.0076">
		<stop  offset="0" style="stop-color:#29ABE2"/>
		<stop  offset="1" style="stop-color:#93278F"/>
	</linearGradient>
	<path id="XMLID_1263_" class="st113" d="M395.2,533.9c1.8,3.2,3.6,5,3.5,6.6c-0.1,1.4-2.8,3.8-3.9,3.6c-1.7-0.4-4-2.5-4.1-4
		C390.6,538.5,392.9,536.9,395.2,533.9z"/>
	<linearGradient id="XMLID_116_" gradientUnits="userSpaceOnUse" x1="455.4569" y1="340.6716" x2="462.6814" y2="340.6716">
		<stop  offset="0" style="stop-color:#29ABE2"/>
		<stop  offset="1" style="stop-color:#93278F"/>
	</linearGradient>
	<path id="XMLID_1260_" class="st114" d="M455.5,327.9c2.3,0,4.4,0,7.1,0c0,7.3,0.3,14.5-0.3,21.6c-0.1,1.3-3.8,2.3-6.9,4
		C455.5,343.9,455.5,336.2,455.5,327.9z M460.5,329.9c-1,0-2,0-3,0c0,6.3,0,12.5,0.1,18.8c0,0.3,1.2,0.9,1.5,0.8
		c0.6-0.3,1.3-1.1,1.3-1.7c0.2-2.8,0.2-5.5,0.2-8.3C460.5,336.3,460.5,333.1,460.5,329.9z"/>
	<linearGradient id="XMLID_117_" gradientUnits="userSpaceOnUse" x1="454.7299" y1="358.3558" x2="462.6815" y2="358.3558">
		<stop  offset="0" style="stop-color:#29ABE2"/>
		<stop  offset="1" style="stop-color:#93278F"/>
	</linearGradient>
	<path id="XMLID_1259_" class="st115" d="M462.7,361.8c-3,0-5,0-8,0c0.5-2.4,0.4-5.1,1.6-6.3c0.9-0.9,4.6-0.8,5.3,0.1
		C462.8,357.1,462.4,359.7,462.7,361.8z"/>
	<linearGradient id="XMLID_118_" gradientUnits="userSpaceOnUse" x1="337.8449" y1="437.9473" x2="361.871" y2="437.9473">
		<stop  offset="0" style="stop-color:#29ABE2"/>
		<stop  offset="1" style="stop-color:#93278F"/>
	</linearGradient>
	<path id="XMLID_1256_" class="st116" d="M350,426.1c6.6,0,11.9,5.3,11.9,11.9c0,6.6-5.2,11.8-11.9,11.8
		c-6.9,0.1-12.2-5.3-12.1-12.1C338,431,343.2,426,350,426.1z M350,428.1c-5.2-0.1-9.8,4.3-10,9.5c-0.2,5.2,4.2,9.9,9.4,10.2
		c5.4,0.3,10.2-4.3,10.2-9.8C359.6,432.7,355.3,428.2,350,428.1z"/>
	<linearGradient id="XMLID_119_" gradientUnits="userSpaceOnUse" x1="390.5876" y1="330.8255" x2="405.1113" y2="330.8255">
		<stop  offset="0" style="stop-color:#29ABE2"/>
		<stop  offset="1" style="stop-color:#93278F"/>
	</linearGradient>
	<path id="XMLID_1255_" class="st117" d="M391.7,329.3c1.2,1.1,2.5,2.3,4.1,3.8c2.6-2.8,5.3-5.7,8-8.5c0.5,0.4,0.9,0.8,1.4,1.2
		c-3,3.6-6,7.1-9.5,11.3c-1.9-2.6-3.4-4.7-5-6.8C390.9,329.9,391.3,329.6,391.7,329.3z"/>
	<linearGradient id="XMLID_120_" gradientUnits="userSpaceOnUse" x1="337.3052" y1="476.2736" x2="349.4055" y2="476.2736">
		<stop  offset="0" style="stop-color:#29ABE2"/>
		<stop  offset="1" style="stop-color:#93278F"/>
	</linearGradient>
	<path id="XMLID_1254_" class="st118" d="M348.6,480.7c-2.8,0.2-5.7,0.7-8.5,0.5c-1-0.1-2.5-1.5-2.6-2.5c-0.3-2.2,0.1-4.5,1-7.3
		c0.2,7.2,4,9.3,11,7.3C349.1,479.3,348.8,480,348.6,480.7z"/>
	<linearGradient id="XMLID_121_" gradientUnits="userSpaceOnUse" x1="362.7113" y1="526.2552" x2="372.7345" y2="526.2552">
		<stop  offset="0" style="stop-color:#29ABE2"/>
		<stop  offset="1" style="stop-color:#93278F"/>
	</linearGradient>
	<path id="XMLID_1253_" class="st119" d="M372.7,527.4c-1.8,1.1-3.7,3.3-5.3,3.1c-1.7-0.3-3.1-2.8-4.7-4.3c1.6-1.5,3-4,4.8-4.2
		c1.6-0.2,3.5,2.1,5.2,3.3C372.7,526,372.7,526.7,372.7,527.4z"/>
	<linearGradient id="XMLID_122_" gradientUnits="userSpaceOnUse" x1="284.5732" y1="624.8788" x2="295.6174" y2="624.8788">
		<stop  offset="0" style="stop-color:#29ABE2"/>
		<stop  offset="1" style="stop-color:#93278F"/>
	</linearGradient>
	<path id="XMLID_1252_" class="st120" d="M295.6,621.2c-1.8,2.6-3.7,5.2-6,8.4c-1.9-2.1-3.5-3.8-5.1-5.5c0.3-0.3,0.5-0.6,0.8-0.9
		c1.3,0.7,2.6,1.4,4.1,2.3c1.6-1.7,3.2-3.6,4.9-5.4C294.8,620.5,295.2,620.8,295.6,621.2z"/>
	<linearGradient id="XMLID_123_" gradientUnits="userSpaceOnUse" x1="181.3058" y1="248.0459" x2="189.8115" y2="248.0459">
		<stop  offset="0" style="stop-color:#29ABE2"/>
		<stop  offset="1" style="stop-color:#93278F"/>
	</linearGradient>
	<path id="XMLID_1251_" class="st121" d="M189.8,244.9c-1.5,2.1-3,4.1-5,6.7c-1.7-1.9-2.9-3.2-3.6-3.9c2.8-1.2,5.3-2.2,7.7-3.2
		C189.3,244.6,189.5,244.8,189.8,244.9z"/>
	<linearGradient id="XMLID_124_" gradientUnits="userSpaceOnUse" x1="293.8723" y1="539.8015" x2="309.9962" y2="539.8015">
		<stop  offset="0" style="stop-color:#29ABE2"/>
		<stop  offset="1" style="stop-color:#93278F"/>
	</linearGradient>
	<path id="XMLID_1214_" class="st122" d="M302.1,531.7c4.6,0.1,7.9,3.6,7.9,8.2c-0.1,4.6-3.7,8.1-8.2,8c-4.4-0.1-8-3.9-7.9-8.3
		C293.9,535.1,297.6,531.6,302.1,531.7z M301.8,545.7c3.7-0.3,6-2.3,6-5.9c0-3.6-2.4-5.9-6-5.8c-3.3,0.1-5.6,2.2-5.7,5.6
		C296.1,543.2,298.3,545.2,301.8,545.7z"/>
	<linearGradient id="XMLID_125_" gradientUnits="userSpaceOnUse" x1="282.631" y1="384.6628" x2="299.943" y2="384.6628">
		<stop  offset="0" style="stop-color:#29ABE2"/>
		<stop  offset="1" style="stop-color:#93278F"/>
	</linearGradient>
	<path id="XMLID_1213_" class="st123" d="M283.9,382.8c1.5,1.7,3.1,3.4,4.9,5.4c3.4-3.8,6.6-7.4,9.8-11c0.5,0.4,0.9,0.8,1.4,1.2
		c-3.6,4.4-7.3,8.8-11.4,13.8c-2.2-3.2-4.1-5.7-5.9-8.3C283.1,383.5,283.5,383.1,283.9,382.8z"/>
	<linearGradient id="XMLID_126_" gradientUnits="userSpaceOnUse" x1="343.8946" y1="433.5362" x2="351.0642" y2="433.5362">
		<stop  offset="0" style="stop-color:#29ABE2"/>
		<stop  offset="1" style="stop-color:#93278F"/>
	</linearGradient>
	<path id="XMLID_1212_" class="st124" d="M343.9,436.7c-0.2-3.2,2.2-5.5,7.2-4.7c-0.5-0.5-1-1-1.6-1.6
		C347.3,432.8,345.2,435.3,343.9,436.7z"/>
</g>
</svg>
