<?xml version="1.0" encoding="utf-8"?>
<!-- Generator: Adobe Illustrator 19.0.0, SVG Export Plug-In . SVG Version: 6.00 Build 0)  -->
<svg version="1.1" id="Layer_1" xmlns="http://www.w3.org/2000/svg" xmlns:xlink="http://www.w3.org/1999/xlink" x="0px" y="0px"
	 viewBox="0 0 898.6 1350.5" style="enable-background:new 0 0 898.6 1350.5;" xml:space="preserve">
<style type="text/css">
	.st0{fill:#FFFFFF;}
	.st1{opacity:0.3;}
	.st2{opacity:0.5;fill:#F7931E;}
	.st3{opacity:0.5;fill:#0071BC;}
	.st4{opacity:0.5;fill:#29ABE2;}
	.st5{opacity:0.5;fill:#8CC63F;}
	.st6{opacity:0.5;fill:#FCEE21;}
	.st7{opacity:0.5;fill:#93278F;}
	.st8{opacity:0.5;fill:#C69C6D;}
	.st9{fill:#F7931E;}
	.st10{fill:#8CC63F;}
	.st11{fill:#F15A24;}
	.st12{fill:#29ABE2;}
	.st13{fill:#00A99D;}
	.st14{fill:#999999;}
	.st15{fill:#ED1E79;}
</style>
<rect id="XMLID_1_" class="st0" width="800" height="600"/>
<rect id="XMLID_28_" class="st0" width="898.6" height="1350.5"/>
<g id="XMLID_2_" class="st1">
	<path id="XMLID_34_" class="st2" d="M203.6,386.6v63.8h63.8v-63.8H203.6z M263,446h-55.1v-55.1H263V446z"/>
	<path id="XMLID_57_" class="st2" d="M635.5,357.8v60.7h60.7v-60.7H635.5z M692.1,414.3h-52.4V362h52.4V414.3z"/>
	<path id="XMLID_37_" class="st3" d="M609.5,241.4c-22.4,0-40.5,18.1-40.5,40.5c0,22.4,18.1,40.5,40.5,40.5s40.5-18.1,40.5-40.5
		C650,259.5,631.9,241.4,609.5,241.4z M609.5,315.5c-18.6,0-33.6-15-33.6-33.6c0-18.6,15-33.6,33.6-33.6s33.6,15,33.6,33.6
		C643.1,300.4,628.1,315.5,609.5,315.5z"/>
	<path id="XMLID_30_" class="st3" d="M400,364.5c-17.7,0-32.1,14.4-32.1,32.1c0,17.7,14.4,32.1,32.1,32.1s32.1-14.4,32.1-32.1
		C432.1,378.9,417.7,364.5,400,364.5z M400,423.2c-14.7,0-26.6-11.9-26.6-26.6c0-14.7,11.9-26.6,26.6-26.6s26.6,11.9,26.6,26.6
		C426.6,411.3,414.7,423.2,400,423.2z"/>
	<path id="XMLID_79_" class="st3" d="M225.3,197.9c-17.7,0-32.1,14.4-32.1,32.1s14.4,32.1,32.1,32.1s32.1-14.4,32.1-32.1
		S243,197.9,225.3,197.9z M225.3,256.6c-14.7,0-26.6-11.9-26.6-26.6c0-14.7,11.9-26.6,26.6-26.6s26.6,11.9,26.6,26.6
		C251.9,244.7,240,256.6,225.3,256.6z"/>
	<path id="XMLID_40_" class="st4" d="M560.6,445.3l-42-0.1l-21.1,36.3l20.9,36.4l42,0.1l21.1-36.3L560.6,445.3z M557.1,512.2
		l-35.4-0.1l-17.6-30.7l17.8-30.6l35.4,0.1l17.6,30.7L557.1,512.2z"/>
	<path id="XMLID_73_" class="st4" d="M154.8,293.8l-42-0.1L91.7,330l20.9,36.4l42,0.1l21.1-36.3L154.8,293.8z M151.3,360.8
		l-35.4-0.1L98.3,330l17.8-30.6l35.4,0.1l17.6,30.7L151.3,360.8z"/>
	<path id="XMLID_69_" class="st4" d="M759.9,274.4l-29.6-0.1l-14.9,25.6l14.7,25.7l29.6,0.1l14.9-25.6L759.9,274.4z M757.4,321.6
		l-24.9-0.1l-12.4-21.6l12.5-21.5l24.9,0.1l12.4,21.6L757.4,321.6z"/>
	<path id="XMLID_43_" class="st5" d="M514,330.2l-38,66.4l76.6-0.3L514,330.2z M514.4,341.1l28.8,49.4l-57.2,0.2L514.4,341.1z"/>
	<path id="XMLID_51_" class="st5" d="M744.6,475.2l-26.1,45.6l52.6-0.2L744.6,475.2z M744.9,482.8l19.7,33.9l-39.2,0.1L744.9,482.8z
		"/>
	<path id="XMLID_144_" class="st5" d="M594.5,94.4l-26.1,45.6l52.6-0.2L594.5,94.4z M594.7,102l19.7,33.9l-39.2,0.1L594.7,102z"/>
	<path id="XMLID_3_" class="st5" d="M318.5,34.4L292.4,80l52.6-0.2L318.5,34.4z M318.8,42l19.7,33.9L299.3,76L318.8,42z"/>
	<path id="XMLID_63_" class="st5" d="M249.9,495.2l-26.1,45.6l52.6-0.2L249.9,495.2z M250.2,502.7l19.7,33.9l-39.2,0.1L250.2,502.7z
		"/>
	<path id="XMLID_46_" class="st6" d="M130.6,462.9l-30.5-10.6l0.9-32.3L76.5,441l-27.5-16.9l6.1,31.8l-28.4,15.4l30.5,10.6
		l-0.9,32.3l24.5-21.1l27.5,16.9l-6.1-31.8L130.6,462.9z M103.1,502.6l-22.8-14L60.1,506l0.7-26.7l-25.3-8.8l23.5-12.7l-5-26.3
		l22.8,14l20.2-17.5l-0.7,26.7l25.3,8.8l-23.5,12.7L103.1,502.6z"/>
	<path id="XMLID_66_" class="st7" d="M393.2,509.4l-18.6-6.5l0.5-19.7l-14.9,12.9l-16.8-10.3l3.7,19.3l-17.3,9.4l18.6,6.5l-0.5,19.7
		l14.9-12.9l16.8,10.3l-3.7-19.3L393.2,509.4z M376.5,533.6l-13.9-8.5l-12.3,10.6l0.5-16.3l-15.4-5.4l14.3-7.7l-3.1-16l13.9,8.5
		l12.3-10.6l-0.5,16.3l15.4,5.4l-14.3,7.7L376.5,533.6z"/>
	<path id="XMLID_49_" class="st8" d="M681.9,504.9l-8.3-5.5c-1.2-0.8-1.3-2.6-0.1-3.5l8.1-5.8c1.7-1.2,0.8-3.9-1.3-3.8l-10,0.5
		c-1.5,0.1-2.6-1.4-2.1-2.8l3.2-9.5c0.7-2-1.7-3.6-3.3-2.3l-7.8,6.2c-1.2,0.9-2.9,0.4-3.3-1l-3-9.5c-0.6-2-3.5-2-4,0.1l-2.6,9.6
		c-0.4,1.4-2.1,2-3.3,1.1l-8-5.9c-1.7-1.3-4,0.5-3.2,2.4l3.5,9.3c0.5,1.4-0.5,2.9-2,2.9l-10-0.1c-2.1,0-2.9,2.7-1.2,3.9l8.3,5.5
		c1.2,0.8,1.3,2.6,0.1,3.5l-8.1,5.8c-1.7,1.2-0.8,3.9,1.3,3.8l10-0.5c1.5-0.1,2.6,1.4,2.1,2.8l-3.2,9.5c-0.7,2,1.7,3.6,3.3,2.3
		l7.8-6.2c1.2-0.9,2.9-0.4,3.3,1l3,9.5c0.6,2,3.5,2,4-0.1l2.6-9.6c0.4-1.4,2.1-2,3.3-1.1l8,5.9c1.7,1.3,4-0.5,3.2-2.4l-3.5-9.3
		c-0.5-1.4,0.5-2.9,2-2.9l10,0.1C682.9,508.7,683.7,506,681.9,504.9z M676.4,507.1l-8.4-0.1c-1.3,0-2.1,1.2-1.7,2.4l3,7.9
		c0.6,1.7-1.3,3.1-2.7,2.1l-6.8-5c-1-0.7-2.4-0.2-2.8,1l-2.2,8.1c-0.5,1.7-2.9,1.8-3.4,0.1l-2.5-8c-0.4-1.2-1.8-1.6-2.8-0.9
		l-6.6,5.3c-1.4,1.1-3.4-0.3-2.8-2l2.7-8c0.4-1.2-0.5-2.4-1.8-2.3l-8.4,0.4c-1.8,0.1-2.6-2.2-1.1-3.2l6.9-4.9c1-0.7,1-2.2-0.1-2.9
		l-7-4.6c-1.5-1-0.8-3.3,1-3.3l8.4,0.1c1.3,0,2.1-1.2,1.7-2.4l-3-7.9c-0.6-1.7,1.3-3.1,2.7-2.1l6.8,5c1,0.7,2.4,0.2,2.8-1l2.2-8.1
		c0.5-1.7,2.9-1.8,3.4-0.1l2.5,8c0.4,1.2,1.8,1.6,2.8,0.9l6.6-5.3c1.4-1.1,3.4,0.3,2.8,2l-2.7,8c-0.4,1.2,0.5,2.4,1.8,2.3l8.4-0.4
		c1.8-0.1,2.6,2.2,1.1,3.2l-6.9,4.9c-1,0.7-1,2.2,0.1,2.9l7,4.6C678.8,504.8,678.1,507.1,676.4,507.1z"/>
	<path id="XMLID_54_" class="st8" d="M351.9,328.5l-8.4-5.5c-1.2-0.8-1.3-2.6-0.1-3.5l8.2-5.8c1.7-1.2,0.8-4-1.3-3.9l-10.1,0.5
		c-1.5,0.1-2.6-1.4-2.1-2.8l3.2-9.5c0.7-2-1.7-3.7-3.3-2.3l-7.9,6.3c-1.2,0.9-2.9,0.4-3.4-1l-3-9.6c-0.6-2-3.5-2-4.1,0.1L317,301
		c-0.4,1.4-2.1,2-3.3,1.1l-8.1-6c-1.7-1.3-4,0.5-3.3,2.5l3.5,9.4c0.5,1.4-0.5,2.9-2,2.9l-10.1-0.1c-2.1,0-3,2.7-1.2,3.9l8.4,5.5
		c1.2,0.8,1.3,2.6,0.1,3.5l-8.2,5.8c-1.7,1.2-0.8,4,1.3,3.9l10.1-0.5c1.5-0.1,2.6,1.4,2.1,2.8l-3.2,9.5c-0.7,2,1.7,3.7,3.3,2.3
		l7.9-6.3c1.2-0.9,2.9-0.4,3.4,1l3,9.6c0.6,2,3.5,2,4.1-0.1l2.7-9.7c0.4-1.4,2.1-2,3.3-1.1l8.1,6c1.7,1.3,4-0.5,3.3-2.5l-3.5-9.4
		c-0.5-1.4,0.5-2.9,2-2.9l10.1,0.1C352.9,332.4,353.7,329.7,351.9,328.5z M346.3,330.7l-8.5-0.1c-1.3,0-2.1,1.2-1.7,2.4l3,7.9
		c0.6,1.7-1.3,3.1-2.7,2.1l-6.8-5.1c-1-0.8-2.5-0.2-2.8,1l-2.3,8.2c-0.5,1.7-2.9,1.8-3.4,0.1l-2.5-8.1c-0.4-1.2-1.8-1.7-2.8-0.9
		l-6.6,5.3c-1.4,1.1-3.4-0.3-2.8-2l2.7-8.1c0.4-1.2-0.5-2.4-1.8-2.4l-8.5,0.4c-1.8,0.1-2.6-2.2-1.1-3.3l6.9-4.9c1-0.7,1-2.3-0.1-3
		l-7.1-4.7c-1.5-1-0.8-3.3,1-3.3l8.5,0.1c1.3,0,2.1-1.2,1.7-2.4l-3-7.9c-0.6-1.7,1.3-3.1,2.7-2.1l6.8,5.1c1,0.8,2.5,0.2,2.8-1
		l2.3-8.2c0.5-1.7,2.9-1.8,3.4-0.1l2.5,8.1c0.4,1.2,1.8,1.7,2.8,0.9l6.6-5.3c1.4-1.1,3.4,0.3,2.8,2l-2.7,8.1
		c-0.4,1.2,0.5,2.4,1.8,2.4l8.5-0.4c1.8-0.1,2.6,2.2,1.1,3.3l-6.9,4.9c-1,0.7-1,2.3,0.1,3l7.1,4.7
		C348.8,328.4,348.1,330.7,346.3,330.7z"/>
	<path id="XMLID_6_" class="st8" d="M95.8,48.9l-8.4-5.5c-1.2-0.8-1.3-2.6-0.1-3.5l8.2-5.8c1.7-1.2,0.8-4-1.3-3.9l-10.1,0.5
		c-1.5,0.1-2.6-1.4-2.1-2.8l3.2-9.5c0.7-2-1.7-3.7-3.3-2.3L74,22.2c-1.2,0.9-2.9,0.4-3.4-1l-3-9.6c-0.6-2-3.5-2-4.1,0.1l-2.7,9.7
		c-0.4,1.4-2.1,2-3.3,1.1l-8.1-6c-1.7-1.3-4,0.5-3.3,2.5l3.5,9.4c0.5,1.4-0.5,2.9-2,2.9l-10.1-0.1c-2.1,0-3,2.7-1.2,3.9l8.4,5.5
		c1.2,0.8,1.3,2.6,0.1,3.5L36.8,50c-1.7,1.2-0.8,4,1.3,3.9l10.1-0.5c1.5-0.1,2.6,1.4,2.1,2.8l-3.2,9.5c-0.7,2,1.7,3.7,3.3,2.3
		l7.9-6.3c1.2-0.9,2.9-0.4,3.4,1l3,9.6c0.6,2,3.5,2,4.1-0.1l2.7-9.7c0.4-1.4,2.1-2,3.3-1.1l8.1,6c1.7,1.3,4-0.5,3.3-2.5l-3.5-9.4
		c-0.5-1.4,0.5-2.9,2-2.9l10.1,0.1C96.7,52.8,97.6,50.1,95.8,48.9z M90.2,51.1L81.7,51c-1.3,0-2.1,1.2-1.7,2.4l3,7.9
		c0.6,1.7-1.3,3.1-2.7,2.1l-6.8-5.1c-1-0.8-2.5-0.2-2.8,1l-2.3,8.2c-0.5,1.7-2.9,1.8-3.4,0.1l-2.5-8.1c-0.4-1.2-1.8-1.7-2.8-0.9
		L52.9,64c-1.4,1.1-3.4-0.3-2.8-2l2.7-8.1c0.4-1.2-0.5-2.4-1.8-2.4L42.5,52c-1.8,0.1-2.6-2.2-1.1-3.3l6.9-4.9c1-0.7,1-2.3-0.1-3
		l-7.1-4.7c-1.5-1-0.8-3.3,1-3.3l8.5,0.1c1.3,0,2.1-1.2,1.7-2.4l-3-7.9c-0.6-1.7,1.3-3.1,2.7-2.1l6.8,5.1c1,0.8,2.5,0.2,2.8-1
		l2.3-8.2c0.5-1.7,2.9-1.8,3.4-0.1l2.5,8.1c0.4,1.2,1.8,1.7,2.8,0.9l6.6-5.3c1.4-1.1,3.4,0.3,2.8,2L79.6,30
		c-0.4,1.2,0.5,2.4,1.8,2.4l8.5-0.4c1.8-0.1,2.6,2.2,1.1,3.3L84,40.2c-1,0.7-1,2.3,0.1,3l7.1,4.7C92.7,48.8,92,51.1,90.2,51.1z"/>
	<path id="XMLID_141_" class="st8" d="M463.7,128.4l-8.4-5.5c-1.2-0.8-1.3-2.6-0.1-3.5l8.2-5.8c1.7-1.2,0.8-4-1.3-3.9l-10.1,0.5
		c-1.5,0.1-2.6-1.4-2.1-2.8l3.2-9.5c0.7-2-1.7-3.7-3.3-2.3l-7.9,6.3c-1.2,0.9-2.9,0.4-3.4-1l-3-9.6c-0.6-2-3.5-2-4.1,0.1l-2.7,9.7
		c-0.4,1.4-2.1,2-3.3,1.1l-8.1-6c-1.7-1.3-4,0.5-3.3,2.5l3.5,9.4c0.5,1.4-0.5,2.9-2,2.9l-10.1-0.1c-2.1,0-3,2.7-1.2,3.9l8.4,5.5
		c1.2,0.8,1.3,2.6,0.1,3.5l-8.2,5.8c-1.7,1.2-0.8,4,1.3,3.9l10.1-0.5c1.5-0.1,2.6,1.4,2.1,2.8l-3.2,9.5c-0.7,2,1.7,3.7,3.3,2.3
		l7.9-6.3c1.2-0.9,2.9-0.4,3.4,1l3,9.6c0.6,2,3.5,2,4.1-0.1l2.7-9.7c0.4-1.4,2.1-2,3.3-1.1l8.1,6c1.7,1.3,4-0.5,3.3-2.5l-3.5-9.4
		c-0.5-1.4,0.5-2.9,2-2.9l10.1,0.1C464.6,132.3,465.5,129.5,463.7,128.4z M458.1,130.6l-8.5-0.1c-1.3,0-2.1,1.2-1.7,2.4l3,7.9
		c0.6,1.7-1.3,3.1-2.7,2.1l-6.8-5.1c-1-0.8-2.5-0.2-2.8,1l-2.3,8.2c-0.5,1.7-2.9,1.8-3.4,0.1l-2.5-8.1c-0.4-1.2-1.8-1.7-2.8-0.9
		l-6.6,5.3c-1.4,1.1-3.4-0.3-2.8-2l2.7-8.1c0.4-1.2-0.5-2.4-1.8-2.4l-8.5,0.4c-1.8,0.1-2.6-2.2-1.1-3.3l6.9-4.9c1-0.7,1-2.3-0.1-3
		l-7.1-4.7c-1.5-1-0.8-3.3,1-3.3l8.5,0.1c1.3,0,2.1-1.2,1.7-2.4l-3-7.9c-0.6-1.7,1.3-3.1,2.7-2.1l6.8,5.1c1,0.8,2.5,0.2,2.8-1
		l2.3-8.2c0.5-1.7,2.9-1.8,3.4-0.1l2.5,8.1c0.4,1.2,1.8,1.7,2.8,0.9l6.6-5.3c1.4-1.1,3.4,0.3,2.8,2l-2.7,8.1
		c-0.4,1.2,0.5,2.4,1.8,2.4l8.5-0.4c1.8-0.1,2.6,2.2,1.1,3.3l-6.9,4.9c-1,0.7-1,2.3,0.1,3l7.1,4.7
		C460.6,128.3,459.9,130.6,458.1,130.6z"/>
	<path id="XMLID_60_" class="st8" d="M827.7,411.7l-8.5-5.6c-1.3-0.8-1.3-2.7-0.1-3.5l8.2-5.9c1.7-1.2,0.8-4-1.3-3.9l-10.1,0.5
		c-1.5,0.1-2.6-1.4-2.1-2.8l3.2-9.6c0.7-2-1.7-3.7-3.4-2.4l-7.9,6.3c-1.2,0.9-2.9,0.4-3.4-1l-3-9.7c-0.6-2-3.5-2-4.1,0.1l-2.7,9.8
		c-0.4,1.5-2.1,2-3.3,1.2l-8.1-6c-1.7-1.3-4,0.5-3.3,2.5l3.6,9.5c0.5,1.4-0.5,2.9-2,2.9l-10.1-0.1c-2.1,0-3,2.8-1.2,3.9l8.5,5.6
		c1.3,0.8,1.3,2.7,0.1,3.5l-8.2,5.9c-1.7,1.2-0.8,4,1.3,3.9l10.1-0.5c1.5-0.1,2.6,1.4,2.1,2.8l-3.2,9.6c-0.7,2,1.7,3.7,3.4,2.4
		l7.9-6.3c1.2-0.9,2.9-0.4,3.4,1l3,9.7c0.6,2,3.5,2,4.1-0.1l2.7-9.8c0.4-1.5,2.1-2,3.3-1.2l8.1,6c1.7,1.3,4-0.5,3.3-2.5l-3.6-9.5
		c-0.5-1.4,0.5-2.9,2-2.9l10.1,0.1C828.6,415.7,829.5,412.9,827.7,411.7z M822,413.9l-8.5-0.1c-1.3,0-2.2,1.3-1.7,2.4l3,8
		c0.6,1.7-1.3,3.2-2.8,2.1l-6.9-5.1c-1-0.8-2.5-0.3-2.8,1l-2.3,8.2c-0.5,1.7-2.9,1.8-3.5,0.1l-2.6-8.1c-0.4-1.2-1.9-1.7-2.9-0.9
		l-6.7,5.3c-1.4,1.1-3.4-0.3-2.8-2l2.7-8.1c0.4-1.2-0.5-2.4-1.8-2.4l-8.5,0.4c-1.8,0.1-2.6-2.2-1.1-3.3l7-5c1-0.7,1-2.3-0.1-3
		l-7.1-4.7c-1.5-1-0.8-3.3,1-3.3l8.5,0.1c1.3,0,2.2-1.3,1.7-2.4l-3-8c-0.6-1.7,1.3-3.2,2.8-2.1l6.9,5.1c1,0.8,2.5,0.3,2.8-1l2.3-8.2
		c0.5-1.7,2.9-1.8,3.5-0.1l2.6,8.1c0.4,1.2,1.9,1.7,2.9,0.9l6.7-5.3c1.4-1.1,3.4,0.3,2.8,2l-2.7,8.1c-0.4,1.2,0.5,2.4,1.8,2.4
		l8.5-0.4c1.8-0.1,2.6,2.2,1.1,3.3l-7,5c-1,0.7-1,2.3,0.1,3l7.1,4.7C824.5,411.6,823.8,414,822,413.9z"/>
	<path id="XMLID_76_" class="st8" d="M81.9,255.2l-8.5-5.6c-1.3-0.8-1.3-2.7-0.1-3.5l8.2-5.9c1.7-1.2,0.8-4-1.3-3.9l-10.1,0.5
		c-1.5,0.1-2.6-1.4-2.1-2.8l3.2-9.6c0.7-2-1.7-3.7-3.4-2.4l-7.9,6.3c-1.2,0.9-2.9,0.4-3.4-1l-3-9.7c-0.6-2-3.5-2-4.1,0.1l-2.7,9.8
		c-0.4,1.5-2.1,2-3.3,1.2l-8.1-6c-1.7-1.3-4,0.5-3.3,2.5l3.6,9.5c0.5,1.4-0.5,2.9-2,2.9l-10.1-0.1c-2.1,0-3,2.8-1.2,3.9l8.5,5.6
		c1.3,0.8,1.3,2.7,0.1,3.5l-8.2,5.9c-1.7,1.2-0.8,4,1.3,3.9l10.1-0.5c1.5-0.1,2.6,1.4,2.1,2.8l-3.2,9.6c-0.7,2,1.7,3.7,3.4,2.4
		l7.9-6.3c1.2-0.9,2.9-0.4,3.4,1l3,9.7c0.6,2,3.5,2,4.1-0.1l2.7-9.8c0.4-1.5,2.1-2,3.3-1.2l8.1,6c1.7,1.3,4-0.5,3.3-2.5l-3.6-9.5
		c-0.5-1.4,0.5-2.9,2-2.9l10.1,0.1C82.9,259.2,83.7,256.4,81.9,255.2z M76.3,257.4l-8.5-0.1c-1.3,0-2.2,1.3-1.7,2.4l3,8
		c0.6,1.7-1.3,3.2-2.8,2.1l-6.9-5.1c-1-0.8-2.5-0.3-2.8,1l-2.3,8.2c-0.5,1.7-2.9,1.8-3.5,0.1l-2.6-8.1c-0.4-1.2-1.9-1.7-2.9-0.9
		l-6.7,5.3c-1.4,1.1-3.4-0.3-2.8-2l2.7-8.1c0.4-1.2-0.5-2.4-1.8-2.4l-8.5,0.4c-1.8,0.1-2.6-2.2-1.1-3.3l7-5c1-0.7,1-2.3-0.1-3
		l-7.1-4.7c-1.5-1-0.8-3.3,1-3.3l8.5,0.1c1.3,0,2.2-1.3,1.7-2.4l-3-8c-0.6-1.7,1.3-3.2,2.8-2.1l6.9,5.1c1,0.8,2.5,0.3,2.8-1l2.3-8.2
		c0.5-1.7,2.9-1.8,3.5-0.1l2.6,8.1c0.4,1.2,1.9,1.7,2.9,0.9l6.7-5.3c1.4-1.1,3.4,0.3,2.8,2l-2.7,8.1c-0.4,1.2,0.5,2.4,1.8,2.4
		l8.5-0.4c1.8-0.1,2.6,2.2,1.1,3.3l-7,5c-1,0.7-1,2.3,0.1,3l7.1,4.7C78.8,255.1,78.1,257.5,76.3,257.4z"/>
	<path id="XMLID_1395_" class="st9" d="M794.6,753.5c19.8-0.1,35.9,15.7,36.1,35.5c0.2,19.7-15.9,36-35.5,36.1
		c-19.7,0.1-35.9-15.9-36-35.6C759,769.6,774.9,753.6,794.6,753.5z M794.4,806c9.2,0.3,16.8-6.9,17.2-16.1c0.4-9.1-6.9-16.9-16-17.3
		c-9.3-0.4-17.3,7-17.6,16.4C777.8,797.9,785.3,805.7,794.4,806z"/>
	<path id="XMLID_87_" class="st9" d="M528,162.1c19.8-0.1,35.9,15.7,36.1,35.5c0.2,19.7-15.9,36-35.5,36.1
		c-19.7,0.1-35.9-15.9-36-35.6C492.4,178.2,508.2,162.2,528,162.1z M527.8,214.6c9.2,0.3,16.8-6.9,17.2-16.1
		c0.4-9.1-6.9-16.9-16-17.3c-9.3-0.4-17.3,7-17.6,16.4C511.2,206.5,518.7,214.3,527.8,214.6z"/>
	<path id="XMLID_1386_" class="st10" d="M104.3,1031c-11.5-9-22.7-17.5-33.6-26.3c-1.5-1.2-2.7-3.9-2.7-5.9
		c-0.3-8.6-0.4-17.2,0.1-25.7c0.1-2.5,1.8-5.4,3.6-7.1c3.8-3.6,8.1-6.8,12.4-9.8c4.1-2.8,7.5-5.8,6.3-11.4c-0.1-0.5,0.1-1.1,0.2-1.6
		c1.4-4.6,9.1-7.7,16.6-6.6c7.8,1.1,11.4,4,11.2,10.1c-0.1,3.5,1,5.7,3.8,7.6c4.3,3,8.2,6.8,12.6,9.6c4.7,3,6.5,6.6,6.1,12.1
		c-0.5,7.6,0,15.3-0.2,23c-0.1,1.8-0.8,4.1-2,5.1C127.4,1013.2,116,1021.9,104.3,1031z M138.3,970.6c-11.2,8.7-21.4,16.6-31.5,24.5
		c-0.6,0.5-1.2,1.5-1.2,2.3c-0.1,9.5-0.1,19-0.1,29.6c10.9-8.5,20.8-16.2,30.6-24c1.2-1,2.1-3,2.1-4.6
		C138.4,989.6,138.3,980.9,138.3,970.6z M103.1,1027c0-10.4,0.1-19.3-0.1-28.2c0-1.6-1.4-3.7-2.7-4.8c-6.5-5.3-13.2-10.4-19.8-15.5
		c-3.1-2.4-6.2-4.7-10.1-7.7c0,10.3-0.1,19.4,0.1,28.5c0,1.1,0.7,2.6,1.5,3.2C81.9,1010.5,91.9,1018.3,103.1,1027z M119,955
		c-2.6,8.7,5.9,9.1,8.6,14c-7.7,5.9-15.4,11.8-23.3,17.8c-8-6.2-15.7-12.1-23.6-18.1c9.8-8.3,9.8-8.3,8.8-13.7
		C83.7,959.6,78,964,72,968.7c11.1,8.7,21.6,16.8,32.3,25.2c10.7-8.4,21.4-16.7,32.3-25.2C130.4,963.9,125,959.7,119,955z
		 M105,950.8c2-0.6,4.9-1,7.5-2.2c1.4-0.7,3.1-2.6,3.1-3.9c0-1.3-1.7-3.5-3.1-3.8c-4.1-0.9-8.5-1.8-12.7-1.3
		c-2.6,0.3-4.8,3.1-7.2,4.9c2.2,1.8,4.3,3.8,6.7,5.3C100.6,950.6,102.5,950.4,105,950.8z M91.8,951.1c0.8,4.2,0.4,8.1,2.2,10.2
		c5,6.2,10.8,11.7,16.5,17.6c2.4-1.9,3.9-3.1,5.4-4.3C108,967,100.6,959.7,91.8,951.1z M100,952.8c4.9,5.3,10,10.8,15.1,16.4
		C117.2,958.4,112.2,953.2,100,952.8z M93.1,965.2c-4,10.7,5.1,13.3,11.2,18.3c1.5-1.2,2.8-2.2,4-3.2
		C103.1,975.1,98.1,970.2,93.1,965.2z"/>
	<path id="XMLID_1371_" class="st11" d="M830.9,1019.5c-15.7,0-30.6,0.1-45.5-0.1c-1.4,0-3-1.2-4.1-2.3c-12.9-12-12.9-12-12.9-29.8
		c0-1.1-0.1-2.2,0-3.3c0.5-4.5-0.4-7.9-4.6-11.1c-6.8-5.2-6.4-15.4-0.3-21.2c6.3-5.9,16.4-5.3,21.6,1.9c2,2.7,3.9,3.9,7.2,3.5
		c2-0.2,4.1,0.3,6-0.1c12.9-2.5,22.5,2.6,29.8,12.9c1.1,1.6,2.6,3.4,2.6,5.1C831,989.6,830.9,1004.1,830.9,1019.5z M773.8,974.7
		c6.7-0.1,12.2-5.5,12.2-12.2c0-6.8-5.8-12.5-12.6-12.4c-6.9,0.1-12.5,6-12.2,12.8C761.5,969.6,767.1,974.8,773.8,974.7z
		 M772.8,1004.5c6.2,10.6,14.8,14.6,26.3,12.9c4.3-0.6,8.7-0.1,13.1-0.1c4.4,0,8.8,0,13.3,0c0.3-0.6,0.6-1.2,0.9-1.8
		c-2.9-2.5-5.9-4.8-8.6-7.4c-4.8-4.7-12.6-5.3-18-1.2c-3.7,2.8-8.2,3.9-11.5,0.7C783.4,1003,778.2,1004.7,772.8,1004.5z
		 M802.6,1000.4c0.3,0.4,0.7,0.9,1,1.3c3,0,6,0,9.3,0c0-14.1,0-28,0-42.2c-7.5,0-14.6-0.2-21.7,0.2c-1.2,0.1-2.2,2.2-3.3,3.3
		c0.3,0.5,0.7,1,1,1.5c6.3,0,12.6,0,19.1,0c0,11.2,0,21.8,0,30.7C805.5,997.6,804.1,999,802.6,1000.4z M805.7,980.1
		c0-4.5,0-8.8,0-14.5c-6.8,4-16-4.1-20.4,6C790.2,979.8,796.8,982.4,805.7,980.1z M777.8,993.8c5.7,3.8,7.8-1.6,11.2-3.3
		c3.4-1.8,4.3-6.4,1.8-9.4c-1.6-1.9-3.5-3.8-5.4-5.3c-0.9-0.7-2.8-1.4-3.6-1c-1.6,0.8-3.7,2.4-3.8,3.8
		C777.5,983.8,777.8,989.1,777.8,993.8z M793.5,1006.9c4.1-0.1,7.5-3.7,7.3-7.9c-0.2-4.1-3.8-7.4-8-7.2c-3.9,0.2-7.1,3.7-7.1,7.6
		C785.8,1003.4,789.5,1007,793.5,1006.9z M775.6,996.9c0-5.7,0-10.7,0-15.8c-0.1-4.1-0.1-4.1-4.4-3.2c0,8,0,15.9,0,23.9
		c4.2,0,8,0,12.2,0c-0.1-1.6-0.2-2.9-0.3-4.3C780.6,997.3,778.4,997.1,775.6,996.9z M805.9,983.3c-4.2,0-7.7,0-11.2,0
		c-0.5,5.4,5.5,11.3,11.2,11.1C805.9,990.9,805.9,987.3,805.9,983.3z M816.3,998.4c-0.2,8.5,7.4,11,11.9,15.8
		C828.3,1005.9,820.7,1003.4,816.3,998.4z M828.2,986.7c-0.2-8-7.6-10.6-12.2-17.1C815.8,976.2,815.8,976.2,828.2,986.7z
		 M827.9,977.8c-0.1-8.1-7.3-10.8-11.7-15.6C815.9,970.4,823.9,972.6,827.9,977.8z M827.9,995.8c0.1-8.2-7.3-10.7-11.7-15.6
		C816,988.5,823.8,990.8,827.9,995.8z M815.3,988.4c0.9,9.2,8.3,11.6,12.8,17.8C828.5,999.8,826,996.6,815.3,988.4z"/>
	<path id="XMLID_176_" class="st11" d="M474,1303.2c-15.7,0-30.6,0.1-45.5-0.1c-1.4,0-3-1.2-4.1-2.3c-12.9-12-12.9-12-12.9-29.8
		c0-1.1-0.1-2.2,0-3.3c0.5-4.5-0.4-7.9-4.6-11.1c-6.8-5.2-6.4-15.4-0.3-21.2c6.3-5.9,16.4-5.3,21.6,1.9c2,2.7,3.9,3.9,7.2,3.5
		c2-0.2,4.1,0.3,6-0.1c12.9-2.5,22.5,2.6,29.8,12.9c1.1,1.6,2.6,3.4,2.6,5.1C474.1,1273.3,474,1287.8,474,1303.2z M416.9,1258.4
		c6.7-0.1,12.2-5.5,12.2-12.2c0-6.8-5.8-12.5-12.6-12.4c-6.9,0.1-12.5,6-12.2,12.8C404.6,1253.2,410.2,1258.5,416.9,1258.4z
		 M415.9,1288.2c6.2,10.6,14.8,14.6,26.3,12.9c4.3-0.6,8.7-0.1,13.1-0.1c4.4,0,8.8,0,13.3,0c0.3-0.6,0.6-1.2,0.9-1.8
		c-2.9-2.5-5.9-4.8-8.6-7.4c-4.8-4.7-12.6-5.3-18-1.2c-3.7,2.8-8.2,3.9-11.5,0.7C426.5,1286.7,421.3,1288.4,415.9,1288.2z
		 M445.7,1284.1c0.3,0.4,0.7,0.9,1,1.3c3,0,6,0,9.3,0c0-14.1,0-28,0-42.2c-7.5,0-14.6-0.2-21.7,0.2c-1.2,0.1-2.2,2.2-3.3,3.3
		c0.3,0.5,0.7,1,1,1.5c6.3,0,12.6,0,19.1,0c0,11.2,0,21.8,0,30.7C448.6,1281.3,447.2,1282.7,445.7,1284.1z M448.8,1263.8
		c0-4.5,0-8.8,0-14.5c-6.8,4-16-4.1-20.4,6C433.3,1263.4,439.9,1266.1,448.8,1263.8z M420.9,1277.5c5.7,3.8,7.8-1.6,11.2-3.3
		c3.4-1.8,4.3-6.4,1.8-9.4c-1.6-1.9-3.5-3.8-5.4-5.3c-0.9-0.7-2.8-1.4-3.6-1c-1.6,0.8-3.7,2.4-3.8,3.8
		C420.6,1267.5,420.9,1272.8,420.9,1277.5z M436.6,1290.6c4.1-0.1,7.5-3.7,7.3-7.9c-0.2-4.1-3.8-7.4-8-7.2c-3.9,0.2-7.1,3.7-7.1,7.6
		C428.9,1287.1,432.6,1290.7,436.6,1290.6z M418.7,1280.6c0-5.7,0-10.7,0-15.8c-0.1-4.1-0.1-4.1-4.4-3.2c0,8,0,15.9,0,23.9
		c4.2,0,8,0,12.2,0c-0.1-1.6-0.2-2.9-0.3-4.3C423.7,1281,421.5,1280.8,418.7,1280.6z M449,1267c-4.2,0-7.7,0-11.2,0
		c-0.5,5.4,5.5,11.3,11.2,11.1C449,1274.6,449,1271,449,1267z M459.4,1282.1c-0.2,8.5,7.4,11,11.9,15.8
		C471.3,1289.6,463.8,1287,459.4,1282.1z M471.2,1270.4c-0.2-8-7.6-10.6-12.2-17.1C458.9,1259.9,458.9,1259.9,471.2,1270.4z
		 M471,1261.5c-0.1-8.1-7.3-10.8-11.7-15.6C459,1254,467,1256.3,471,1261.5z M471,1279.5c0.1-8.2-7.3-10.7-11.7-15.6
		C459.1,1272.2,466.9,1274.4,471,1279.5z M458.4,1272.1c0.9,9.2,8.3,11.6,12.8,17.8C471.6,1283.5,469.1,1280.2,458.4,1272.1z"/>
	<path id="XMLID_1358_" class="st12" d="M658.1,1111.3c-4.9,2.7-7.9,10.8-13.7,5c-5.8-5.8,2.5-8.7,4.6-12.9
		c-5.5-7.6-4.1-21.6,2.8-28.4c6.4-6.4,13.4-12.4,19.2-19.4c5.9-7.1,12.9-10.2,21.7-9.7c3.4,0.2,6.8,1.2,10.2,2.6
		c4-1,7.1-8.6,12.6-2.8c5,5.2-1.5,8.1-3.9,11.6c5.5,8.2,4.2,21.6-2.7,28.6c-7.8,7.9-15.8,15.6-23.5,23.6c-3,3.1-6.1,4.9-10.4,4.9
		c-2.2,0-4.4,0.2-6.5,0.6C664.2,1115.8,660.4,1115.9,658.1,1111.3z M649.8,1101.5c0.8,0.2,1.6,0.3,2.4,0.5c2-2.4,3.8-4.9,5.9-7.1
		c2.6-2.6,5.6-2.7,8.2,0c2.4,2.5,2,5.4-0.4,7.8c-2.3,2.2-4.9,4.1-7.4,6.1c0.3,0.8,0.7,1.7,1,2.5c2.5,0.5,5.1,1.4,7.7,1.6
		c2.3,0.2,4.7-0.6,7.1-0.6c3.9,0,4.8-1.8,5.7-5.5c2-8.2-0.1-14.5-6.9-19.4c-1.7-1.3-2.9-3.4-4.7-4.5c-2-1.2-4.4-2.5-6.6-2.4
		c-12.4,0.6-12.6,0.7-13.7,13.2C647.6,1096.1,649.1,1098.8,649.8,1101.5z M682.3,1109.7c7.9-8.1,14.9-16.2,23-23.1
		c6.5-5.5,7.5-12.1,7.2-21.6c-7.6,8-13.9,15.3-20.9,21.6C684.9,1092.6,680.7,1099.1,682.3,1109.7z M651.9,1077.9
		c0.2,0.5,0.4,1,0.5,1.5c4.6-0.9,10.4-0.3,13.4-2.9c10-8.5,19-18.3,28.3-27.5c-0.3-0.5-0.5-1-0.8-1.5c-4.6,0.9-10.5,0.4-13.6,3.1
		C670,1059,661.1,1068.7,651.9,1077.9z M681.5,1092.1c4.2-1.2,29.7-27.1,29.8-30.5C701.4,1071.8,691.4,1082.1,681.5,1092.1z
		 M654.6,1111.3c3.2-3.3,6.7-6.5,9.6-10.1c0.9-1.1,0.3-3.4,0.4-5.2c-1.8,0.2-4.1-0.3-5.2,0.6c-3.6,3-6.7,6.5-9.6,9.5
		C651.5,1107.9,652.9,1109.4,654.6,1111.3z M669.4,1080.5c-0.5-0.5-0.9-0.9-1.4-1.4c10.3-10.1,20.6-20.2,30.8-30.3
		c0.4,0.4,0.8,0.8,1.2,1.2C689.8,1060.2,679.6,1070.4,669.4,1080.5z M678.4,1089.3c-0.5-0.5-0.9-0.9-1.4-1.4
		c10.4-9.9,20.8-19.9,31.1-29.8c0.2,0.2,0.5,0.5,0.7,0.7C698.7,1069,688.5,1079.2,678.4,1089.3z M671.9,1082.9
		c-0.4-0.5-0.9-0.9-1.3-1.4c10.2-10.1,20.3-20.1,30.5-30.2c0.5,0.6,1.1,1.1,1.6,1.7C692.4,1062.9,682.2,1072.9,671.9,1082.9z
		 M675.4,1086.4c-0.5-0.5-0.9-0.9-1.4-1.4c10.2-10,20.4-20,30.6-30c0.2,0.2,0.4,0.4,0.6,0.6C695.3,1065.8,685.4,1076.1,675.4,1086.4
		z M710.1,1056.8c2-3.4,3.6-5.8,4.7-8.4c0.2-0.4-2.4-2.7-2.9-2.4c-2.6,1.3-4.9,3.1-8,5.2C706.2,1053.1,707.6,1054.5,710.1,1056.8z
		 M648.1,1107.9c-1.6,2.1-3.3,3.4-3.3,4.6c0.1,1.3,2,3.3,3.1,3.3c1.2,0,3.2-1.9,3.4-3.1C651.5,1111.5,649.7,1110.1,648.1,1107.9z"/>
	<path id="XMLID_1355_" class="st13" d="M679.9,674.3c5.4-4.4,9.2-12.6,17.2-9.4c5.7,2.3,10.2,7.5,16.2,12.1
		c-5.9,5.4-10.8,10-15.9,14.7c5.3,4.8,10.2,9.3,16.5,15.1c-6.7,4.9-11.5,10-17.5,12.3c-7.8,3.1-11.3-5.3-16.6-9.5
		c-5.4,4.4-9.5,13-17.8,9.4c-5.5-2.3-9.8-7.6-15.3-12.2c5.7-5.2,10.6-9.8,15.9-14.7c-5.4-4.9-10.4-9.4-16.7-15
		c6.6-4.9,11.4-10,17.3-12.4C671,661.7,674.4,670.3,679.9,674.3z M650.7,705.9c3.6,3.9,6.7,7.1,10.7,11.3c4.4-5,8.8-10.1,13.8-15.9
		c5.3,5.6,9.9,10.5,14.2,15.2c3.7-3.4,7-6.4,11.2-10.2c-5.3-4.8-10.3-9.2-16.5-14.8c5.7-5,10.9-9.4,15-13
		c-3.5-4.3-6.3-7.8-10.2-12.5c-5.1,5.7-9.5,10.7-14.8,16.6c-4.8-5.5-9.2-10.5-13.2-15c-4,3.6-7.3,6.6-11.8,10.7
		c5.5,4.7,10.6,9.1,16.6,14.2C660.2,697.5,655.2,702,650.7,705.9z"/>
	<path id="XMLID_122_" class="st13" d="M296.8,1206.4c5.4-4.4,9.2-12.6,17.2-9.4c5.7,2.3,10.2,7.5,16.2,12.1
		c-5.9,5.4-10.8,10-15.9,14.7c5.3,4.8,10.2,9.3,16.5,15.1c-6.7,4.9-11.5,10-17.5,12.3c-7.8,3.1-11.3-5.3-16.6-9.5
		c-5.4,4.4-9.5,13-17.8,9.4c-5.5-2.3-9.8-7.6-15.3-12.2c5.7-5.2,10.6-9.8,15.9-14.7c-5.4-4.9-10.4-9.4-16.7-15
		c6.6-4.9,11.4-10,17.3-12.4C288,1193.8,291.3,1202.4,296.8,1206.4z M267.7,1238c3.6,3.9,6.7,7.1,10.7,11.3
		c4.4-5,8.8-10.1,13.8-15.9c5.3,5.6,9.9,10.5,14.2,15.2c3.7-3.4,7-6.4,11.2-10.2c-5.3-4.8-10.3-9.2-16.5-14.8c5.7-5,10.9-9.4,15-13
		c-3.5-4.3-6.3-7.8-10.2-12.5c-5.1,5.7-9.5,10.7-14.8,16.6c-4.8-5.5-9.2-10.5-13.2-15c-4,3.6-7.3,6.6-11.8,10.7
		c5.5,4.7,10.6,9.1,16.6,14.2C277.1,1229.6,272.1,1234.1,267.7,1238z"/>
	<path id="XMLID_1345_" class="st10" d="M435.8,1088.9c-7.8,4.2-9.2-2.7-12.8-6.3c-4.6-4.6-2.3-9.8-2.2-15.1c-2,0-3.8,0-5.9,0
		c-0.8-7.6-1.5-15-2.3-23.1c8,0.8,15.5,1.5,23.4,2.2c0,2,0,3.7,0,5.9c6.2-0.8,12-1.3,17.1,3.3c3.5,3.2,8.6,5,4.8,11.1
		c1.2,0.3,1.8,0.6,2.2,0.5c9.6-4.1,16.7,1.7,23.8,6.5c1.4,0.9,2.5,3.5,2.3,5.2c-1.2,9.8-2.9,19.5-4.1,29.2c-0.4,3.1-1.8,4.2-4.8,4.6
		c-10.1,1.3-20.2,2.9-30.3,4.3c-1.2,0.2-3.1-0.3-3.7-1.2c-4.7-7.5-11.7-14.4-7.3-24.6C436,1091,435.9,1090.6,435.8,1088.9z
		 M477.7,1108.9c0.6-0.4,1.2-0.9,1.8-1.3c1.5-9.6,3-19.3,4.3-29c0.1-0.9-0.8-2.4-1.6-3c-3.8-2.5-7.7-4.8-12.2-7.5
		c-1.5,8.8-3,17.1-4.3,25.3c-0.1,0.8,0.2,1.9,0.8,2.5C470.2,1100.2,474,1104.5,477.7,1108.9z M477.6,1110.4
		c-4.7-4.7-8.3-8.5-12.1-12.1c-0.7-0.7-1.9-1.5-2.8-1.4c-8.5,1.3-17,2.7-26.2,4.2c2.8,4.5,4.9,8.2,7.3,11.5c0.8,1.1,2.7,2.1,3.9,1.9
		C457.4,1113.4,466.9,1111.9,477.6,1110.4z M467.4,1069.1c-9.7,0.3-9.7,0.3-11.1,7.9c-1.7,9-1.7,9-11.2,10.8
		c-7.6,1.4-8.3,2.5-7.1,10.7c7.5-1.2,15-2.4,22.5-3.8c1-0.2,2.6-1.2,2.8-2.1C464.8,1084.8,466.1,1077,467.4,1069.1z M443.3,1054.5
		c-8,0-8.2,0-9.3,6.9c-0.5,3-2.1,3.6-4.7,4c-6.9,1.2-7.2,1.8-5.7,9.1c4.8-0.6,9.7-0.9,14.5-1.9c1.3-0.2,3-2,3.3-3.3
		C442.3,1064.7,442.7,1059.8,443.3,1054.5z M422.4,1077.4c2.1,3.1,3.5,5.4,5.3,7.4c1.1,1.2,2.8,2.8,4.1,2.6c6.2-0.7,12.3-1.9,18.5-3
		c0.2-0.6,0.5-1.2,0.7-1.8c-4-2.6-7.8-6.5-12.1-7.3C433.9,1074.5,428.5,1076.5,422.4,1077.4z M446.5,1054.4c-5,15.3-3.9,20,6.7,27.4
		c1.1-6.5,2.2-12.6,3.1-18.8c0.1-0.9-0.8-2.3-1.7-3C452,1058,449.2,1056.3,446.5,1054.4z M427.4,1063.4c-3.8-4.1-7.8-8.5-12.1-13.2
		c0.6,4.9,1.1,9.7,1.7,15C421.3,1064.5,425,1063.8,427.4,1063.4z M420.4,1047.4c3.4,3.8,7.4,8.2,11.4,12.7c0.5-3.6,1.1-7.3,1.7-11.4
		C428.2,1048.2,423.5,1047.7,420.4,1047.4z"/>
	<path id="XMLID_1334_" class="st9" d="M364.6,772.5c1.6,14.4-6.7,25.6-11.6,38c-5,12.5-12.7,19-26.2,17.8c-2.3-0.2-4.7-1-6.6-2.2
		c-2-1.2-3.5-3.2-5.1-4.9c-3.8-4.1-10.3-8.1-10.6-12.5c-0.6-8.7-0.4-18.1,4.5-26.5c4.9-8.5,8.9-17.5,13.7-26.1
		c1.1-1.9,3.8-3.4,6-4.2c12.5-4.3,22-0.6,30.1,9.9C364.4,769.3,365.2,768.7,364.6,772.5z M360.3,787.9c2.9-10.9,3.8-20.8-7.1-27.5
		c-0.6-0.4-1.1-0.9-1.5-1.5c-3.8-5.8-9-6.6-15.5-5.5c-9.4,1.6-9.6,1.3-10.3,10.9c-0.2,3.3-0.8,7.6,0.9,9.8
		c4.2,5.4,9.6,9.9,14.6,14.6c0.7,0.6,2,1,2.9,0.9C349.7,789.1,355.1,788.5,360.3,787.9z M337.1,798.1c-2-1.7-4-3.1-5.7-4.7
		c-7.4-7.3-13.6-6.3-18.4,3c-1.7,3.4-3.6,6.7-5.1,10.2c-0.5,1.1-0.5,3,0.1,3.8c4.5,5.2,9.3,10.1,14.5,15.7
		C327.7,816.2,332.1,807.7,337.1,798.1z M326,825c0.3,0.6,0.6,1.1,0.9,1.7c5.1-1.6,13-1.6,14.9-5c4.8-8.6,2.2-17-3.7-20.3
		C334.1,809.3,330,817.2,326,825z M322.4,761.8c-4.4,8.6-8.8,17.1-13.3,26C317,787.5,323,776.1,322.4,761.8z M346,818
		c4.9-9.6,9.4-18.2,13.9-27C352,790.7,345.1,803.9,346,818z M337.1,796.8c3.6-5.7,2.2-8.2-6.4-13.9
		C326.6,790.6,335.6,791.3,337.1,796.8z M351,791.6c-4.9,0.2-9.3-0.1-10.1,4.7c-0.3,2.1,1.8,4.6,3.4,8.2
		C347,799.3,348.8,795.8,351,791.6z M318,786.8c4.7-0.1,9.4,0.4,10.2-5c0.3-1.9-2.2-4.3-3.9-7.4C321.8,779.4,320,782.9,318,786.8z
		 M313.3,790.4c-8.1,0.7-4.7,6.4-5.2,10.1C309.7,797.4,311.3,794.3,313.3,790.4z"/>
	<path id="XMLID_1322_" class="st9" d="M132.6,621.4c2.1,6.9-1.3,10.4-7.5,12.5c-3.8,1.3-7.5,3-10.8,5.2c-4.9,3.2-9.1,2.5-13.5-0.6
		c-17.2-11.9-26.3-28-24.6-49.2c0.8-10.1,5.7-17.8,15.4-22.2c6.8-3.1,13.5-6.5,20.2-9.6c1.8-0.8,3.7-1.6,5.6-2
		c13-2.9,18.7,3,15.3,15.8c-0.3,1.1-1.7,2.3-2.8,2.9c-3,1.7-6.1,3.4-9.3,4.5c-5.3,1.7-6.3,5.6-5.8,10.3c0.9,8.6,4.4,16.2,11.8,20.5
		C131.8,612.4,134.3,615.6,132.6,621.4z M113,583.1c-2.5,0.4-4.6,1.1-6.7,1c-7.7-0.4-12.9,3.6-14,11.3c-1.4,10.1,4.7,22.1,13.8,26.5
		c1.2,0.6,3,1.2,4,0.7c6.2-2.8,12.2-5.8,18.6-8.9C116.1,604,112.9,597.7,113,583.1z M107.6,568.8c-5.1-1.6-5.1-1.6-8.4,1.8
		c-5.7,5.6-11.3,11.3-17,16.9c-5.5,5.5-5.9,7.6-2.8,15.4c1.4-1.3,2.7-2.5,4-3.7c6.5-6.5,13-13,19.4-19.5
		C105.5,576.8,109.8,574.6,107.6,568.8z M110.4,638.6c4.6-2.2,8.7-4.1,12.7-6c2-0.9,4-1.8,5.8-2.9c0.8-0.5,1.8-1.5,1.9-2.3
		c0.2-3.9,0.1-7.7,0.1-12.3c-4.1,2-7.2,3.5-10.3,4.9C109.5,625.2,109.5,625.2,110.4,638.6z M130.6,560.1c-0.8,0.1-1.2,0.1-1.5,0.2
		c-3.8,1.8-7.6,3.5-11.3,5.4c-8.9,4.3-8.9,4.3-7.1,15.4c3.8-1.8,7.6-3.5,11.3-5.3C131.5,571.3,131.5,571.3,130.6,560.1z
		 M101.2,565.2c11.3,4.4,18.6-3.7,27.9-7C122.5,554.2,112.8,558.1,101.2,565.2z M89.5,597.1c-11.7,10.4-11.8,8.8-6.2,17.7
		C90.4,610.8,92.8,605.1,89.5,597.1z M99.4,619.7c-2.8,2.8-5.3,5.4-8.1,8.2c1.9,1.8,3.9,3.6,6.9,6.4c2.3-2.8,4.2-5.2,6.2-7.6
		c0.5-0.7,1.1-1.4,1.7-2.2C103.7,622.9,101.5,621.3,99.4,619.7z M92.5,610.1c-9.4,7.6-9.7,9.4-3.1,14.4c2.7-2.3,5.3-4.5,8-6.8
		C95.6,614.9,94,612.5,92.5,610.1z M96.5,568.2c-9.1,0.9-16.2,8-17.4,17.3C84.6,580,90.7,573.9,96.5,568.2z M107.7,639.8
		c0-4.6,0-8.3,0-11.2c-2.5,2.1-5.1,4.3-8.2,6.8C102.4,637,104.7,638.2,107.7,639.8z"/>
	<path id="XMLID_125_" class="st9" d="M132.4,161.8c2.1,6.9-1.3,10.4-7.5,12.5c-3.8,1.3-7.5,3-10.8,5.2c-4.9,3.2-9.1,2.5-13.5-0.6
		c-17.2-11.9-26.3-28-24.6-49.2c0.8-10.1,5.7-17.8,15.4-22.2c6.8-3.1,13.5-6.5,20.2-9.6c1.8-0.8,3.7-1.6,5.6-2
		c13-2.9,18.7,3,15.3,15.8c-0.3,1.1-1.7,2.3-2.8,2.9c-3,1.7-6.1,3.4-9.3,4.5c-5.3,1.7-6.3,5.6-5.8,10.3c0.9,8.6,4.4,16.2,11.8,20.5
		C131.7,152.8,134.1,156,132.4,161.8z M112.8,123.5c-2.5,0.4-4.6,1.1-6.7,1c-7.7-0.4-12.9,3.6-14,11.3c-1.4,10.1,4.7,22.1,13.8,26.5
		c1.2,0.6,3,1.2,4,0.7c6.2-2.8,12.2-5.8,18.6-8.9C115.9,144.4,112.7,138.1,112.8,123.5z M107.4,109.2c-5.1-1.6-5.1-1.6-8.4,1.8
		c-5.7,5.6-11.3,11.3-17,16.9c-5.5,5.5-5.9,7.6-2.8,15.4c1.4-1.3,2.7-2.5,4-3.7c6.5-6.5,13-13,19.4-19.5
		C105.4,117.2,109.6,115,107.4,109.2z M110.2,179c4.6-2.2,8.7-4.1,12.7-6c2-0.9,4-1.8,5.8-2.9c0.8-0.5,1.8-1.5,1.9-2.3
		c0.2-3.9,0.1-7.7,0.1-12.3c-4.1,2-7.2,3.5-10.3,4.9C109.4,165.6,109.4,165.6,110.2,179z M130.4,100.5c-0.8,0.1-1.2,0.1-1.5,0.2
		c-3.8,1.8-7.6,3.5-11.3,5.4c-8.9,4.3-8.9,4.3-7.1,15.4c3.8-1.8,7.6-3.5,11.3-5.3C131.4,111.7,131.4,111.7,130.4,100.5z M101,105.6
		c11.3,4.4,18.6-3.7,27.9-7C122.3,94.6,112.6,98.5,101,105.6z M89.3,137.4c-11.7,10.4-11.8,8.8-6.2,17.7
		C90.2,151.2,92.6,145.5,89.3,137.4z M99.2,160.1c-2.8,2.8-5.3,5.4-8.1,8.2c1.9,1.8,3.9,3.6,6.9,6.4c2.3-2.8,4.2-5.2,6.2-7.6
		c0.5-0.7,1.1-1.4,1.7-2.2C103.5,163.3,101.4,161.7,99.2,160.1z M92.3,150.5c-9.4,7.6-9.7,9.4-3.1,14.4c2.7-2.3,5.3-4.5,8-6.8
		C95.4,155.3,93.9,152.9,92.3,150.5z M96.3,108.6c-9.1,0.9-16.2,8-17.4,17.3C84.4,120.4,90.6,114.3,96.3,108.6z M107.6,180.2
		c0-4.6,0-8.3,0-11.2c-2.5,2.1-5.1,4.3-8.2,6.8C102.2,177.4,104.6,178.6,107.6,180.2z"/>
	<path id="XMLID_1314_" class="st10" d="M713.4,887.7c-10.5,0-21.2,0-32.4,0c0,11.2,0,21.9,0,32.5c-12.9,1.5-26.3-6.5-32.2-18.9
		c-6.3-13.2-3.4-29.3,6.9-39.3c10.9-10.5,26.7-12.8,39.9-6C707.5,862.2,715.2,875.6,713.4,887.7z M650.8,875.1
		c-0.7,0.2-1.3,0.3-2,0.5c0,3.6-1.5,8.5,0.3,10.4c9,10.1,18.9,19.5,28.5,29.1c0.5-0.2,1-0.4,1.5-0.6c-0.5-4.1,0.5-9.5-1.8-12.2
		C669,892.8,659.7,884.1,650.8,875.1z M668,857.1c8,7.9,15.9,15,22.8,22.9c5,5.7,10.4,6.1,18.1,4.7c-9-8.9-17.7-16.9-25.7-25.6
		C678.6,854.1,674.2,854,668,857.1z M677.2,899.3c0.7-0.4,1.3-0.8,2-1.2c-0.6-4,0.3-9.1-1.9-11.8c-6.2-7.7-13.5-14.4-20.4-21.5
		c-0.7,0.2-1.5,0.3-2.2,0.5c-0.7,2.9-2.9,7.2-1.8,8.5C660.6,882.6,669,890.8,677.2,899.3z M657.7,863.1c6.5,6.4,12.8,11.9,18.3,18.2
		c4.7,5.4,10,3.9,15.5,3.7c-9-9.1-17.7-17.8-26.7-26.9C662.9,859.5,660.7,861.1,657.7,863.1z M684.1,855.3c9,8.9,18.3,18.1,27.2,27
		C711.2,867.2,693.2,853.6,684.1,855.3z M675,917.9c-8.6-8.7-17.7-17.8-26.4-26.5C648.7,903.8,660.8,915.9,675,917.9z"/>
	<path id="XMLID_168_" class="st10" d="M814.9,1241.9c-10.5,0-21.2,0-32.4,0c0,11.2,0,21.9,0,32.5c-12.9,1.5-26.3-6.5-32.2-18.9
		c-6.3-13.2-3.4-29.3,6.9-39.3c10.9-10.5,26.7-12.8,39.9-6C809,1216.3,816.7,1229.8,814.9,1241.9z M752.3,1229.2
		c-0.7,0.2-1.3,0.3-2,0.5c0,3.6-1.5,8.5,0.3,10.4c9,10.1,18.9,19.5,28.5,29.1c0.5-0.2,1-0.4,1.5-0.6c-0.5-4.1,0.5-9.5-1.8-12.2
		C770.5,1246.9,761.2,1238.2,752.3,1229.2z M769.5,1211.3c8,7.9,15.9,15,22.8,22.9c5,5.7,10.4,6.1,18.1,4.7
		c-9-8.9-17.7-16.9-25.7-25.6C780.1,1208.2,775.7,1208.1,769.5,1211.3z M778.7,1253.4c0.7-0.4,1.3-0.8,2-1.2
		c-0.6-4,0.3-9.1-1.9-11.8c-6.2-7.7-13.5-14.4-20.4-21.5c-0.7,0.2-1.5,0.3-2.2,0.5c-0.7,2.9-2.9,7.2-1.8,8.5
		C762,1236.7,770.5,1245,778.7,1253.4z M759.2,1217.2c6.5,6.4,12.8,11.9,18.3,18.2c4.7,5.4,10,3.9,15.5,3.7
		c-9-9.1-17.7-17.8-26.7-26.9C764.3,1213.7,762.1,1215.2,759.2,1217.2z M785.5,1209.5c9,8.9,18.3,18.1,27.2,27
		C812.7,1221.3,794.6,1207.7,785.5,1209.5z M776.4,1272c-8.6-8.7-17.7-17.8-26.4-26.5C750.2,1258,762.2,1270.1,776.4,1272z"/>
	<path id="XMLID_1307_" class="st14" d="M601.1,756.7c0,7.7,0.1,15.9-0.1,24.1c0,1.1-0.7,2.5-1.6,3.2c-5.3,4.5-9.5,10.5-17.8,10.3
		c-2.9-0.1-6,1.6-8.6,3.2c-1.4,0.8-3.2,3.3-2.9,4.6c2.2,10.6-5.2,15.3-12.1,20.9c-9.6-12.7-19.2-25.3-28.7-38
		c-0.7-0.9-1.1-2.3-1.1-3.5c-0.1-7.8,0-15.7,0-24.7C552.5,756.7,576.4,756.7,601.1,756.7z M593.7,760.4c-0.2-0.5-0.5-0.9-0.7-1.4
		c-19.5,0-39,0-59.8,0c9,12,17,22.6,25.3,33.5c4.2-3.5,9-5.7,6.8-13c-0.8-2.5,2.1-7.4,4.8-9.4c3.6-2.7,8.6-3.6,12.9-5.3
		C586.4,763.5,590,761.9,593.7,760.4z M556.7,816.8c1.5-12.8,1.4-23.6-7.8-32.9c-6.5-6.6-11.4-14.7-17-22.2
		c-1.1,5.8-1.2,11.2-1,16.6c0.1,1.9,0.2,4.2,1.3,5.7C539.9,794.7,548,805.3,556.7,816.8z M587,767.3c-6.5,0-12.2,1.5-16.7,5.8
		c-1.6,1.6-3.1,4.6-2.8,6.6c0.7,5.2,2.5,10.2,3.7,14.9c5-1.4,10.2-2.9,15.7-4.5C587,782.8,587,775.3,587,767.3z M598.5,758.7
		c-13.7,7.6-7.6,19.3-8.1,29.5c3.2-2.6,7.3-5.3,7.8-8.6C599.3,773.1,598.5,766.1,598.5,758.7z M559.7,816.8c0.5,0.2,1,0.4,1.4,0.5
		c2.1-2.4,5.8-4.5,6.1-7.1c0.9-7,0.3-14.1,0.3-21.2c-0.5-0.1-1-0.3-1.4-0.4c-2.1,2.8-5.7,5.3-6.1,8.3
		C559.1,803.4,559.7,810.1,559.7,816.8z"/>
	<path id="XMLID_1292_" class="st10" d="M800.9,574.5c3.5-3.7,7.1-7.3,10.5-11.1c3-3.4,6.3-3.2,9.8-1.3c8.6,4.6,9.9,11.8,3.1,18.6
		c-2.8,2.8-5.8,5.5-8.5,8.1c2.2,4.7,4.3,8.7,5.8,12.9c2.5,6.9,1.6,12.9-4.1,18.3c-11.1,10.6-16.9,11.7-30.2,3.9
		c-2.2-1.3-3.6-1.8-6.2-0.5c-4.4,2.2-8.5-0.6-10.9-4c-2.1-3-2.6-7-3.5-10.7c-0.5-1.8,0.1-3.9-0.6-5.7c-1.2-3.2-3.2-6.2-4.3-9.4
		c-2.4-6.9-1.3-12.9,4.5-18.3c11.2-10.5,16.9-11.5,30.3-3.6C797.8,572.6,799,573.3,800.9,574.5z M799.7,575.1
		c-6.1-2.4-10.9-4.9-16.1-6.1c-8.6-2.1-14.2,3.4-12.2,12c1.1,4.9,3.2,9.7,6,13.9c7.5,11.4,17.3,20.2,31.1,23.3
		c7.8,1.7,13.6-2.7,12.4-10c-1-5.8-3.7-11.4-5.6-17.2c-5.3,2.6-5.7,5-3.8,9c1.1,2.4,0.8,5.9,0,8.6c-0.3,0.9-3.9,1.6-5.8,1.3
		c-9.6-1.5-24.8-17-26.3-26.5c-0.8-4.9,1.6-7.5,6.5-6.6c3,0.5,5.8,2,9.1,3.2C796,579,797.3,577.7,799.7,575.1z M785.3,592.9
		c3.8,4.1,7.7,8.1,11.3,12c9.5-9.4,18-17.9,25.8-25.6c-3.9-3.9-7.9-7.8-11.6-11.5C803.1,575.4,794.6,583.8,785.3,592.9z
		 M827.3,574.4c-0.1-5.3-5.9-11.4-10-11.8c-2.9-0.3-4.2,1.2-3.4,3.9c1.4,4.8,4.7,8.2,9.6,9.4C824.7,576.3,826.3,574.8,827.3,574.4z
		 M794.3,614.6c-2-1.5-4-2.9-5-3.6c-2.9,2.4-5.2,4.3-7.8,6.5c2.2,1.6,4,2.9,5.9,4.2C789.7,619.3,791.7,617.3,794.3,614.6z
		 M782.9,589.6c0.7,0.1,1.3,0.3,2,0.4c2.5-2.6,5-5.2,8.9-9.2c-4.8-0.5-8.3-0.9-11.7-1.2C782.3,582.9,782.6,586.2,782.9,589.6z
		 M775.4,609.9c1.5,2.1,2.9,3.9,4,5.4c2.5-2.2,4.8-4.2,7.4-6.5c-1.8-1.8-3.4-3.5-5.5-5.6C778.9,605.9,776.9,608.2,775.4,609.9z
		 M780.4,621.8c-3.9-4.2-7.8-8.3-11.8-12.5c-2.2,3.9,0.6,6.8,3.2,9.3C774.4,621.1,777.4,623.8,780.4,621.8z M779.8,601.7
		c-1.7-2.2-3.1-4-4.1-5.4c-2.7,2.2-5.1,4.1-7.6,6.2c1.8,2.4,3.1,4.3,4.8,6.6C775.3,606.5,777.4,604.3,779.8,601.7z M803.3,619.2
		c-7.5-3.9-9.7-3.2-12.7,4C797.6,627.1,797.9,627,803.3,619.2z M774.1,593.7c-1.3-2.5-2.4-4.5-3.5-6.6c-7.8,6.4-7.8,6.5-3.3,13.1
		C769.5,598.1,771.6,596,774.1,593.7z M800.2,604.8c0.2,0.8,0.3,1.5,0.5,2.3c3.2,0.2,6.3,0.3,9.5,0.5c-0.3-3.3-0.6-6.5-1-11.2
		C805.1,600.1,802.6,602.5,800.2,604.8z M763.2,590.3c5.6-3.4,8.3-7.4,5-13.6C763.7,580.1,761.4,584.1,763.2,590.3z M800.1,626.6
		c6.2,1.3,9.7-1.2,12.7-5.4C806.7,618.2,803.7,622,800.1,626.6z"/>
	<path id="XMLID_1279_" class="st12" d="M359.5,560.6C359.3,560.4,359.4,560.5,359.5,560.6c8.3,5.6,10.8,13.3,10.2,23.3
		c-0.9,15-0.2,30.1-0.2,46c-3.1,0-5.7,0-8.4,0c-14.4,0-28.8-0.4-43.1,0.1c-5.9,0.2-10.1-1.4-13.7-5.8c-1.4-1.7-3.3-2.9-4.6-4
		C319.9,600.1,339.5,580.5,359.5,560.6z M356.3,566.8c-16.7,16.7-33.2,33.2-49.7,49.7c16.3,0,32.8,0,49.7,0
		C356.3,599.7,356.3,583.2,356.3,566.8z M359.2,563c-1,8.4,0.9,11.7,7.8,15C369.7,570.6,363.5,567.9,359.2,563z M366.7,625.3
		c2.7-8.3-2.8-11.3-7.5-15.3C356.6,617.9,362.5,620.9,366.7,625.3z M341.2,627.4c-5.6-8.5-8.8-10-14.3-7.2
		C331,624.2,333.9,629.9,341.2,627.4z M318.6,627.1c-4.2-4.3-7.1-10.2-15-7.3C307.7,624.2,310.6,629.9,318.6,627.1z M366.8,601.9
		c1.2-7.5-0.9-11.1-7.8-14.5C356.8,594.8,362.3,597.8,366.8,601.9z M364.5,627.2c-6.2-8.5-7.7-9.2-14.6-7.2
		C354.1,624.1,357.1,629.9,364.5,627.2z M366.8,613.6c1.1-7.8-1.1-11.6-7.8-14.7C356.6,606.2,362.2,609.2,366.8,613.6z M353.1,627.2
		c-6.3-8.4-8.3-9.4-14.6-7C342.6,624,345.4,629.8,353.1,627.2z M330.3,627c-4.5-4.4-7.5-10.2-15.2-7.1
		C319.3,624.1,322.2,630,330.3,627z M366.7,590.5c1.3-7.8-0.2-10.7-7.7-14.8C356.6,583.1,362.4,586.1,366.7,590.5z"/>
	<path id="XMLID_1269_" class="st11" d="M296.8,989.8c0.4-2.7,0.4-5.5,1.4-8c6.5-16.4,18.4-28.1,34.6-34.2
		c12.8-4.8,27.2,1.9,34.4,13.6c7.2,11.6,6,26.1-3.2,36.5c-4.5,5-9.1,10-14,14.6c-9.9,9.2-21.4,11.3-33.9,6.3
		C304.6,1014,297.2,1002.5,296.8,989.8z M328.5,960.9c-15.8-0.1-28.9,12.9-29.1,28.7c-0.1,15.8,12.7,28.9,28.6,29.1
		c16.1,0.2,29.4-12.9,29.4-29C357.4,973.9,344.4,960.9,328.5,960.9z M355.7,953.4c-6.5-4.1-8.9-2.9-15.6,7.2
		c1.9,0.9,3.8,1.9,5.2,2.6C349,959.7,352.1,956.7,355.7,953.4z M347.8,965.1c1.8,1.5,3.2,2.8,4.1,3.6c3.6-3.5,6.8-6.6,10.3-10.1
		c-1.3-1.2-2.7-2.5-4.2-4C354.6,958.2,351.5,961.4,347.8,965.1z M329.4,957.5c7.4,2.7,11,0.9,16.1-8
		C337.1,946.1,334.1,953.3,329.4,957.5z M354.1,971.7c1.3,1.9,2.3,3.5,4.2,6.4c2.3-2.8,3.8-5.4,6-7.2c3.9-3.3,3.3-6-0.1-9.2
		C360.7,965.1,357.6,968.2,354.1,971.7z M367.9,970.1c-3.7,5.7-12.5,7.9-7.8,16.7C369.6,980.3,370.6,978.3,367.9,970.1z M360,999.5
		c3-4.9,6.1-9.8,9.1-14.7c-0.5-0.3-1.1-0.7-1.6-1C363.2,988,358,991.6,360,999.5z M332.5,951.7c-0.5-0.7-1-1.3-1.4-2
		c-4.2,2.9-8.4,5.8-12.5,8.7c0.5,0.7,1,1.5,1.6,2.2C324.2,957.7,328.4,954.7,332.5,951.7z"/>
	<path id="XMLID_158_" class="st11" d="M56.9,1238.5c0.4-2.7,0.4-5.5,1.4-8c6.5-16.4,18.4-28.1,34.6-34.2
		c12.8-4.8,27.2,1.9,34.4,13.6c7.2,11.6,6,26.1-3.2,36.5c-4.5,5-9.1,10-14,14.6c-9.9,9.2-21.4,11.3-33.9,6.3
		C64.7,1262.6,57.3,1251.2,56.9,1238.5z M88.6,1209.6c-15.8-0.1-28.9,12.9-29.1,28.7c-0.1,15.8,12.7,28.9,28.6,29.1
		c16.1,0.2,29.4-12.9,29.4-29C117.5,1222.6,104.5,1209.6,88.6,1209.6z M115.8,1202c-6.5-4.1-8.9-2.9-15.6,7.2
		c1.9,0.9,3.8,1.9,5.2,2.6C109.1,1208.4,112.2,1205.4,115.8,1202z M107.9,1213.8c1.8,1.5,3.2,2.8,4.1,3.6c3.6-3.5,6.8-6.6,10.3-10.1
		c-1.3-1.2-2.7-2.5-4.2-4C114.7,1206.9,111.6,1210.1,107.9,1213.8z M89.5,1206.2c7.4,2.7,11,0.9,16.1-8
		C97.2,1194.8,94.2,1201.9,89.5,1206.2z M114.2,1220.4c1.3,1.9,2.3,3.5,4.2,6.4c2.3-2.8,3.8-5.4,6-7.2c3.9-3.3,3.3-6-0.1-9.2
		C120.8,1213.7,117.7,1216.9,114.2,1220.4z M128,1218.8c-3.7,5.7-12.5,7.9-7.8,16.7C129.7,1229,130.7,1227,128,1218.8z
		 M120.1,1248.2c3-4.9,6.1-9.8,9.1-14.7c-0.5-0.3-1.1-0.7-1.6-1C123.3,1236.7,118.1,1240.3,120.1,1248.2z M92.6,1200.4
		c-0.5-0.7-1-1.3-1.4-2c-4.2,2.9-8.4,5.8-12.5,8.7c0.5,0.7,1,1.5,1.6,2.2C84.3,1206.4,88.5,1203.4,92.6,1200.4z"/>
	<path id="XMLID_1260_" class="st9" d="M463.7,886.4c0,9.8-0.1,19.7,0.1,29.5c0.1,4.3-1.9,7-5.5,8.5c-6,2.5-12.3,2.8-17.9-0.5
		c-2.3-1.4-4.7-5-4.8-7.6c-0.4-19.9-0.4-39.7,0-59.6c0.1-2.7,2.4-6.3,4.7-7.7c5.8-3.4,12.2-3.1,18.4-0.4c3.5,1.6,5.2,4.2,5.1,8.2
		C463.6,866.8,463.7,876.6,463.7,886.4z M438.6,853.2c-1.7,6.3-0.6,10.1,3.4,13.5c3.3,2.8,6.2,6.1,9.3,9.2c3.1,3.1,6.2,6.2,9.4,9.2
		c0.5-0.3,0.9-0.5,1.4-0.8c-0.6-3.1-0.3-7-2.1-9C453.4,867.8,446.1,861,438.6,853.2z M449.8,911.9c-6-0.1-11.6,2.7-11.8,5.8
		c-0.2,3.3,5.6,6.5,12,6.1c4.5-0.3,9.5-0.5,11.2-5.8C462.1,915.2,455.9,912,449.8,911.9z M439,879.7c-0.5,0.2-1,0.4-1.5,0.6
		c0.4,2.9-0.2,6.8,1.4,8.7c6.9,7.6,14.5,14.5,21.8,21.7c0.5-0.1,0.9-0.3,1.4-0.4c-0.8-3.2-0.6-7.3-2.6-9.6
		C453,893.4,445.9,886.7,439,879.7z M439.2,866.7c-0.6,0.3-1.2,0.6-1.7,0.9c0.4,2.8-0.3,6.4,1.3,8.2c6.8,7.7,14.1,14.8,21.3,22.2
		c0.6-0.3,1.2-0.6,1.8-0.9c-0.6-3-0.2-6.8-2-8.8C453.4,880.8,446.2,873.9,439.2,866.7z M442.1,850.9c6.3,6.8,12.6,13.7,19,20.6
		C462,860.4,449.1,847.6,442.1,850.9z M438.2,894c-1.7,10.2,4.4,16.2,16,15.4C448.9,904.3,443.5,899.2,438.2,894z M452.9,850
		c2.5,2.6,5.4,5.6,8.2,8.4C461.6,852.4,459.1,849.9,452.9,850z"/>
	<path id="XMLID_1251_" class="st9" d="M139.4,778.7c0,10.9,0,10.9-8.8,14.1c-11.5,4.2-11.8,4.2-11.3,16.5c0.2,5.2-2.1,6.6-6.2,8.9
		c-11.5,6.4-20.1,4.4-27.4-6.3c-1.7-2.5-4-4.8-6.6-6.5c-9.3-6.3-11.5-15.3-9.8-25.6c0.3-1.7,1.7-4,3.2-4.6
		c16-6.5,32.1-12.8,48.3-18.8c1.5-0.6,4.1,0.3,5.6,1.3c2.2,1.5,3.8,4,5.9,5.6C138.1,767.4,141.1,772.7,139.4,778.7z M135.9,768.8
		c-4.3-3.8-7.5-6.7-10.9-9.5c-0.9-0.7-2.7-1.2-3.7-0.9c-15.7,6-31.4,12.2-47.9,18.6c8.1,8.3,15.7,16,23.4,23.7
		c0.6,0.6,2.1,1,2.9,0.8c5.2-1.8,10.3-3.8,16.7-6.2c-5.2-4.9-9.6-8.9-14.4-13.4C113.1,777.7,123.6,773.6,135.9,768.8z M106.7,782.7
		c10.3,12.6,10.3,12.6,24.4,7.5c1.4-0.5,2.8-0.9,4-1.6c0.8-0.5,1.9-1.4,1.9-2.2c0.2-4.8,0.1-9.6,0.1-15.3
		C126.4,775.2,116.6,778.9,106.7,782.7z M98.9,820.6c5.8-2.1,10.6-3.8,15.3-5.7c1.1-0.4,2.4-1.8,2.5-2.9c0.3-4.5,0.1-9,0.1-14.1
		c-5.6,2.1-10.6,3.7-15.4,5.8c-1.1,0.5-2.3,2.3-2.4,3.5C98.7,811.3,98.9,815.5,98.9,820.6z M97.1,819.1c-1.6-7,2.3-13.7-4.3-18.6
		C90.9,811.1,91.6,814.6,97.1,819.1z M72,780.2c0.8,5.8-3.5,12.6,3.6,17.2C74.8,791.5,78.9,784.9,72,780.2z M85.6,793.2
		c-1.5,13.8-1.2,15.3,4.3,17.7C88.4,805.1,92.7,798.4,85.6,793.2z M78.7,787.1c0.9,5.8-3.5,12.7,3.7,17.1
		C81.6,798.4,85.7,791.6,78.7,787.1z"/>
	<path id="XMLID_102_" class="st9" d="M583.2,1172.9c0,10.9,0,10.9-8.8,14.1c-11.5,4.2-11.8,4.2-11.3,16.5c0.2,5.2-2.1,6.6-6.2,8.9
		c-11.5,6.4-20.1,4.4-27.4-6.3c-1.7-2.5-4-4.8-6.6-6.5c-9.3-6.3-11.5-15.3-9.8-25.6c0.3-1.7,1.7-4,3.2-4.6
		c16-6.5,32.1-12.8,48.3-18.8c1.5-0.6,4.1,0.3,5.6,1.3c2.2,1.5,3.8,4,5.9,5.6C581.9,1161.6,584.9,1166.9,583.2,1172.9z M579.7,1163
		c-4.3-3.8-7.5-6.7-10.9-9.5c-0.9-0.7-2.7-1.2-3.7-0.9c-15.7,6-31.4,12.2-47.9,18.6c8.1,8.3,15.7,16,23.4,23.7
		c0.6,0.6,2.1,1,2.9,0.8c5.2-1.8,10.3-3.8,16.7-6.2c-5.2-4.9-9.6-8.9-14.4-13.4C556.9,1171.9,567.4,1167.8,579.7,1163z
		 M550.5,1176.9c10.3,12.6,10.3,12.6,24.4,7.5c1.4-0.5,2.8-0.9,4-1.6c0.8-0.5,1.9-1.4,1.9-2.2c0.2-4.8,0.1-9.6,0.1-15.3
		C570.2,1169.4,560.4,1173.1,550.5,1176.9z M542.7,1214.8c5.8-2.1,10.6-3.8,15.3-5.7c1.1-0.4,2.4-1.8,2.5-2.9
		c0.3-4.5,0.1-9,0.1-14.1c-5.6,2.1-10.6,3.7-15.4,5.8c-1.1,0.5-2.3,2.3-2.4,3.5C542.5,1205.5,542.7,1209.7,542.7,1214.8z
		 M540.9,1213.3c-1.6-7,2.3-13.7-4.3-18.6C534.8,1205.3,535.4,1208.8,540.9,1213.3z M515.8,1174.3c0.8,5.8-3.5,12.6,3.6,17.2
		C518.6,1185.7,522.7,1179.1,515.8,1174.3z M529.4,1187.4c-1.5,13.8-1.2,15.3,4.3,17.7C532.2,1199.3,536.5,1192.6,529.4,1187.4z
		 M522.5,1181.2c0.9,5.8-3.5,12.7,3.7,17.1C525.4,1192.6,529.5,1185.8,522.5,1181.2z"/>
	<path id="XMLID_1244_" class="st12" d="M514.1,1010.2c3-7.8,5.9-15,8.6-22.1c0.7-0.1,1.1-0.3,1.4-0.2c10.7,3.4,10.7,3.4,15.9-6.3
		c1.2-2.2,2.4-4.4,3.7-6.7c1,0.2,1.7,0.4,2.4,0.6c9.3,2.7,9.3,2.7,14.1-5.9c4.2-7.5,4.2-7.5,12.7-5.1c0.8,0.2,1.7,0.2,2.9,0.4
		c2.3-4.6,4.5-9.1,7.3-14.7c10.8,5.1,21.4,10.1,33.1,15.7c-8.8,5.4-16.3,10-23.7,14.6c-18.1,11.2-36.3,22.3-54.3,33.6
		c-3.5,2.2-6.6,2.9-10.5,1.1C523.4,1013.1,518.8,1011.8,514.1,1010.2z M534.6,1013.5c26.2-16.2,51-31.5,76.4-47.1
		c-3.8-2.3-6.7-4.1-9.8-6c-2.6,4.6-5,8.8-7.4,13.1c-4.1-1.3-7.7-2.4-11.6-3.5c-3,5.7-5.8,11.1-8.8,16.7c-4.1-1.2-7.9-2.3-11.8-3.4
		c-3,5.8-5.8,11.2-8.7,16.7c-4.2-1.2-7.8-2.3-11.7-3.4C539.1,1001.9,537.1,1006.9,534.6,1013.5z M517.1,1008.8
		c5.1,1.8,9.8,3.5,14.8,5.3c2.5-6.5,4.8-12.3,7.2-18.5c-5.2-1.8-9.7-3.5-14.7-5.2C521.8,996.6,519.5,1002.5,517.1,1008.8z
		 M559.4,982.3c-5.1-1.7-9.7-3.2-14.5-4.9c-2.7,5.1-5.2,9.8-7.9,15c5.3,1.7,10,3.3,14.8,4.9C554.4,992,556.8,987.4,559.4,982.3z
		 M579.9,969.1c-5.1-1.6-9.5-3-14.3-4.4c-2.8,4.9-5.4,9.5-8.2,14.5c5.3,1.7,9.9,3.2,14.5,4.7c0.6-0.9,1.1-1.5,1.4-2.1
		C575.4,977.8,577.4,973.8,579.9,969.1z M577.9,965.6c16.9,6.2,14.2,7.8,20.3-6.6c-4.7-1.8-9.3-3.6-14.5-5.6
		C581.8,957.5,580,961.4,577.9,965.6z"/>
	<path id="XMLID_1235_" class="st9" d="M534.8,624.8c0-15-0.1-29,0.1-43c0-1.4,1-3.1,2-4.2c11.4-12.7,11.5-12.6,28.2-12.6
		c9.6,0,19.2,0,29.5,0c0,7.4,0,14.5,0,21.5c0,0.5-0.1,1.3-0.4,1.5c-7.6,5.4-4.7,13.4-4.9,20.5c-0.3,10.2-6.1,16.3-16.3,16.3
		C560.4,624.8,547.9,624.8,534.8,624.8z M537.2,622.3c13.6,0,26.8,0,40.2,0c0-13.6,0-26.8,0-40.2c-13.6,0-26.8,0-40.2,0
		C537.2,595.5,537.2,608.6,537.2,622.3z M592.5,569.5c-8.5,6.2-14.5,12.5-12.7,23.4c1,5.8,0.2,12,0.2,18c0,3.1,0,6.2,0,9.8
		c6.6-3.5,7.3-8.4,7.2-14.2c0-6.7-2.6-14.4,4.7-19.5c0.5-0.4,0.6-1.7,0.6-2.5C592.5,579.8,592.5,575.1,592.5,569.5z M589.5,567.7
		c-8.4-0.6-10.4,7.3-15.5,11.2C582.4,579.5,584.4,571.6,589.5,567.7z M548.3,579c7.5-0.2,10.2-7.1,14.9-11.4
		C555.4,567.5,553,574.7,548.3,579z M539.5,579c7.8,0,10.3-7.1,15-11.3C546.7,567.6,544.3,574.9,539.5,579z M580.4,567.8
		c-7.7-0.1-10.2,6.9-14.8,11.1C573.4,579.2,575.5,571.7,580.4,567.8z M571.8,567.7c-8-0.3-10.2,7.1-15,11.2
		C564.8,579.3,566.9,571.6,571.8,567.7z"/>
	<path id="XMLID_1234_" class="st12" d="M121.4,683.6c2.6,0,5.3,0,8.5,0c0.3,10-3.8,17.5-11.9,22.6c-9,5.7-18.4,5.6-27.4,0
		c-8.2-5.1-12-12.7-12-22.6c3.1,0,5.8,0,8.5,0c3.8,12.6,8.8,17.5,17.7,17.3C113.4,700.7,118.4,695.5,121.4,683.6z"/>
	<path id="XMLID_98_" class="st12" d="M365.3,168.1c2.6,0,5.3,0,8.5,0c0.3,10-3.8,17.5-11.9,22.6c-9,5.7-18.4,5.6-27.4,0
		c-8.2-5.1-12-12.7-12-22.6c3.1,0,5.8,0,8.5,0c3.8,12.6,8.8,17.5,17.7,17.3C357.3,185.2,362.4,180,365.3,168.1z"/>
	<path id="XMLID_1227_" class="st14" d="M435.2,685.5c0-5.1-0.3-10.2,0.1-15.3c0.2-2.4,1.4-5.4,3.2-7c5.1-4.6,17.5-4.4,22.5,0.2
		c1.5,1.4,2.8,4,2.8,6.1c0.3,10.7,0.4,21.4,0,32.2c-0.1,2.3-1.8,5.2-3.7,6.7c-5.3,4.2-15.8,4.2-21.1,0c-2-1.6-3.5-4.6-3.8-7.2
		C434.8,696.1,435.2,690.8,435.2,685.5z M449.4,675.1c3.1-1,6.4-1.5,9.2-3c3.9-2.1,3.9-5.4-0.1-7.3c-2.9-1.4-6.3-2.2-9.4-2.2
		c-4.5,0-9.6,0.5-11.3,5.7C436.8,671.2,443.2,674.5,449.4,675.1z M447,709.1c0.5-0.4,1-0.7,1.5-1.1c0-9.4,0.1-18.8-0.1-28.2
		c0-1.2-1.7-2.3-2.6-3.5c-0.6,0.3-1.1,0.6-1.7,0.9c0,9.6-0.1,19.1,0.1,28.7C444.3,707,446,708,447,709.1z M455.6,677.4
		c-0.5-0.4-1-0.8-1.5-1.2c-1,1.1-2.7,2.1-2.8,3.2c-0.2,9.6-0.1,19.2-0.1,28.8c0.6,0.3,1.2,0.5,1.7,0.8c0.9-1.3,2.5-2.5,2.5-3.8
		C455.7,696,455.6,686.7,455.6,677.4z M440.2,706.8c0.5-0.2,1-0.4,1.6-0.7c0-9.2,0.1-18.4-0.1-27.7c0-1.6-1.6-3.1-2.5-4.6
		c-0.5,0.2-1.1,0.5-1.6,0.7c0,9.2-0.1,18.4,0.1,27.6C437.7,703.7,439.3,705.3,440.2,706.8z M461.8,673.9c-4.2,2.6-5.4,22.7-2.4,32.1
		C463.4,695.9,460.5,685.2,461.8,673.9z"/>
	<path id="XMLID_147_" class="st14" d="M711,89.3c0-5.1-0.3-10.2,0.1-15.3c0.2-2.4,1.4-5.4,3.2-7c5.1-4.6,17.5-4.4,22.5,0.2
		c1.5,1.4,2.8,4,2.8,6.1c0.3,10.7,0.4,21.4,0,32.2c-0.1,2.3-1.8,5.2-3.7,6.7c-5.3,4.2-15.8,4.2-21.1,0c-2-1.6-3.5-4.6-3.8-7.2
		C710.6,99.9,711,94.6,711,89.3z M725.2,78.9c3.1-1,6.4-1.5,9.2-3c3.9-2.1,3.9-5.4-0.1-7.3c-2.9-1.4-6.3-2.2-9.4-2.2
		c-4.5,0-9.6,0.5-11.3,5.7C712.6,75,719.1,78.3,725.2,78.9z M722.8,112.9c0.5-0.4,1-0.7,1.5-1.1c0-9.4,0.1-18.8-0.1-28.2
		c0-1.2-1.7-2.3-2.6-3.5c-0.6,0.3-1.1,0.6-1.7,0.9c0,9.6-0.1,19.1,0.1,28.7C720.1,110.7,721.9,111.8,722.8,112.9z M731.4,81.2
		c-0.5-0.4-1-0.8-1.5-1.2c-1,1.1-2.7,2.1-2.8,3.2c-0.2,9.6-0.1,19.2-0.1,28.8c0.6,0.3,1.2,0.5,1.7,0.8c0.9-1.3,2.5-2.5,2.5-3.8
		C731.5,99.8,731.4,90.5,731.4,81.2z M716,110.6c0.5-0.2,1-0.4,1.6-0.7c0-9.2,0.1-18.4-0.1-27.7c0-1.6-1.6-3.1-2.5-4.6
		c-0.5,0.2-1.1,0.5-1.6,0.7c0,9.2-0.1,18.4,0.1,27.6C713.6,107.5,715.1,109.1,716,110.6z M737.7,77.7c-4.2,2.6-5.4,22.7-2.4,32.1
		C739.3,99.6,736.3,89,737.7,77.7z"/>
	<path id="XMLID_1222_" class="st14" d="M259.9,692.6c-3.7,3.7-7.4,7.4-11.5,11.4c-1.8-1.6-3.7-3.2-5.8-5.1
		c-1.9,1.7-3.8,3.4-5.8,5.2c-2-1.8-3.8-3.4-5.8-5.2c-1.9,1.8-3.8,3.5-6.3,5.8c-1.4-2.2-2.7-4.2-4.2-6.5c-2.9,2.5-4.9,4.2-7,6
		c-1.9-1.7-3.6-3.4-5.6-5.3c-1.9,1.7-3.7,3.4-5.9,5.3c-1.9-1.7-3.7-3.4-5.8-5.3c-1.9,1.8-3.8,3.4-5.7,5.2c-4-4-7.9-7.9-11.9-11.9
		c4.1-3.8,8-7.5,12.3-11.5c1.3,1.2,3.1,2.8,5.2,4.8c1.9-1.7,3.7-3.4,5.8-5.3c1.9,1.7,3.7,3.4,5.8,5.2c2-1.8,3.8-3.5,5.8-5.2
		c1.9,1.7,3.8,3.4,5.8,5.3c2-1.8,3.9-3.5,5.8-5.2c2,1.8,3.9,3.5,5.8,5.3c2-1.8,3.8-3.5,5.9-5.3c1.9,1.8,3.6,3.4,5.6,5.3
		c2-1.7,3.8-3.3,5.7-5C252,684.3,255.9,688.3,259.9,692.6z M202,700.8c2.3-2.1,4.1-3.7,5.8-5.4c2.2,2.1,3.9,3.6,5.8,5.3
		c2-1.8,3.8-3.5,5.8-5.3c2.1,1.8,3.9,3.5,5.9,5.2c2.1-1.8,3.9-3.5,5.8-5.2c2.1,1.8,3.9,3.5,6.1,5.4c1.4-1.3,2.6-2.4,3.9-3.6
		c-1.7-2-2.9-3.5-4.3-5.2c1.4-1.7,2.7-3.1,4.1-4.9c-1.5-1.3-2.7-2.5-4-3.7c-2.1,1.9-4,3.6-5.8,5.2c-2.1-1.9-4-3.5-5.8-5.2
		c-2.2,1.9-4,3.6-5.8,5.2c-2.1-1.9-3.8-3.5-5.7-5.3c-2,1.8-3.8,3.4-5.8,5.2c-2-1.8-3.9-3.5-6-5.4c-1.3,1.5-2.5,2.8-3.6,4
		c1.5,1.8,2.7,3.3,3.9,4.7c-1.5,1.8-2.7,3.2-4.1,4.9C199.4,698.3,200.6,699.4,202,700.8z M240.7,691.7c2.7,3,5.2,5.9,7.2,8
		c3.2-2.7,6.2-5.2,8.8-7.4c-2.9-3.2-5.4-6-8.2-9.3C245.6,686.3,243.1,689.1,240.7,691.7z M198.9,692.1c-3-3.1-5.6-5.8-8.7-8.9
		c-2.8,3.2-5.4,6.1-7.8,8.8c2.5,2.9,5,5.9,7.7,9.1C193.3,697.8,195.9,695.1,198.9,692.1z"/>
	<path id="XMLID_1219_" class="st12" d="M347.6,860.8c0,4.5,0,8.2,0,11.9c-9.8,2.7-13.9,6.8-14,13.7c-0.1,6.9,4,11.1,13.9,13.9
		c0,3.7,0,7.4,0,11.8c-9.2,0.2-16.4-3.3-21.5-10.5c-6-8.4-6.7-17.6-2-26.8C328.7,865.5,336.7,861.1,347.6,860.8z M323.8,886.3
		c2.6,0,4.9,0,7,0c2-8.3,4.2-12.1,9.8-13.8c5.3-1.6,5.7-4.5,4.4-8.7C333,864.2,324,873.7,323.8,886.3z"/>
	<path id="XMLID_1214_" class="st15" d="M104.5,1062.6c15.4,0,28.4,12.2,29.4,27.5c0.3,5.1-2.3,8.6-6.6,9.1
		c-4.7,0.5-7.8-2.4-8.4-7.9c-1.1-9-6.7-14.5-14.8-14.4c-7.8,0.1-13.2,5.4-14.3,14.3c-0.7,5.6-3.6,8.4-8.3,8c-4.6-0.4-7-3.9-6.6-9.5
		C75.8,1074.5,88.8,1062.6,104.5,1062.6z M129.5,1084c-2.8-10.8-13.4-18.7-25-18.8c-11.9-0.1-22.6,8-25.4,18.8
		c2.9,0.5,5.8,0.9,8.7,1.4c6.2-14.2,24.8-16.4,33.3,0C124,1084.9,126.7,1084.5,129.5,1084z M89.2,1091.6c-3.5-2.1-5.5-4.3-7.3-4.2
		c-1.6,0.1-4.2,2.9-4.1,4.5c0,1.6,2.7,4.3,4.3,4.3C83.9,1096.3,85.8,1093.9,89.2,1091.6z M133.3,1091.8c-3.4-2.3-5.3-4.5-7.1-4.4
		c-1.5,0-4.1,2.8-4.1,4.4c0,1.6,2.5,4.4,4,4.5C127.9,1096.3,129.8,1094,133.3,1091.8z"/>
	<path id="XMLID_1211_" class="st15" d="M88.6,903.7c0-12,0-22.9,0-34.5c5,3,9.6,5.5,13.8,8.6c3.1,2.2,5.4,2,8.2-0.2
		c2.7-2,5.7-3.7,9.2-5.8c0,10,0,19.2,0,28.9c-1.4-0.7-2.5-1-3.2-1.7c-7-6.8-13.8-6.1-20.7,0.2C94,900.9,91.5,902,88.6,903.7z
		 M91.8,874.6c0,8.2,0,15.7,0,23.9c4.3-2.8,7.8-5,11.6-7.5c-2.5-1.8-4.4-3.1-6.4-4.6c2.2-1.6,4-3,6.3-4.7
		C99.3,879.3,95.8,877.1,91.8,874.6z"/>
	<path id="XMLID_1208_" class="st12" d="M788,878.7c-2.3-3.8-4.4-7.2-6.7-11.1c9.2,0,17.8,0,27,0c-2,3.5-4,7-6.3,11.1
		c3.3,0.3,6,0.5,9.4,0.7c-5.6,9-10.9,17.4-16.5,26.5c-5.6-9-10.9-17.4-16.5-26.4C781.7,879.1,784.5,878.9,788,878.7z M794.8,901.1
		c4.2-6.7,7.9-12.7,11.8-18.8c-7.6-3.7-8.4,3.7-11.8,6.5c-5.9-7.9-5.9-7.9-11.7-6.5C786.8,888.2,790.4,894,794.8,901.1z"/>
	<path id="XMLID_99_" class="st12" d="M396.9,1147.6c-2.3-3.8-4.4-7.2-6.7-11.1c9.2,0,17.8,0,27,0c-2,3.5-4,7-6.3,11.1
		c3.3,0.2,6,0.5,9.4,0.7c-5.6,9-10.9,17.4-16.5,26.5c-5.6-9-10.9-17.4-16.5-26.4C390.6,1148.1,393.4,1147.9,396.9,1147.6z
		 M403.8,1170c4.2-6.7,7.9-12.7,11.8-18.8c-7.6-3.7-8.4,3.7-11.8,6.5c-5.9-7.9-5.9-7.9-11.7-6.5C395.7,1157.2,399.4,1163,403.8,1170
		z"/>
	<path id="XMLID_1200_" class="st10" d="M204.1,818.4c0-5.8,0-11.2,0-16.5c10.4-3.6,14-7.4,13.7-14.5c-0.3-6.8-4.4-10.8-13.6-13
		c0-5.4,0-10.9,0-16.9c11.8,0.1,20.7,4.9,26.6,14.6c6.3,10.6,6.3,21.6-0.3,32.1C224.5,813.6,215.8,818.4,204.1,818.4z M230.2,799.6
		c-8-1-15.4-0.7-22.3,3.2c-0.9,0.5-1.5,1.7-2.2,2.6c1,0.7,2,2,3.1,2.1c3.2,0.3,6.6-0.3,9.8,0.2C224.8,808.4,228.4,805.9,230.2,799.6
		z M230.3,776.4c-2-5.7-4.9-8.8-10.9-8c-3.4,0.5-6.9,0-10.3,0.2c-1.1,0.1-2.2,1.1-3.3,1.7c0.8,1,1.4,2.2,2.4,2.9
		C214.9,777.6,222.3,776.7,230.3,776.4z M232.6,786.4c-0.1-8.7-0.6-8.9-14.7-7.3C220.1,788,220.8,788.3,232.6,786.4z M217.7,797.2
		c3.2,0,5.8,0,8.5,0c6.3,0,7.1-1.1,5.9-7.7C220.7,788.1,220.7,788.1,217.7,797.2z M221.6,811.7c-0.1-0.6-0.2-1.2-0.3-1.8
		c-4.9,0-9.9,0-15.1,0c0,2.1,0,4,0,7.2C211.7,815.1,216.6,813.4,221.6,811.7z M206,766.2c5.6,0,10.5,0,15.5,0c0.2-0.5,0.3-1,0.5-1.5
		c-5.1-1.9-10.1-3.7-15.9-5.9C206,762.1,206,763.9,206,766.2z"/>
	<path id="XMLID_90_" class="st10" d="M675.9,233.8c0-5.8,0-11.2,0-16.5c10.4-3.6,14-7.4,13.7-14.5c-0.3-6.8-4.4-10.8-13.6-13
		c0-5.4,0-10.9,0-16.9c11.8,0.1,20.7,4.9,26.6,14.6c6.3,10.6,6.3,21.6-0.3,32.1C696.3,229,687.5,233.8,675.9,233.8z M702,215
		c-8-1-15.4-0.7-22.3,3.2c-0.9,0.5-1.5,1.7-2.2,2.6c1,0.7,2,2,3.1,2.1c3.2,0.3,6.6-0.3,9.8,0.2C696.6,223.8,700.1,221.3,702,215z
		 M702.1,191.8c-2-5.7-4.9-8.8-10.9-8c-3.4,0.5-6.9,0-10.3,0.2c-1.1,0.1-2.2,1.1-3.3,1.7c0.8,1,1.4,2.2,2.4,2.9
		C686.7,192.9,694.1,192.1,702.1,191.8z M704.4,201.8c-0.1-8.7-0.6-8.9-14.7-7.3C691.9,203.4,692.6,203.7,704.4,201.8z M689.5,212.6
		c3.2,0,5.8,0,8.5,0c6.3,0,7.1-1.1,5.9-7.7C692.4,203.4,692.4,203.4,689.5,212.6z M693.3,227c-0.1-0.6-0.2-1.2-0.3-1.8
		c-4.9,0-9.9,0-15.1,0c0,2.1,0,4,0,7.2C683.5,230.5,688.4,228.8,693.3,227z M677.8,181.5c5.6,0,10.5,0,15.5,0c0.2-0.5,0.3-1,0.5-1.5
		c-5.1-1.9-10.1-3.7-15.9-5.9C677.8,177.5,677.8,179.2,677.8,181.5z"/>
	<path id="XMLID_1199_" class="st13" d="M328.3,1067c1.9,2.4,3.7,4.7,6.2,7.8c2.1-3.2,3.8-5.7,5.5-8.3c0.4,0.4,0.8,0.8,1.2,1.2
		c2.1,2.1,4.1,4.2,6.4,6.5c-1.9,2-4,4.2-6.2,6.6c2.2,2.4,4.3,4.7,6.8,7.4c-2.3,2-4.5,3.9-7.4,6.4c-1.6-2.3-3.3-4.8-5.3-7.6
		c-3.3,3-5.7,5.2-8.2,7.4c-2.2-2.1-4.2-4.1-6.5-6.3c2.3-2.6,4.3-4.8,6.6-7.3c-2.2-2.3-4.2-4.5-6.7-7.2
		C323.1,1071.6,325.3,1069.7,328.3,1067z"/>
	<path id="XMLID_1198_" class="st15" d="M667.6,612.1c-1.8,0-3.6,0-5.6,0c0-4.3,0-8.6,0-13.2c3.4-0.2,6.6-0.4,10.4-0.6
		c0.1-3.2,0.3-6.2,0.5-9.8c3.2-0.1,6.4-0.3,10.2-0.5c0.2-3.5,0.4-6.8,0.5-10.5c4.6,0,9,0,13.9,0c0,1.7,0,3.6,0,5.8
		c-2.4,0.1-4.7,0.3-7.6,0.4c-0.2,3.5-0.3,7.1-0.5,10.9c-3.5,0-6.5,0-10.1,0c-0.2,3.4-0.3,6.3-0.4,9.9c-3.3,0.2-6.5,0.4-10.3,0.6
		C668.2,607.4,668,609.6,667.6,612.1z"/>
	<path id="XMLID_1197_" class="st14" d="M542.9,1081c3.2-2.1,6-3.8,8.7-5.6c1.7-1,3.4-2,5.6-3.2c0.2,2.9,0.3,5.2,0.4,8.3
		c2.7-1.5,4.9-2.8,7.1-4.1c2.1-1.3,4.2-2.6,6.9-4.3c0.2,3,0.3,5.3,0.4,8.7c4.9-3,9.2-5.7,14-8.7c0,6.1,0,11.3,0,17.5
		c-4.8-2.9-9.1-5.5-14-8.4c-0.2,3.1-0.3,5.3-0.5,8.5c-4.6-2.8-8.9-5.4-13.8-8.3c-0.3,2.9-0.5,5.2-0.8,8.4
		C552.3,1086.7,547.9,1084,542.9,1081z"/>
	<path id="XMLID_1196_" class="st9" d="M795.3,1081.2c-1.8,3.3-3,6.8-5.2,9.4c-3.5,4.2-3.9,7.8-0.1,12c1,1.1,0.6,3.3,0.8,5.1
		c-1.7-0.3-3.9-0.1-5.1-1.1c-5.9-5-6.2-12.7-1.1-18.9c5-6,5-7.4,0-13.5c-5.2-6.4-4.7-14.4,1.5-19.3c1.1-0.9,3.1-0.5,4.7-0.7
		c-0.1,1.6,0.3,3.6-0.5,4.7c-4.4,6.2-4.3,6.9,0.4,13.1C792.7,1074.5,793.6,1077.7,795.3,1081.2z"/>
	<path id="XMLID_1192_" class="st10" d="M243.7,602.3c0.1,8.4-8.9,17.5-15.8,16.9c-1.9-0.1-4.1-1.5-5.5-2.9
		c-8.3-8.1-16.4-16.5-24.8-24.6c-2.9-2.8-3.7-6.2-1.8-9.4c2.2-3.6,5-7.2,8.4-9.7c5-3.7,8.5-2.9,12.9,1.5
		c7.9,7.8,15.7,15.6,23.5,23.6C242.2,599.3,243.2,601.4,243.7,602.3z M236.2,596.2c-6.2-6.1-13.2-13-20.1-19.9
		c-4.6-4.6-7-5-12.1-0.8c-2.6,2.1-4.6,5.1-6.1,8.1c-0.7,1.4-0.3,4.3,0.7,5.4c7.6,8,15.4,15.8,22.2,22.7
		C226,606.3,230.8,601.5,236.2,596.2z M241.6,602.6c-1.1-0.6-2.8-2.2-4.5-2.2c-4.8,0.2-11.4,7.1-12.2,11.9c-0.5,3.2,0.7,4.9,4.1,4.7
		C234.1,616.6,241.4,609.1,241.6,602.6z"/>
	<path id="XMLID_137_" class="st10" d="M255.2,129c0.1,8.4-8.9,17.5-15.8,16.9c-1.9-0.1-4.1-1.5-5.5-2.9
		c-8.3-8.1-16.4-16.5-24.8-24.6c-2.9-2.8-3.7-6.2-1.8-9.4c2.2-3.6,5-7.2,8.4-9.7c5-3.7,8.5-2.9,12.9,1.5
		c7.9,7.8,15.7,15.6,23.5,23.6C253.6,126,254.6,128.1,255.2,129z M247.6,122.9c-6.2-6.1-13.2-13-20.1-19.9c-4.6-4.6-7-5-12.1-0.8
		c-2.6,2.1-4.6,5.1-6.1,8.1c-0.7,1.4-0.3,4.3,0.7,5.4c7.6,8,15.4,15.8,22.2,22.7C237.5,133.1,242.3,128.2,247.6,122.9z M253.1,129.4
		c-1.1-0.6-2.8-2.2-4.5-2.2c-4.8,0.2-11.4,7.1-12.2,11.9c-0.5,3.2,0.7,4.9,4.1,4.7C245.6,143.3,252.9,135.8,253.1,129.4z"/>
	<path id="XMLID_111_" class="st10" d="M203,1172.7c0.1,8.4-8.9,17.5-15.8,16.9c-1.9-0.1-4.1-1.5-5.5-2.9
		c-8.3-8.1-16.4-16.5-24.8-24.6c-2.9-2.8-3.7-6.2-1.8-9.4c2.2-3.6,5-7.2,8.4-9.7c5-3.7,8.5-2.9,12.9,1.5
		c7.9,7.8,15.7,15.6,23.5,23.6C201.5,1169.8,202.5,1171.9,203,1172.7z M195.5,1166.6c-6.2-6.1-13.2-13-20.1-19.9
		c-4.6-4.6-7-5-12.1-0.8c-2.6,2.1-4.6,5.1-6.1,8.1c-0.7,1.4-0.3,4.3,0.7,5.4c7.6,8,15.4,15.8,22.2,22.7
		C185.3,1176.8,190.1,1172,195.5,1166.6z M200.9,1173.1c-1.1-0.6-2.8-2.2-4.5-2.2c-4.8,0.2-11.4,7.1-12.2,11.9
		c-0.5,3.2,0.7,4.9,4.1,4.7C193.4,1187.1,200.7,1179.6,200.9,1173.1z"/>
	<path id="XMLID_1191_" class="st9" d="M803.2,1053c1,0.7,2.3,1.1,2.5,1.8c0.3,1,0.2,2.8-0.4,3.4c-5.5,5.1-4,9.5,0.5,14.5
		c4.5,4.9,3.8,12-0.7,17.5c-4.8,5.8-4.7,6.6-0.4,12.7c0.8,1.2,0.6,3.1,0.8,4.7c-1.7-0.3-3.9,0.1-5.1-0.9c-6-4.8-6.4-12.6-1.4-18.9
		c5.2-6.5,5.2-7.4-0.1-13.9c-4.8-5.9-4.4-13.6,1.1-18.6C800.9,1054.5,802,1053.8,803.2,1053z"/>
	<path id="XMLID_1188_" class="st14" d="M679.7,996.2c-8.5,0-11.7-3.5-11.7-12.4c0-9.5,3.3-12.7,13.2-12.6c7.1,0,10.3,4,10.3,12.7
		C691.5,993,688.4,996.2,679.7,996.2z M682.5,983.3c-2.8-3.9-4.9-9.4-7-9.3c-4.8,0-4.9,5.4-5.2,9.3c-0.3,5.9,3.2,12,5.1,10.4
		C678.2,991.4,679.8,987.4,682.5,983.3z"/>
	<path id="XMLID_1187_" class="st14" d="M449.6,971.8c5,8.1,9.5,15.3,14.5,23.2c-9.9,0-19.1,0-28.9,0
		C439.9,987.4,444.5,979.9,449.6,971.8z"/>
	<path id="XMLID_1186_" class="st9" d="M223.5,1060.2c-3.6-2.7-6.1-4.5-8.6-6.3c3.5-3.5,3.5-3.5,12.4,6.6c-3.4,2.9-6.8,5.9-11.2,9.8
		c4.4,3.2,7.9,5.7,12.6,9.2c-5.3,3.9-9,6.6-13.4,9.8c5.2,4.3,8.8,7.2,12.7,10.4c-4.6,4.3-8.1,7.5-11.6,10.8c-1.5-1.6-1.5-1.6,5.4-10
		c-3.5-3-7-6.1-10.8-9.5c3.8-4,6.9-7.2,10.5-11c-3.5-2.9-6.7-5.7-10.7-9C215.3,1067.1,218.7,1064.2,223.5,1060.2z"/>
	<path id="XMLID_1185_" class="st9" d="M227,1089.6c3.8-3,7.2-5.7,10.9-8.7c-3.7-3.9-6.6-7-10-10.5c3.6-3.1,7-6,11.9-10.3
		c-3.1-2.4-5.3-3.9-7.3-5.7c-0.5-0.4-0.2-1.8-0.2-2.7c0.9,0,2.2-0.3,2.7,0.1c2.9,2.4,5.7,5.1,9.2,8.3c-4.2,3.4-7.7,6.2-12.2,9.9
		c4.5,3.3,8,5.8,12.8,9.2c-5.4,4-9,6.7-13.6,10.1c5.3,4.1,8.9,7,13.1,10.3c-4.8,4.2-8.3,7.3-11.9,10.4c-1.9-1.7-1.9-1.7,5.2-9.3
		C234.5,1097.6,231.3,1094.2,227,1089.6z"/>
	<path id="XMLID_1184_" class="st9" d="M193.6,1090.4c4.9-3.8,8.5-6.6,13.1-10.1c-4.5-3.4-7.8-6-12.3-9.4c4.9-3.6,8.7-6.4,12.7-9.3
		c-3-3.2-4.8-4.8-6.2-6.6c-0.6-0.8-0.5-2.1-0.7-3.1c1.1,0.2,2.4,0,3.1,0.5c2.8,2.3,5.4,4.8,8.9,8c-4.3,3.4-7.8,6.3-12.2,9.9
		c4.4,3.4,7.9,6,12.5,9.5c-5.1,3.9-8.7,6.7-12.9,10c4.7,3.9,8.3,6.9,12.1,10.1c-4.5,4.1-8.1,7.3-12.2,11c-1.4-5.2,4.5-6.3,6-10.7
		C202.2,1097.5,198.5,1094.4,193.6,1090.4z"/>
	<path id="XMLID_1180_" class="st15" d="M433,617.5c-1.7-1.4-4.3-2.6-4.5-4.1c-0.4-2.3,0.2-5.6,1.7-7.2c7.4-8,15.3-15.6,23-23.3
		c2.7-2.7,5.4-5.4,8.1-8c2.6-2.5,5.6-2.9,8.3-0.3c2.9,2.8,2.6,6-0.1,8.7c-10.5,10.6-21,21.1-31.7,31.6
		C436.7,615.9,435.1,616.3,433,617.5z M458.7,580.5c-8.8,8.8-17.7,17.7-26.6,26.6c-1.9,1.9-3.8,4.3-0.9,6.3c1.2,0.8,4.7,0.2,5.9-1
		c9.2-8.8,18.2-17.9,26.2-25.8C461.8,584.5,460.4,582.6,458.7,580.5z M465.3,573.9c-1.4,2.1-3.3,3.7-3,4.8c0.4,1.5,2.4,2.5,3.7,3.7
		c1.1-1.4,2.9-2.7,3.1-4.2C469.1,577.1,467,575.8,465.3,573.9z"/>
	<path id="XMLID_9_" class="st15" d="M810.3,101.2c-1.7-1.4-4.3-2.6-4.5-4.1c-0.4-2.3,0.2-5.6,1.7-7.2c7.4-8,15.3-15.6,23-23.3
		c2.7-2.7,5.4-5.4,8.1-8c2.6-2.5,5.6-2.9,8.3-0.3c2.9,2.8,2.6,6-0.1,8.7c-10.5,10.6-21,21.1-31.7,31.6
		C814,99.6,812.4,100.1,810.3,101.2z M835.9,64.2c-8.8,8.8-17.7,17.7-26.6,26.6c-1.9,1.9-3.8,4.3-0.9,6.3c1.2,0.8,4.7,0.2,5.9-1
		c9.2-8.8,18.2-17.9,26.2-25.8C839,68.2,837.6,66.4,835.9,64.2z M842.6,57.7c-1.4,2.1-3.3,3.7-3,4.8c0.4,1.5,2.4,2.5,3.7,3.7
		c1.1-1.4,2.9-2.7,3.1-4.2C846.4,60.9,844.3,59.6,842.6,57.7z"/>
	<path id="XMLID_118_" class="st15" d="M688.3,1201.5c-1.7-1.4-4.3-2.6-4.5-4.1c-0.4-2.3,0.2-5.6,1.7-7.2c7.4-8,15.3-15.6,23-23.3
		c2.7-2.7,5.4-5.4,8.1-8c2.6-2.5,5.6-2.9,8.3-0.3c2.9,2.8,2.6,6-0.1,8.7c-10.5,10.6-21,21.1-31.7,31.6
		C692,1199.9,690.3,1200.4,688.3,1201.5z M713.9,1164.6c-8.8,8.8-17.7,17.7-26.6,26.6c-1.9,1.9-3.8,4.3-0.9,6.3
		c1.2,0.8,4.7,0.2,5.9-1c9.2-8.8,18.2-17.9,26.2-25.8C717,1168.5,715.6,1166.7,713.9,1164.6z M720.5,1158c-1.4,2.1-3.3,3.7-3,4.8
		c0.4,1.5,2.4,2.5,3.7,3.7c1.1-1.4,2.9-2.7,3.1-4.2C724.4,1161.2,722.3,1159.9,720.5,1158z"/>
	<path id="XMLID_1175_" class="st15" d="M219.3,997.1c-3-0.4-7.2,0.3-8.7-1.5c-2.8-3.3-5-7.8-5.8-12.1c-0.9-4.7,6.5-12.9,10.5-12.8
		c4.4,0.2,9.8-0.7,13,1.4c3.1,2.1,5.2,7.4,5.5,11.4c0.3,3.3-2,7.6-4.5,10.2c-2.2,2.3-6.3,2.8-9.5,4
		C219.6,997.6,219.4,997.3,219.3,997.1z M230.8,981.8c-3.5-9.7-5.9-10.8-16.1-7.9C218.3,983.5,218.7,983.6,230.8,981.8z
		 M230.7,985.4c-12.3-1.4-14.3-0.3-15.7,8.6C227.1,995.3,227.7,995,230.7,985.4z M211.4,992.9c5.9-8.6,5.9-10.3,0.1-18.2
		C205.9,983.3,205.9,983.3,211.4,992.9z"/>
	<path id="XMLID_191_" class="st15" d="M611,1287.3c-3-0.4-7.2,0.3-8.7-1.5c-2.8-3.3-5-7.8-5.8-12.1c-0.9-4.7,6.5-12.9,10.5-12.8
		c4.4,0.2,9.8-0.7,13,1.4c3.1,2.1,5.2,7.4,5.5,11.4c0.3,3.3-2,7.6-4.5,10.2c-2.2,2.3-6.3,2.8-9.5,4
		C611.3,1287.8,611.1,1287.6,611,1287.3z M622.5,1272.1c-3.5-9.7-5.9-10.8-16.1-7.9C610,1273.7,610.4,1273.9,622.5,1272.1z
		 M622.4,1275.6c-12.3-1.4-14.3-0.3-15.7,8.6C618.8,1285.5,619.4,1285.2,622.4,1275.6z M603.1,1283.1c5.9-8.6,5.9-10.3,0.1-18.2
		C597.6,1273.5,597.6,1273.5,603.1,1283.1z"/>
	<path id="XMLID_1172_" class="st14" d="M339.1,697.3c0,3.5,0,6.4,0,9.5c-3.1,0-5.8,0-9,0c-0.2-3.1-0.4-6.1-0.6-9.2
		c-3.3-0.5-7-0.3-9.3-1.9c-1.4-0.9-0.6-5-0.8-8c3.6-0.2,6.6-0.5,10-0.7c0.2-3.2,0.4-6.2,0.7-9.5c2.9,0,5.5,0,8.9,0
		c0.2,2.9,0.4,6,0.7,9.5c3.2,0.2,6.2,0.4,9.5,0.7c0,2.9,0,5.6,0,8.8C346.2,696.7,343,696.9,339.1,697.3z M332.5,690.1
		c-2.9,0-5.1-0.2-7.2,0.1c-1,0.1-1.9,1.1-2.8,1.7c1,0.7,1.9,1.9,3,2.1c2.2,0.3,4.5,0.1,7,0.1c0,2.9-0.2,4.9,0.1,6.9
		c0.2,1.1,1.3,2,2.1,3.1c0.6-1.1,1.6-2.1,1.8-3.3c0.3-2.1,0.1-4.2,0.1-6.6c2.8,0,4.8,0.2,6.7-0.1c1.2-0.2,2.2-1.2,3.3-1.8
		c-1-0.7-2-1.8-3.1-2c-2.1-0.3-4.2-0.1-6.9-0.1c0-2.2,0.3-3.8-0.1-5.3c-0.4-1.6-1.4-3.1-2.1-4.7c-0.6,1.5-1.5,2.9-1.8,4.4
		C332.2,686,332.5,687.7,332.5,690.1z"/>
	<path id="XMLID_115_" class="st14" d="M235.6,900.4c0,3.5,0,6.4,0,9.5c-3.1,0-5.8,0-9,0c-0.2-3.1-0.4-6.1-0.6-9.2
		c-3.3-0.5-7-0.3-9.3-1.9c-1.4-0.9-0.6-5-0.8-8c3.6-0.2,6.6-0.5,10-0.7c0.2-3.2,0.4-6.2,0.7-9.5c2.9,0,5.5,0,8.9,0
		c0.2,2.9,0.4,6,0.7,9.5c3.2,0.2,6.2,0.4,9.5,0.7c0,2.9,0,5.6,0,8.8C242.7,899.8,239.5,900.1,235.6,900.4z M229,893.2
		c-2.9,0-5.1-0.2-7.2,0.1c-1,0.1-1.9,1.1-2.8,1.7c1,0.7,1.9,1.9,3,2.1c2.2,0.3,4.5,0.1,7,0.1c0,2.9-0.2,4.9,0.1,6.9
		c0.2,1.1,1.3,2,2.1,3.1c0.6-1.1,1.6-2.1,1.8-3.3c0.3-2.1,0.1-4.2,0.1-6.6c2.8,0,4.8,0.2,6.7-0.1c1.2-0.2,2.2-1.2,3.3-1.8
		c-1-0.7-2-1.8-3.1-2c-2.1-0.3-4.2-0.1-6.9-0.1c0-2.2,0.3-3.8-0.1-5.3c-0.4-1.6-1.4-3.1-2.1-4.7c-0.6,1.5-1.5,2.9-1.8,4.4
		C228.8,889.1,229,890.8,229,893.2z"/>
	<g id="XMLID_29_">
		<path id="XMLID_1171_" class="st15" d="M581,657.6c-0.7,2.1-0.9,4.6-2.1,6.3c-1.8,2.5-2.1,4.4,0,6.7c2.8,3.2,2.8,6.7,0,9.9
			c-2.1,2.4-2,4.3,0.1,6.7c2.7,3.2,2.7,6.7,0,9.9c-2,2.4-2.1,4.3,0,6.7c2.8,3.2,2.7,6.7-0.1,9.9c-2.1,2.4-1.7,4.3,0.1,6.7
			c1.2,1.7,1.4,4.1,1.1,6.4c-3.3-5-9.4-9.4-3-16.2c0.7-0.8,0-3.9-1-5.3c-2.4-3.5-2.2-6.4,0-10c1-1.6,0.9-4.9-0.1-6.5
			c-2.2-3.6-2.3-6.5,0.1-10c1-1.4,1.4-4.6,0.5-5.7c-3.4-4.2-3.1-7.8,0.3-11.7c1-1.1,1.3-2.8,1.9-4.2
			C579.6,657.3,580.3,657.4,581,657.6z"/>
		<path id="XMLID_1170_" class="st15" d="M555.2,657.5c-0.6,2.1-0.7,4.5-1.9,6.1c-2,2.6-2.5,4.6-0.1,7.1c2.9,3.2,2.7,6.7-0.1,9.8
			c-2.1,2.4-1.9,4.4,0.1,6.7c2.7,3,2.9,6.4,0.3,9.4c-2.4,2.7-2.5,4.9-0.1,7.6c2.5,2.8,2.5,6.1,0.1,8.9c-2.3,2.7-2.4,4.8-0.1,7.6
			c1.2,1.5,1.2,4,0.8,6.2c-3.5-5.2-9.1-10.2-2.6-16.9c0.6-0.6-0.2-3.2-1-4.3c-2.7-3.5-3.2-6.9-0.1-10.3c2.1-2.3,2-4.4-0.1-6.7
			c-2.8-3.2-2.9-6.6,0-9.8c2.1-2.3,2.1-4.4,0-6.7c-2.8-3.2-2.7-6.5-0.1-9.9c1.2-1.5,1.8-3.4,2.8-5.1
			C553.8,657.3,554.5,657.4,555.2,657.5z"/>
		<path id="XMLID_1169_" class="st15" d="M563.6,657.5c-0.6,2.2-0.7,4.7-1.9,6.4c-1.8,2.5-2.1,4.3,0,6.7c2.8,3.2,2.8,6.7,0,9.9
			c-2.1,2.4-2,4.3,0.1,6.7c2.9,3.2,2.8,6.7,0,9.9c-2.1,2.3-2.2,4.3-0.1,6.7c2.9,3.2,2.9,6.7,0,9.8c-2.1,2.4-1.8,4.2-0.1,6.8
			c1.2,1.8,1.4,4.2,2,6.4c-0.6,0.1-1.1,0.2-1.7,0.4c-1.6-2.8-4.9-6-4.4-8.2c1.8-7,2.1-13.6-0.2-20.4c-0.2-0.7,0.8-2,1.5-2.8
			c2.3-2.4,2.3-4.7,0-7.2c-2.7-3-2.4-6.1-0.2-9.5c1-1.5,1.7-4.6,0.9-5.6c-3.5-4.3-3.5-8.1,0.2-12.2c1-1.1,1.3-2.8,1.9-4.2
			C562.4,657.2,563,657.3,563.6,657.5z"/>
		<path id="XMLID_1168_" class="st15" d="M570.5,726.9c-1.3-2.1-3.2-4.1-3.7-6.4c-0.5-2.5-0.6-5.8,0.6-7.9c1.7-3,2.3-5-0.1-7.7
			c-2.7-3.1-1.9-6.1,0.1-9.5c1-1.7,1-4.9,0-6.5c-2.3-3.6-2.4-6.5,0-10c1-1.5,1.5-4.6,0.7-5.7c-3.3-4.2-3.5-7.7,0.1-11.7
			c1-1.1,1.3-2.9,1.9-4.3c0.6,0.2,1.2,0.3,1.8,0.5c-0.5,2-0.4,4.4-1.5,5.9c-2,2.6-2.3,4.6,0,7.2c2.8,3.2,2.2,6.4-0.1,10
			c-0.9,1.5-0.9,4.6,0,6c2.4,3.7,2.5,6.8,0,10.5c-1,1.5-1,4.6-0.1,6c2.4,3.7,2.9,7.1-0.1,10.4c-2.2,2.5-1.4,4.3,0.3,6.7
			c1.2,1.7,1.4,4.1,2,6.2C571.8,726.7,571.1,726.8,570.5,726.9z"/>
	</g>
	<g id="XMLID_82_">
		<path id="XMLID_86_" class="st15" d="M458.1,255.3c-0.7,2.1-0.9,4.6-2.1,6.3c-1.8,2.5-2.1,4.4,0,6.7c2.8,3.2,2.8,6.7,0,9.9
			c-2.1,2.4-2,4.3,0.1,6.7c2.7,3.2,2.7,6.7,0,9.9c-2,2.4-2.1,4.3,0,6.7c2.8,3.2,2.7,6.7-0.1,9.9c-2.1,2.4-1.7,4.3,0.1,6.7
			c1.2,1.7,1.4,4.1,1.1,6.4c-3.3-5-9.4-9.4-3-16.2c0.7-0.8,0-3.9-1-5.3c-2.4-3.5-2.2-6.4,0-10c1-1.6,0.9-4.9-0.1-6.5
			c-2.2-3.6-2.3-6.5,0.1-10c1-1.4,1.4-4.6,0.5-5.7c-3.4-4.2-3.1-7.8,0.3-11.7c1-1.1,1.3-2.8,1.9-4.2
			C456.7,255,457.4,255.1,458.1,255.3z"/>
		<path id="XMLID_85_" class="st15" d="M432.3,255.2c-0.6,2.1-0.7,4.5-1.9,6.1c-2,2.6-2.5,4.6-0.1,7.1c2.9,3.2,2.7,6.7-0.1,9.8
			c-2.1,2.4-1.9,4.4,0.1,6.7c2.7,3,2.9,6.4,0.3,9.4c-2.4,2.7-2.5,4.9-0.1,7.6c2.5,2.8,2.5,6.1,0.1,8.9c-2.3,2.7-2.4,4.8-0.1,7.6
			c1.2,1.5,1.2,4,0.8,6.2c-3.5-5.2-9.1-10.2-2.6-16.9c0.6-0.6-0.2-3.2-1-4.3c-2.7-3.5-3.2-6.9-0.1-10.3c2.1-2.3,2-4.4-0.1-6.7
			c-2.8-3.2-2.9-6.6,0-9.8c2.1-2.3,2.1-4.4,0-6.7c-2.8-3.2-2.7-6.5-0.1-9.9c1.2-1.5,1.8-3.4,2.8-5.1
			C430.9,255,431.6,255.1,432.3,255.2z"/>
		<path id="XMLID_84_" class="st15" d="M440.7,255.2c-0.6,2.2-0.7,4.7-1.9,6.4c-1.8,2.5-2.1,4.3,0,6.7c2.8,3.2,2.8,6.7,0,9.9
			c-2.1,2.4-2,4.3,0.1,6.7c2.9,3.2,2.8,6.7,0,9.9c-2.1,2.3-2.2,4.3-0.1,6.7c2.9,3.2,2.9,6.7,0,9.8c-2.1,2.4-1.8,4.2-0.1,6.8
			c1.2,1.8,1.4,4.2,2,6.4c-0.6,0.1-1.1,0.2-1.7,0.4c-1.6-2.8-4.9-6-4.4-8.2c1.8-7,2.1-13.6-0.2-20.4c-0.2-0.7,0.8-2,1.5-2.8
			c2.3-2.4,2.3-4.7,0-7.2c-2.7-3-2.4-6.1-0.2-9.5c1-1.5,1.7-4.6,0.9-5.6c-3.5-4.3-3.5-8.1,0.2-12.2c1-1.1,1.3-2.8,1.9-4.2
			C439.4,254.9,440.1,255.1,440.7,255.2z"/>
		<path id="XMLID_83_" class="st15" d="M447.6,324.6c-1.3-2.1-3.2-4.1-3.7-6.4c-0.5-2.5-0.6-5.8,0.6-7.9c1.7-3,2.3-5-0.1-7.7
			c-2.7-3.1-1.9-6.1,0.1-9.5c1-1.7,1-4.9,0-6.5c-2.3-3.6-2.4-6.5,0-10c1-1.5,1.5-4.6,0.7-5.7c-3.3-4.2-3.5-7.7,0.1-11.7
			c1-1.1,1.3-2.9,1.9-4.3c0.6,0.2,1.2,0.3,1.8,0.5c-0.5,2-0.4,4.4-1.5,5.9c-2,2.6-2.3,4.6,0,7.2c2.8,3.2,2.2,6.4-0.1,10
			c-0.9,1.5-0.9,4.6,0,6c2.4,3.7,2.5,6.8,0,10.5c-1,1.5-1,4.6-0.1,6c2.4,3.7,2.9,7.1-0.1,10.4c-2.2,2.5-1.4,4.3,0.3,6.7
			c1.2,1.7,1.4,4.1,2,6.2C448.9,324.4,448.2,324.5,447.6,324.6z"/>
	</g>
	<g id="XMLID_72_">
		<path id="XMLID_1167_" class="st12" d="M803,698.5c-11.5,0-21.8,0-33.1,0c2.8-4.6,5.3-8.6,8.1-13.1c2.9,4.6,5.4,8.5,8.4,13.3
			c3-4.6,5.6-8.6,8.6-13.2C797.7,689.9,800.1,693.8,803,698.5z"/>
		<path id="XMLID_1166_" class="st12" d="M811.8,685.4c2.9,4.7,5.4,8.6,8.2,13.1c-5.6,0-10.4,0-16.1,0
			C806.5,694.1,808.9,690.2,811.8,685.4z"/>
	</g>
	<g id="XMLID_155_">
		<path id="XMLID_157_" class="st12" d="M813.3,194.3c-11.5,0-21.8,0-33.1,0c2.8-4.6,5.3-8.6,8.1-13.1c2.9,4.6,5.4,8.5,8.4,13.3
			c3-4.6,5.6-8.6,8.6-13.2C808,185.7,810.4,189.7,813.3,194.3z"/>
		<path id="XMLID_156_" class="st12" d="M822,181.2c2.9,4.7,5.4,8.6,8.2,13.1c-5.6,0-10.4,0-16.1,0C816.7,189.9,819.1,186,822,181.2
			z"/>
	</g>
	<path id="XMLID_1165_" class="st14" d="M679.8,795.5c-2.8-4.6-5.1-8.2-7.4-11.9c0.3-0.4,0.6-0.8,0.9-1.2c2.2,1.2,4.5,2.4,6.5,3.4
		c1.9-1,4.2-2.2,6.4-3.5c0.3,0.4,0.6,0.8,1,1.2C684.9,787.4,682.5,791.1,679.8,795.5z"/>
	<path id="XMLID_1164_" class="st14" d="M679.9,811c1.9-1,4.1-2.2,6.2-3.3c0.3,0.4,0.7,0.8,1,1.3c-2.3,3.8-4.7,7.6-7.3,11.8
		c-2.7-4.3-5-7.9-7.3-11.6c0.3-0.4,0.6-0.9,0.8-1.3C675.6,809,677.8,810,679.9,811z"/>
	<path id="XMLID_1163_" class="st14" d="M679.8,770.2c-2.7-4.3-5-8-7.2-11.6c0.3-0.4,0.5-0.9,0.8-1.3c2.2,1,4.4,2,6.8,3.1
		c1.5-0.8,3.7-2.1,5.9-3.4c0.4,0.4,0.7,0.8,1.1,1.3C684.9,762,682.6,765.7,679.8,770.2z"/>
	<path id="XMLID_1162_" class="st14" d="M673.4,769.9c2.1,1.1,4.3,2.1,6.6,3.3c1.5-0.8,3.7-2.1,5.9-3.3c0.4,0.4,0.7,0.9,1.1,1.3
		c-2.3,3.7-4.7,7.4-7.3,11.7c-2.7-4.2-5-8-7.3-11.7C672.8,770.7,673.1,770.3,673.4,769.9z"/>
	<path id="XMLID_1161_" class="st14" d="M687,796.6c-2.3,3.7-4.6,7.3-7.2,11.6c-2.7-4.2-5-7.9-7.3-11.6c0.3-0.4,0.7-0.9,1-1.3
		c2.2,1.1,4.3,2.1,6.5,3.2c1.6-0.8,3.9-2,6.1-3.1C686.4,795.7,686.7,796.1,687,796.6z"/>
	<path id="XMLID_996_" class="st9" d="M572.6,617.5c-10.1,0-19.9,0-30.1,0c0-10,0-19.9,0-30.1c10,0,19.9,0,30.1,0
		C572.6,597.3,572.6,607,572.6,617.5z M554.3,604.8c5.7,0,10.8,0,16,0c0-5.3,0-10.3,0-15.1c-5.6,0-10.7,0-16,0
		C554.3,594.8,554.3,599.5,554.3,604.8z M546.5,615.2c8.3,0,16,0,23.9,0c0-2.6,0-4.9,0-7.1C557.3,605.4,553,606.6,546.5,615.2z
		 M544.5,611.6c7.7-3.4,9.8-10.4,6.6-22c-2.1,0-4.2,0-6.6,0C544.5,597.1,544.5,604.3,544.5,611.6z"/>
</g>
</svg>
